<svg xmlns="http://www.w3.org/2000/svg" xmlns:xlink="http://www.w3.org/1999/xlink" width="310.084" height="36.9" viewBox="0 0 310.084 36.9">
  <defs>
    <clipPath id="clip-path">
      <rect id="Rectangle_304" data-name="Rectangle 304" width="310.084" height="36.9" transform="translate(0 0)" fill="#485160"/>
    </clipPath>
  </defs>
  <g id="Group_6302" data-name="Group 6302" transform="translate(201 -93)">
    <g id="Group_6302-2" data-name="Group 6302" transform="translate(-201 93)" clip-path="url(#clip-path)">
      <path id="Path_6128" data-name="Path 6128" d="M50.079,16.728V12.852c0-2.119-.672-3-1.705-3-1.447,0-2.326,1.809-2.532,6.925h4.238Zm19.742-1.55A2.093,2.093,0,0,0,67.547,12.8a4.485,4.485,0,0,0-2.171.672V26.134c0,1.55.568,1.964,1.861,2.222v.413H56.745v-.413a2.1,2.1,0,0,0,1.705-2.326V11.973c0-1.705-.465-2.119-1.705-2.377V9.182h8.889l-.207,3.876c1.24-2.274,3.359-4.238,6.305-4.238,2.584,0,5.22,1.24,5.22,5.633V26.03c0,1.24.207,2.067,1.447,2.326v.413H68.477v-.413c.93-.207,1.5-.879,1.5-2.326V15.177Zm10.543-3.256c0-1.24-.362-2.119-1.6-2.377V9.131H87.34V25.979c0,1.24.465,2.171,1.705,2.326v.413H78.606V28.3c1.24-.155,1.705-1.085,1.705-2.326V11.921Zm7.184-7.752A3.75,3.75,0,0,1,83.774,7.89a3.706,3.706,0,0,1-3.721-3.721,3.748,3.748,0,0,1,7.494,0m14.832,11.008a2.093,2.093,0,0,0-2.274-2.377,4.485,4.485,0,0,0-2.171.672V26.134c0,1.55.517,1.964,1.861,2.222v.413H89.511v-.413c.672-.155,1.447-.672,1.447-2.326V11.973c0-1.705-.465-2.119-1.705-2.377V9.182h8.889l-.207,3.876c1.24-2.274,3.359-4.238,6.305-4.238,2.584,0,5.22,1.24,5.22,5.633V26.03c0,1.24.207,2.067,1.447,2.326v.413h-9.923v-.413c.93-.207,1.5-.879,1.5-2.326V15.177Zm19.432-.1c0-3.721-.413-5.323-1.705-5.323-1.344,0-1.86,1.654-1.86,5.323v.62c0,3.721.517,5.323,1.86,5.323,1.24,0,1.705-1.654,1.705-5.323Zm68.632,10.233c-.672,1.705-2.842,3.669-6.305,3.669-3.618,0-4.6-2.326-4.6-4.6V10.371h-1.705V9.906A17.11,17.11,0,0,0,186.1,5.151h.413V9.182h3.824v1.24h-3.824V23.86c0,1.292.62,2.067,1.861,2.067a2.256,2.256,0,0,0,1.757-.775Zm32.4-10.129a2.093,2.093,0,0,0-2.274-2.377,4.485,4.485,0,0,0-2.171.672V26.134c0,1.55.517,1.964,1.861,2.222v.413H209.875v-.413c.724-.155,1.55-.672,1.55-2.326V11.973c0-1.705-.465-2.119-1.705-2.377V9.182h8.889l-.207,3.876c1.24-2.274,3.359-4.238,6.305-4.238,2.584,0,5.22,1.24,5.22,5.633V26.03c0,1.24.207,2.067,1.447,2.326v.413H221.348v-.413c.93-.207,1.5-.879,1.5-2.326Zm21.241,8.682a2.434,2.434,0,0,1-2.377,2.429c-1.964,0-2.946-1.4-2.946-3.618V13.007a2.724,2.724,0,0,1,2.842-3A2.54,2.54,0,0,1,244.14,12.7V23.86ZM3.153,5.2c0-1.6-.62-2.946-3.153-3.153V1.379H21.654V8.407h-.724c-2.429-3.979-3.2-5.892-5.737-5.892H11.111V14.557h1.705c2.739,0,3.618-1.189,4.961-4.5h.62V20.139h-.62c-1.4-3.308-2.222-4.5-4.961-4.5H11.111v9.871c0,1.4.517,2.119,2.584,2.119h1.137c3.979,0,5.116-2.636,7.7-6.977H23.2l-.775,8.166H0v-.672C2.532,27.942,3.153,26.6,3.153,25V5.2M252.925,28.769v-.413c-1.654-.258-1.861-1.085-1.861-2.326V1.43h-9.1v.517c1.86.207,2.119.31,2.119,1.344v7.029a5.713,5.713,0,0,0-4.289-1.5c-4.186,0-8.579,3.308-8.579,10.543,0,6.718,2.946,9.923,7.184,9.923a6.074,6.074,0,0,0,5.633-3.308v2.842h8.889ZM301.3,23.86a2.408,2.408,0,0,1-2.429,2.429c-1.964,0-2.946-1.4-2.946-3.618V13.007a2.724,2.724,0,0,1,2.842-3A2.54,2.54,0,0,1,301.3,12.7Zm8.786,4.91v-.413c-1.654-.258-1.809-1.085-1.809-2.326V1.43h-9.1v.517c1.86.207,2.119.31,2.119,1.344v7.029a5.713,5.713,0,0,0-4.289-1.5c-4.186,0-8.579,3.308-8.579,10.543,0,6.718,2.946,9.923,7.184,9.923a6.074,6.074,0,0,0,5.633-3.308v2.842h8.837Zm-46.926-2.894V16.831c-.362,2.016-3.308,2.481-3.308,5.995v.155a2.815,2.815,0,0,0,2.687,3,1.928,1.928,0,0,1,.62-.1m17.623-11.111V25.307c0,1.861.517,2.636,2.171,3v.413H272.2V28.3c.672-.155,1.55-.62,1.55-2.326V11.921a2.1,2.1,0,0,0-1.705-2.377V9.131h8.837c-.1,1.861-.1,3.1-.1,5.633m8.166-2.326a3.75,3.75,0,0,1-3.773,3.721,3.7,3.7,0,1,1,3.773-3.721M200.78,25.875V16.831c-.362,2.016-3.308,2.481-3.308,5.995v.155a2.815,2.815,0,0,0,2.687,3,1.928,1.928,0,0,1,.62-.1M111.32,15.332c0-4.031,3.876-6.563,8.786-6.563a12.657,12.657,0,0,1,4.289.724c.517.052,1.034.052,1.55.052a12.706,12.706,0,0,0,5.375-1.137v3.308h-.207a32.929,32.929,0,0,1-5.53-1.705,6.2,6.2,0,0,1,3.308,5.323c0,4.134-3.876,6.667-8.734,6.667-4.548.052-8.837-2.119-8.837-6.667m4.238,5.788a1.619,1.619,0,0,0-.62,1.24c0,.62.362,1.189,1.757,1.189l7.494.1c4.91.052,6.408,2.791,6.408,5.065,0,5.995-6.874,8.424-11.835,8.424-6.253,0-8.476-1.861-8.476-4.083,0-1.344,1.344-2.687,4.083-2.687a9.282,9.282,0,0,1,1.137.1l.052.1a2.793,2.793,0,0,0-1.085,2.171c0,1.6,1.5,3.256,5.582,3.256,4.031,0,6.563-1.654,6.563-3.463,0-1.55-1.085-2.171-3.876-2.274l-5.633-.258c-4.134-.207-5.685-2.171-5.685-4.445a5.205,5.205,0,0,1,3.721-4.5Zm47.753-4.858c-2.171-1.55-3.979-3.721-3.979-6.667,0-5.013,4.445-8.579,10.853-8.579a22.34,22.34,0,0,1,7.184,1.292l-.207,6.46h-.775c-1.964-4.238-3.308-6.563-6.2-6.563a3.689,3.689,0,0,0-3.876,3.876c0,1.6,1.085,2.946,2.584,4.031l4.083,3c3.153,2.274,5.065,4.031,5.065,7.235,0,5.53-5.375,8.786-10.8,8.786a18.339,18.339,0,0,1-8.217-1.861l-.31-7.287h.775c2.377,5.065,4.393,7.959,7.6,7.959a3.619,3.619,0,0,0,3.824-3.876c0-1.964-1.5-3.308-3.463-4.755ZM56.59,22.413a8.889,8.889,0,0,1-9.044,6.77c-5.892,0-9.1-4.341-9.1-9.3,0-6.305,3.824-11.06,10.078-11.06,4.6,0,8.011,2.842,8.011,8.424v.775h-10.7c0,5.065,2.429,7.029,5.168,7.029a5.994,5.994,0,0,0,5.168-2.739ZM210.5,26.754a7.817,7.817,0,0,1-5.788,2.429c-2.429,0-3.669-1.085-3.928-2.739a5.621,5.621,0,0,1-5.013,2.687,4.9,4.9,0,0,1-5.22-4.961c0-3.463,2.377-4.755,6.15-5.737,3.049-.775,4.186-1.861,4.186-4.186v-.155a4.071,4.071,0,0,0-4.341-3.979,7.279,7.279,0,0,0-1.809.258,3.467,3.467,0,0,1,3.2,3.359,3.431,3.431,0,0,1-3.514,3.411,3.222,3.222,0,0,1-3.256-3.308c0-3.153,4.341-5.116,9.1-5.116,4.6,0,7.545,1.861,7.545,5.22,0,.052,0,4.5-.1,11.37,0,.827.362,1.447,1.24,1.447a2.733,2.733,0,0,0,1.292-.362Zm62.379,0a7.817,7.817,0,0,1-5.788,2.429c-2.429,0-3.669-1.085-3.928-2.739a5.621,5.621,0,0,1-5.013,2.687,4.9,4.9,0,0,1-5.22-4.961c0-3.463,2.377-4.755,6.15-5.737,3.049-.775,4.186-1.861,4.186-4.186v-.155a4.071,4.071,0,0,0-4.341-3.979,7.279,7.279,0,0,0-1.809.258,3.467,3.467,0,0,1,3.2,3.359,3.431,3.431,0,0,1-3.514,3.411,3.254,3.254,0,0,1-3.256-3.308c0-3.153,4.341-5.116,9.1-5.116,4.651,0,7.545,1.861,7.545,5.22,0,.052,0,4.5-.052,11.37,0,.827.362,1.447,1.24,1.447a2.9,2.9,0,0,0,1.292-.362ZM33.334,28.769H27.649L22.326,12.387c-.568-1.705-1.24-2.532-2.016-2.791V9.182H32.249V9.6c-2.067.362-2.842,1.137-2.274,3l3.618,11.99,3-10.75A9.888,9.888,0,0,0,37,11.353c0-1.292-.879-1.6-1.964-1.757V9.182h6.1V9.6c-1.085.362-1.861.93-2.894,4.083Z" transform="translate(0 -0.242)" fill="#485160" fill-rule="evenodd"/>
      <path id="Path_6129" data-name="Path 6129" d="M277.463,24.7c.052-.052.052-.1.052-.207-.052-.052-.1-.1-.155-.1h-.1c-.052,0-.1.052-.052.1,0,.155.1.207.258.207m-12.248-5.943a2.275,2.275,0,0,0-.517-.1c-.207-.052-.465-.052-.672-.1a.235.235,0,0,0-.258,0l.517.31a.051.051,0,0,1,.052.052h.1a3.412,3.412,0,0,0,.724-.052c0-.052,0-.052.052-.1m5.426-2.016v.052a.111.111,0,0,0,.1.1.1.1,0,0,0,.155,0,1.835,1.835,0,0,1,.465-.207,2.189,2.189,0,0,1,1.292-.052h.052c.052,0,.1-.052.052-.1a.051.051,0,0,0-.052-.052.747.747,0,0,0-.362-.1h-.517a3.332,3.332,0,0,0-1.034.155c0,.1-.1.155-.155.207m7.649,2.791c.052-.1.052-.207.1-.31v-.1a.242.242,0,0,0-.413,0,.454.454,0,0,0-.052.362c0,.052,0,.052.052.1a1.014,1.014,0,0,0,.465.465c.052.052.155.052.207.1a1.571,1.571,0,0,1,.362.258.561.561,0,0,1,.207.465.19.19,0,0,0,.052.155.571.571,0,0,0,0-.413c-.1-.155-.155-.258-.258-.413l-.31-.31c-.258-.1-.31-.258-.413-.362m-2.274,10.8c-.052.052-.1.052-.155.1a.833.833,0,0,1-.362.207,1.431,1.431,0,0,1-.465.052h-.93a.47.47,0,0,0-.413.207.216.216,0,0,0,0,.362c.052.1.155.1.258.1s.155-.1.155-.207v-.052a3.558,3.558,0,0,1,.413-.155h.362a1.042,1.042,0,0,0,.568-.155.268.268,0,0,1,.207-.1,1.37,1.37,0,0,0,.31-.258c0-.052,0-.052.052-.1M272.5,21.547a.387.387,0,0,0,.052.258,1.51,1.51,0,0,1,.1.465.958.958,0,0,0,.1.362c.155.31.362.568.517.879.1.207.207.465.31.672a.864.864,0,0,0-.052.62c.052,0,.052-.052.052-.1.052-.155.052-.31.207-.413a.243.243,0,0,0,.052-.31,2.833,2.833,0,0,0-.413-.775c-.155-.207-.31-.465-.465-.672a1.911,1.911,0,0,1-.258-.568.343.343,0,0,0-.207-.413m7.235-6.1h0c0-.052,0-.052-.052-.052-.258,0-.517-.052-.827-.052a3.912,3.912,0,0,0-.775.052h-.207a12.072,12.072,0,0,0-1.344.207c-.31.052-.568.155-.879.207a13.341,13.341,0,0,0-1.344.413c-.362.155-.775.258-1.137.413-.052,0-.1.052-.155.052s-.052.052-.1.1a1.081,1.081,0,0,0,.31.207l.155-.1c.1-.052.258-.155.362-.207.31-.1.62-.258.879-.362a4.549,4.549,0,0,1,.775-.258c.31-.1.62-.155.879-.258a11.428,11.428,0,0,1,1.292-.258c.62-.052,1.24-.1,1.861-.1h.31m-2.481,8.837a.285.285,0,0,0,.258.1h.207a.513.513,0,0,0,.258-.672c0-.052-.052-.1-.052-.155a.566.566,0,0,1,0-.413c.052-.1.155-.207.207-.31a2.222,2.222,0,0,1,.517-.465,1.3,1.3,0,0,0,.517-.775.441.441,0,0,0,0-.362l-.052-.052a.051.051,0,0,0-.052.052c0,.052-.052.1-.052.207-.052.1-.052.207-.1.258a1.207,1.207,0,0,1-.362.362,2.024,2.024,0,0,0-.517.413,2.433,2.433,0,0,0-.672.775.9.9,0,0,0-.155.724.656.656,0,0,1,.052.31M265.318,12.658A11.313,11.313,0,0,1,261.958,7.8c-.052,0-.052,0-.1.052a.4.4,0,0,0-.1.258,1.007,1.007,0,0,0,.052.413,6.168,6.168,0,0,0,.413.827,11,11,0,0,0,.827,1.292c.207.258.465.568.672.827A7.411,7.411,0,0,0,264.9,12.5a.713.713,0,0,1,.207.155c.052.052.1.052.207,0m-.207,24.6a.16.16,0,0,0,.052-.1c0-.1.052-.258.052-.362a1.857,1.857,0,0,1,.1-.568c.1-.31.207-.568.31-.879s.207-.62.31-.879c.052-.207.155-.413.207-.62l.31-.93.155-.465c0-.052.052-.1.052-.155a.311.311,0,0,0,.052-.207.734.734,0,0,1,.1-.31c0-.052.052-.1.052-.155a.244.244,0,0,0-.052-.31c0-.052-.052-.052-.1-.052a.735.735,0,0,0-.1.31c0,.1-.1.1-.155.052a1.358,1.358,0,0,1-.362-.775c0-.1-.052-.207-.052-.31s-.052-.155-.1-.155c0,.052-.052.052-.052.1V30.9c0,.155.052.258.052.413v.879a2.12,2.12,0,0,1-.052.568,1.431,1.431,0,0,1-.052.465,13.513,13.513,0,0,1-.31,1.4c-.052.258-.155.517-.207.775a5.652,5.652,0,0,1-.258.879,2.414,2.414,0,0,0-.155.879v.155c.1-.155.155-.1.207-.052m-2.636-22.946a.4.4,0,0,0-.052.413.7.7,0,0,0,.31.362.18.18,0,0,1,.1.052v.31c.052.258.155.31.413.31h.568a.734.734,0,0,0,.31-.1,8.98,8.98,0,0,0,.982-.517.18.18,0,0,1,.1-.052.391.391,0,0,0-.207-.052,2.16,2.16,0,0,1-.517-.207c-.258-.1-.517-.258-.827-.413a5.647,5.647,0,0,1-.775-.413,2.842,2.842,0,0,1-.465-.362,3.559,3.559,0,0,1-.568-.672c0-.052-.052-.052-.052-.1s-.052-.052-.1,0a.88.88,0,0,0,.052.362.928.928,0,0,0,.207.465,5.472,5.472,0,0,1,.517.62" transform="translate(-126.452 -3.769)" fill="#485160" fill-rule="evenodd"/>
      <path id="Path_6130" data-name="Path 6130" d="M265.567,14.705c.052-.052.052-.1,0-.1a10.48,10.48,0,0,1-.93-.672,8.852,8.852,0,0,1-1.4-1.034c-.258-.258-.568-.465-.827-.724-.155-.207-.362-.413-.517-.62a4.41,4.41,0,0,1-.672-1.292,1.861,1.861,0,0,1-.1-1.189v-.1a1.217,1.217,0,0,0-.1-.413c0-.052-.052-.1-.1-.155a1.082,1.082,0,0,0-.207.31,2.2,2.2,0,0,0,0,1.292,5.629,5.629,0,0,0,.517,1.292c.052.052.052.1.1.155a.4.4,0,0,0-.052.413.71.71,0,0,0,.258.413,3.948,3.948,0,0,0,.465.465,4.5,4.5,0,0,0,.568.465l1.24.775a7.034,7.034,0,0,0,1.292.568l.465.155m2.842,1.757a.051.051,0,0,0,.052-.052v-.1a6.924,6.924,0,0,0-.052-1.034,4.652,4.652,0,0,0-.155-.827A3.872,3.872,0,0,0,268,13.62a7.315,7.315,0,0,0-.413-.93c-.1-.258-.258-.517-.362-.775-.155-.31-.362-.62-.568-.982a2.249,2.249,0,0,1-.207-.362l-.1-.1v.1c0,.052.052.1.1.155.052.207.155.465.207.672a4.307,4.307,0,0,1,.207.775,3.91,3.91,0,0,1,.052.775,2.639,2.639,0,0,1-.155,1.085,2.413,2.413,0,0,1-.258.517,1.466,1.466,0,0,1-.413.568v.052c.052,0,.1.052.207.052a2.984,2.984,0,0,1,.879.31,12.532,12.532,0,0,1,1.034.724l.155.155Zm-2.016,8.062c-.1.1-.258.207-.362.31a5.49,5.49,0,0,0-.568.465c-.207.155-.1.155-.413.052-.052,0-.1-.052-.155-.1-.1-.052-.155-.155-.258-.207l-.155-.155a3.1,3.1,0,0,1-.413-.827l-.052-.052c-.052,0-.1-.052-.155-.052,0,.052-.052.052-.052.1a2.134,2.134,0,0,1-.362.568,4.907,4.907,0,0,0-.517.879c-.1.207-.207.465-.31.724,0,.052-.052.1,0,.207.052,0,.1-.052.155-.052a.562.562,0,0,1,.258-.052,3.051,3.051,0,0,1,.724.1,1.205,1.205,0,0,0,1.034-.1c.207-.1.362-.155.568-.258a1.836,1.836,0,0,1,.517-.1c.31,0,.568-.052.879-.052h.1a1.837,1.837,0,0,0,.465-.207c.155-.052.258-.207.413-.207l.052-.052a2.786,2.786,0,0,0,.724-.827.1.1,0,0,0,0-.155h-.052c-.052,0-.1.052-.155.052-.1.052-.258.052-.362.1-.31,0-.568.052-.879.052a1.784,1.784,0,0,0-.672-.155m-2.584,15.659a.772.772,0,0,1-.362.155c-.207.052-.465.052-.672.1-.258,0-.517.052-.775.052h-.052l-.052.052a.231.231,0,0,0,0,.258.111.111,0,0,0,.1.1h4.858c.1,0,.1-.052.1-.1v-.1c0-.155-.052-.207-.155-.207-.155-.052-.31-.052-.517-.1h-.155c-.052-.155-.052-.31-.207-.413h-.207a.466.466,0,0,0-.258.052.571.571,0,0,1-.413,0,1.824,1.824,0,0,1-.672-.413c-.052-.052-.1-.155-.155-.207,0-.052-.052-.1-.052-.155a.424.424,0,0,1-.052-.362v-.155c0-.207-.155-.31-.362-.31h-.1a.264.264,0,0,1-.258-.207v-.155a1.835,1.835,0,0,1,.207-.465,6.477,6.477,0,0,0,.465-1.292c.052-.362.155-.672.207-1.034a2.593,2.593,0,0,0,.1-.62,2.414,2.414,0,0,1,.155-.879c.052-.207.1-.413.155-.672v-.155a2.49,2.49,0,0,1,0-.62c-.155-.052-.155-.052-.258.052a.16.16,0,0,1-.052.1c-.207.413-.362.775-.568,1.189a1.431,1.431,0,0,0-.155.672c0,.258.052.465.052.724v.517c-.052.155-.052.362-.1.517-.052.258-.155.465-.207.724a2.437,2.437,0,0,1-.31.775c0,.052-.052.052-.052.1-.1.1-.155.258-.258.362a.627.627,0,0,0,.052.672,3.158,3.158,0,0,1,.362.724,1.834,1.834,0,0,0,.207.465.638.638,0,0,1,.413.258m-1.4-23.876c-.1.052-.1.155-.1.258a1.323,1.323,0,0,0,.517.672,1.327,1.327,0,0,0-.258.62,1.228,1.228,0,0,0,.155.62h.052a1.659,1.659,0,0,1,.724.052.437.437,0,0,0,.362,0,1.593,1.593,0,0,1,.517-.052h.413a.111.111,0,0,0,.1-.1c0-.1-.052-.155-.1-.258a.583.583,0,0,1-.052-.413l.052-.052a2.558,2.558,0,0,1,.672-.207c.052,0,.052,0,.052-.052-.052,0-.1-.052-.155-.052a1.4,1.4,0,0,0-.465,0,2.564,2.564,0,0,1-.672-.155c-.052,0-.052-.052-.1-.052l-.155-.31a.19.19,0,0,1,.052-.155,1.355,1.355,0,0,1,.465-.258c.207-.052.413-.1.568-.155a.656.656,0,0,1,.31-.052c.1,0,.155,0,.207.052a1.62,1.62,0,0,1,.413.568c.052.207.155.413.207.62.052.155.1.362.155.568v.517h.052a1.509,1.509,0,0,0,.465-.1,1.255,1.255,0,0,1,1.137.052,2.884,2.884,0,0,1,.413.258c.052.052.1.052.155.1h.052v-.052a.051.051,0,0,0-.052-.052l-.62-.93a5.531,5.531,0,0,0-.775-1.137,4.462,4.462,0,0,0-.672-.724c-.052-.052-.1-.1-.155-.1a5.381,5.381,0,0,0-.827-.31.329.329,0,0,0-.31,0l.155.207a.19.19,0,0,0-.155.052,1.529,1.529,0,0,0-.517.1,2.16,2.16,0,0,0-.517.207h-.052a4.29,4.29,0,0,1-1.085.31.7.7,0,0,1-.62-.1m-.31,2.481c-.1,0-.155.1-.258.155a.284.284,0,0,0-.155.258v.258c.1.155.155.362.258.517a2.786,2.786,0,0,0,.724.827.051.051,0,0,0,.052.052c-.052.1-.155.155-.207.207a.81.81,0,0,1-.827.155c-.052,0-.1-.052-.155-.052a.324.324,0,0,0-.413.1l-.155.155a.777.777,0,0,0-.207.568v.258a.7.7,0,0,1-.1.465.222.222,0,0,0,.207.207.441.441,0,0,0,.362,0,.974.974,0,0,1,.413-.1h.207a.111.111,0,0,0,.1-.1.655.655,0,0,0-.052-.31.268.268,0,0,0-.207-.1c-.052,0-.1.052-.155,0a.38.38,0,0,0-.31.1c-.052.052-.1.1-.207.052a.824.824,0,0,1,.207-.62.523.523,0,0,1,.362-.207,1.509,1.509,0,0,1,.465-.1,2.519,2.519,0,0,0,.568-.207h.1v.1a1.314,1.314,0,0,1-.1.362v.31a.642.642,0,0,0,.31.413l.052.052-.052.1c-.052.1-.052.155-.1.258a.563.563,0,0,0,.1.568c.1.1.207.258.362.31.1.052.155.052.207,0a1.7,1.7,0,0,1,.827-.362.439.439,0,0,0,.258-.155c.1-.207.258-.362.362-.568a1.22,1.22,0,0,1,.413-.465.469.469,0,0,0,.155-.362c0-.155.052-.31.052-.413.052-.155.1-.258.155-.413a1.129,1.129,0,0,1,.155-.258.18.18,0,0,0,.052-.1h-.1a1.509,1.509,0,0,1-.465-.1c-.052,0-.052-.052-.1-.052a.873.873,0,0,0-.517-.155h-.155a.16.16,0,0,1-.1-.052.16.16,0,0,1,.1-.052.329.329,0,0,1,.31,0l.465.155c.1.052.258.052.362.155.1.052.155,0,.207-.052s.1-.052.155-.1c.052.1,0,.155.052.207,0,.1.052.155.052.258v.1a1.216,1.216,0,0,0,.1.413c.052.1.1.258.155.362l.155.31a.529.529,0,0,0,.31.258v-.1c0-.052-.052-.1-.1-.155-.1-.207-.207-.362-.31-.568,0-.052-.052-.1-.052-.155,0-.207-.052-.413-.052-.62,0-.258.052-.568.052-.827a.655.655,0,0,1,.052-.31V19.46a1.129,1.129,0,0,1-.258-.155c-.052,0-.1-.052-.207-.052l-.052.052.052.052c.052,0,.052.052.1.052,0,0,.052.052,0,.052,0,.052-.052.052-.1.052a.19.19,0,0,1-.155-.052c-.052,0-.1-.052-.155-.052a.233.233,0,0,0-.155.155l.052.052h.1a.655.655,0,0,1,.31.052c0,.155,0,.207-.1.207a1.733,1.733,0,0,1-.517,0c-.052,0-.052,0-.052.052s0,.1.052.1h.258c.052,0,.1.052.155.1v.1s-.052.052-.052,0a11746.275,11746.275,0,0,1-.724-.207c-.1-.052-.155-.1-.258-.155-.052,0-.1-.052-.155,0-.207.1-.465.207-.672.31a2.1,2.1,0,0,1-.465.258.329.329,0,0,1-.31,0,1.466,1.466,0,0,1-.569-.413,4.716,4.716,0,0,1-.413-.672.566.566,0,0,1,0-.413c-.1,0-.052-.052-.1-.155" transform="translate(-125.925 -4.059)" fill="#485160" fill-rule="evenodd"/>
      <path id="Path_6131" data-name="Path 6131" d="M267.032,9.716h0V9.458c-.1-.31-.207-.672-.31-.982l-.62-1.24c0-.052-.052-.052-.052-.1-.1-.207-.258-.362-.362-.568-.155-.31-.362-.62-.517-.93-.1-.155-.155-.31-.258-.465-.155-.31-.31-.568-.465-.879l-.31-.62c-.1-.207-.155-.362-.258-.568-.052-.1-.052-.207-.1-.31a8.619,8.619,0,0,0-.413-1.034,3.567,3.567,0,0,0-.155-.413c-.052-.1-.1-.258-.155-.362a4.27,4.27,0,0,0-.362-.672.8.8,0,0,0-.413-.31h-.1a.47.47,0,0,0-.413.207,1.081,1.081,0,0,0-.362.672,6.256,6.256,0,0,0-.052.982c0,.052,0,.1-.052.1a1.108,1.108,0,0,0-.62-.207.543.543,0,0,0-.465.258c0,.052-.052.1-.052.155a2.3,2.3,0,0,0-.052,1.55c.1.258.207.465.31.724a4.863,4.863,0,0,0,.62,1.137c.207.362.465.724.672,1.034s.362.568.568.827a8.36,8.36,0,0,0,.93.982l.465.465c.258.207.568.413.827.62a.051.051,0,0,1,.052.052h.052V9.509c0-.052,0-.052-.052-.1-.1-.1-.207-.155-.258-.258-.1-.1-.258-.207-.362-.31l-.31-.31a5.144,5.144,0,0,1-.724-.775,3.343,3.343,0,0,0-.413-.465c-.258-.258-.413-.568-.672-.879a7.834,7.834,0,0,1-.93-1.861,7.987,7.987,0,0,1-.31-1.189,1.475,1.475,0,0,1,0-.672c0-.1.052-.155.1-.258s.1-.155.258-.1c.1,0,.155.052.207.155a8.562,8.562,0,0,0,.31,1.085,12.857,12.857,0,0,0,.568,1.5,8.314,8.314,0,0,0,.879,1.447,7.989,7.989,0,0,0,1.24,1.4l.258.258c.155.1.31.258.465.362.052.052.1,0,.1-.052a5.476,5.476,0,0,0-.517-.62,10.483,10.483,0,0,1-.672-.93c-.1-.207-.207-.362-.31-.568l-.62-1.085a13.219,13.219,0,0,1-.569-1.24c0-.052,0-.052-.052-.1a1.35,1.35,0,0,1-.155-.413c-.052-.207-.1-.362-.155-.568a4.307,4.307,0,0,1-.207-.775,5.936,5.936,0,0,1-.052-.982.587.587,0,0,1,.155-.413l.1-.1a.157.157,0,0,1,.207,0,.623.623,0,0,1,.258.258c.1.207.258.465.362.672.207.465.413.93.672,1.4a4.27,4.27,0,0,0,.362.672c.207.413.465.827.672,1.24.207.362.413.672.62.982s.413.62.62.982c.207.31.362.62.517.879l.31.62c.155.465.362.93.517,1.344m-3.773,18.192c.052,0,.1,0,.1-.052v-.1a1.475,1.475,0,0,1,0-.672l.052-.258a.655.655,0,0,0-.052-.31,2.179,2.179,0,0,1-.155-.982,6.419,6.419,0,0,1,.207-1.705.328.328,0,0,1,.258-.31c.1-.052.258-.1.362-.155.155-.052.207,0,.258.155v.052l.052.362a11.038,11.038,0,0,1,.31,1.809v.052a1.97,1.97,0,0,1,.052.775v.568c.1,0,.1-.052.155-.1l.155-.465a8.026,8.026,0,0,0,.207-1.085c.052-.258.052-.517.1-.775v-.568c0-.413-.052-.775-.052-1.189,0-.1,0-.207.1-.258a2.587,2.587,0,0,1,.362-.413c0-.052.052-.052,0-.1a.44.44,0,0,0-.258.155l-1.085.62a.181.181,0,0,0-.1.052,5.076,5.076,0,0,0-.93.413.18.18,0,0,0-.1.052c-.207.052-.465.1-.672.155a4.365,4.365,0,0,0-.879.258.656.656,0,0,1-.31.052,2.237,2.237,0,0,1-.827-.052,1.836,1.836,0,0,1-.465-.207c-.052,0-.052-.052-.1-.1-.052-.1-.052-.155,0-.207a.157.157,0,0,1,.207,0,.4.4,0,0,0,.258.1c.207.052.362.1.568.155a1.337,1.337,0,0,0,.982-.155.735.735,0,0,1,.31-.1c.207,0,.413-.1.569-.1a4.548,4.548,0,0,0,.775-.258c.1-.052.207-.052.31-.1.362-.155.775-.362,1.137-.517a4.908,4.908,0,0,0,.879-.517s.052-.052,0-.052h-.052a3.068,3.068,0,0,0-.413.207,1.826,1.826,0,0,1-.879.207,1.113,1.113,0,0,0-.569.1c-.207.1-.362.155-.568.258-.052.052-.155.052-.207.1-.1,0-.155.052-.207.052a.864.864,0,0,1-.62-.052,2.2,2.2,0,0,0-.569-.1.974.974,0,0,0-.413.1,1.758,1.758,0,0,1-.517.052.638.638,0,0,1-.413-.207.18.18,0,0,1-.052-.1.231.231,0,0,1,0-.258,5.217,5.217,0,0,1,.362-.775c.052-.052.052-.1.1-.155a1.813,1.813,0,0,0,.258-.413,3.9,3.9,0,0,1,.568-.724l.1-.1v-.052h-.052c-.052.052-.155.1-.207.155a4.918,4.918,0,0,0-.982,1.085.111.111,0,0,1-.1.1h-.052a1.208,1.208,0,0,0-1.085.258,9,9,0,0,0-.724.62c-.1.1-.155.207-.258.258a.918.918,0,0,1-.517.207c-.052,0-.1.052-.155.052l.1.1a2.2,2.2,0,0,0,.568.1c.155,0,.31-.052.413-.052a.735.735,0,0,0,.31-.1l.31-.155c.258-.362.258-.362.413-.413a6.9,6.9,0,0,0-.362.93c-.052.052-.1.052-.207.1a2.288,2.288,0,0,0-.775.62l-.1.1a5.657,5.657,0,0,0-.568.517l-.052.052c0,.052-.052.155-.052.207a.311.311,0,0,0,.052.207v.052c-.1.155-.1.207.052.31l.052.052c0,.258.052.258.31.362,0,.052,0,.052.052.1a.252.252,0,0,0,.413.1l.1-.1c.052-.155.207-.207.31-.31a.6.6,0,0,0,.31-.31c.052-.1.1-.258.155-.362a.284.284,0,0,1,.155-.258c.052.1.052.155.1.258,0,.155.1.207.207.258a3.293,3.293,0,0,0,.362.1.492.492,0,0,0,.362-.1c.052-.052.155-.1.207-.155a11.341,11.341,0,0,0,.93-.724.19.19,0,0,1,.155-.052c.155-.052.362-.052.517-.1h.1c.052,0,.1-.052.1,0v.207a3.489,3.489,0,0,0-.1.724,3.411,3.411,0,0,0,.31,1.4c.052.1.1.155.1.207a.656.656,0,0,1,.052.31c0,.31.052.568.052.879-.052,0,0,.1.052.155" transform="translate(-124.548 0)" fill="#485160" fill-rule="evenodd"/>
      <path id="Path_6132" data-name="Path 6132" d="M263.191,27.956c-.052-.1-.1-.155-.1-.258a2.521,2.521,0,0,1-.052-.879.656.656,0,0,0-.052-.31.392.392,0,0,1-.1-.207,3.237,3.237,0,0,1-.31-1.4,1.642,1.642,0,0,1,.1-.724c0-.052.052-.155,0-.207a.072.072,0,0,0-.1,0h-.1c-.155.052-.362.052-.517.1-.052,0-.1.052-.155.052-.31.258-.62.465-.93.724-.052.052-.155.1-.207.155a.747.747,0,0,1-.362.1,1.315,1.315,0,0,1-.362-.1c-.1-.052-.207-.1-.207-.258,0-.1-.052-.155-.1-.258a.284.284,0,0,0-.155.258,2.52,2.52,0,0,1-.155.362.6.6,0,0,1-.31.31.466.466,0,0,0-.31.31.111.111,0,0,1-.1.1c-.155.155-.31.1-.413-.1,0-.052,0-.052-.052-.1-.258-.052-.258-.1-.31-.362l-.052-.052c-.155-.1-.207-.155-.052-.31v-.052c0-.052-.052-.155-.052-.207,0-.1.052-.155.052-.207l.052-.052a5.656,5.656,0,0,0,.568-.517l.1-.1a2.927,2.927,0,0,1,.775-.62c.052-.052.1-.052.207-.1a6.9,6.9,0,0,1,.362-.93c-.207.052-.207.052-.413.413l-.31.155c-.1.052-.207.052-.31.1a1.284,1.284,0,0,1-.413.052,1.858,1.858,0,0,1-.568-.1c-.052,0-.052-.052-.1-.1.052,0,.1-.052.155-.052a.663.663,0,0,0,.517-.207l.258-.258a2.719,2.719,0,0,1,.724-.62,1.174,1.174,0,0,1,1.085-.258h.052c0-.052.052-.052.1-.1a6.647,6.647,0,0,1,.982-1.085c.052-.052.155-.1.207-.155h.052v.052a.111.111,0,0,1-.1.1,3.9,3.9,0,0,0-.568.724c-.1.155-.155.258-.258.413-.052.052-.1.1-.1.155a5.217,5.217,0,0,1-.362.775.235.235,0,0,0,0,.258c0,.052.052.052.052.1a.419.419,0,0,0,.413.207,1.758,1.758,0,0,0,.517-.052c.155-.052.258-.052.413-.1a1.022,1.022,0,0,1,.568.1,1.273,1.273,0,0,0,.62.052c.052,0,.155-.052.207-.052a.268.268,0,0,0,.207-.1,2.77,2.77,0,0,1,.568-.258,1.858,1.858,0,0,1,.569-.1,1.314,1.314,0,0,0,.879-.207l.413-.207h.052v.052c-.31.155-.569.362-.879.517-.362.155-.775.362-1.137.517a.735.735,0,0,1-.31.1c-.258.1-.517.155-.775.258a2.2,2.2,0,0,1-.569.1.735.735,0,0,0-.31.1,1.591,1.591,0,0,1-.982.155c-.207-.052-.362-.1-.568-.155-.1-.052-.155-.052-.258-.1s-.155-.052-.207,0a.157.157,0,0,0,0,.207c0,.052.052.052.1.1.155.052.31.155.465.207a4.446,4.446,0,0,0,.827.052c.1,0,.207-.052.31-.052.31-.1.62-.155.879-.258.207-.052.465-.1.672-.155.052,0,.1,0,.1-.052.31-.155.62-.258.93-.413.052,0,.1,0,.1-.052a11.613,11.613,0,0,0,1.085-.62c.1-.052.155-.1.258-.155.052.052.052.052,0,.1a1.393,1.393,0,0,1-.362.413.4.4,0,0,0-.1.258,8.762,8.762,0,0,1,.052,1.189v.568c-.052.258-.052.517-.1.775-.052.362-.155.724-.207,1.085l-.155.465c0,.052-.052.1-.155.1v-.568a3.913,3.913,0,0,0-.052-.775v-.052c-.052-.62-.207-1.189-.31-1.809,0-.1-.052-.207-.052-.362V23.46c-.052-.155-.1-.155-.258-.155a2.52,2.52,0,0,0-.362.155.76.76,0,0,0-.258.31,6.419,6.419,0,0,0-.207,1.705,3.009,3.009,0,0,0,.155.982.655.655,0,0,1,.052.31l-.052.258a1.475,1.475,0,0,0,0,.672v.1c.052.155,0,.207-.052.155m3.773-18.192a9.616,9.616,0,0,1-.517-1.292l-.31-.62c-.155-.31-.362-.62-.517-.879-.207-.31-.413-.62-.62-.982-.207-.31-.413-.62-.62-.982-.207-.413-.465-.827-.672-1.24a4.275,4.275,0,0,0-.362-.672c-.258-.465-.413-.93-.672-1.4a4.272,4.272,0,0,0-.362-.672.623.623,0,0,0-.258-.258.157.157,0,0,0-.207,0c-.052,0-.052.052-.1.1a.587.587,0,0,0-.155.413,6.591,6.591,0,0,0,.052.982,4.309,4.309,0,0,0,.207.775c.052.207.1.362.155.568a3.561,3.561,0,0,0,.155.413c0,.052.052.052.052.1a13.219,13.219,0,0,0,.569,1.24,5.815,5.815,0,0,0,.62,1.085,5.637,5.637,0,0,1,.31.568,10.482,10.482,0,0,0,.672.93,5.473,5.473,0,0,0,.517.62c0,.052-.052.052-.1.052-.155-.1-.31-.258-.465-.362l-.258-.258a10.429,10.429,0,0,1-1.24-1.4,13.465,13.465,0,0,1-.879-1.447,7.471,7.471,0,0,1-.569-1.5l-.31-1.085c-.052-.1-.052-.155-.207-.155-.1,0-.207,0-.258.1s-.052.155-.1.258a1.475,1.475,0,0,0,0,.672,10.07,10.07,0,0,0,.31,1.189,8.945,8.945,0,0,0,.93,1.861,5.642,5.642,0,0,0,.672.879c.155.155.258.31.413.465a9.925,9.925,0,0,0,.724.775l.31.31a2.247,2.247,0,0,0,.362.31c.1.1.207.155.258.258a.18.18,0,0,1,.052.1v.052h-.052a.051.051,0,0,1-.052-.052c-.258-.207-.568-.413-.827-.62l-.465-.465c-.31-.31-.62-.62-.93-.982a7.892,7.892,0,0,1-.568-.827c-.207-.362-.465-.672-.672-1.034s-.413-.775-.62-1.137c-.1-.207-.207-.465-.31-.724a1.806,1.806,0,0,1,.052-1.55c0-.052.052-.1.052-.155a.543.543,0,0,1,.465-.258.993.993,0,0,1,.62.207c.052-.052.052-.052.052-.1a6.252,6.252,0,0,1,.052-.982,1.235,1.235,0,0,1,.362-.672A1.039,1.039,0,0,1,262.105.1h.1a.8.8,0,0,1,.413.31,2.784,2.784,0,0,1,.362.672c.052.1.1.258.155.362a3.555,3.555,0,0,0,.155.413,8.609,8.609,0,0,0,.413,1.034.735.735,0,0,1,.1.31,2.769,2.769,0,0,0,.258.568l.31.62c.155.31.31.568.465.879.1.155.155.31.258.465.155.31.362.62.517.93.1.207.258.362.362.568,0,.052.052.052.052.1l.62,1.24a5.461,5.461,0,0,1,.31.982c.052,0,.052.1,0,.207m-6.305,5.013c.052.1,0,.155,0,.207a.571.571,0,0,0,0,.413,2.932,2.932,0,0,0,.413.672,1.466,1.466,0,0,0,.568.413.33.33,0,0,0,.31,0,2.1,2.1,0,0,0,.465-.258,3.9,3.9,0,0,1,.672-.31h.155a1.13,1.13,0,0,1,.258.155.747.747,0,0,0,.362.1.958.958,0,0,1,.362.1h.052c.052-.052,0-.052,0-.1-.052-.052-.052-.1-.155-.1h-.258c-.052,0-.052-.052-.052-.1a.051.051,0,0,1,.052-.052,1.732,1.732,0,0,0,.517,0c.1,0,.155-.052.1-.207a.656.656,0,0,0-.31-.052h-.1a.051.051,0,0,1-.052-.052.165.165,0,0,1,.155-.155c.052,0,.1.052.155.052s.1.052.155.052.052-.052.1-.052v-.052c0-.052-.052-.052-.1-.052l-.052-.052.052-.052a.391.391,0,0,1,.207.052c.1.052.155.1.258.155v.155c0,.1-.052.207-.052.31,0,.258-.052.568-.052.827,0,.207.052.413.052.62,0,.052.052.1.052.155.1.207.207.362.31.568.052.052.052.1.1.155v.1a1.371,1.371,0,0,1-.31-.258l-.155-.31c-.052-.1-.1-.258-.155-.362a.974.974,0,0,1-.1-.413v-.1c0-.1-.052-.155-.052-.258a.311.311,0,0,0-.052-.207c-.052.052-.1.1-.155.1a.311.311,0,0,1-.207.052c-.1-.052-.258-.1-.362-.155l-.465-.155a.33.33,0,0,0-.31,0c-.052,0-.052.052-.1.052.052,0,.052.052.1.052h.155a1,1,0,0,1,.517.155c.052,0,.052.052.1.052a1.234,1.234,0,0,0,.465.1h.1c0,.052,0,.052-.052.1-.052.1-.1.155-.155.258-.052.155-.1.258-.155.413a1.284,1.284,0,0,0-.052.413.469.469,0,0,1-.155.362,3.347,3.347,0,0,0-.413.465c-.1.207-.258.362-.362.568a.284.284,0,0,1-.258.155,1.7,1.7,0,0,0-.827.362c-.052.052-.1.052-.207,0-.155-.052-.258-.207-.362-.31a.584.584,0,0,1-.1-.568c0-.1.052-.155.1-.258l.052-.1-.052-.052a.8.8,0,0,1-.31-.413.33.33,0,0,1,0-.31,3.287,3.287,0,0,0,.1-.362v-.1h-.1a1.851,1.851,0,0,1-.568.207,1.509,1.509,0,0,1-.465.1.523.523,0,0,0-.362.207,1.469,1.469,0,0,0-.207.62c.1,0,.155,0,.207-.052a.735.735,0,0,1,.31-.1h.155c.1,0,.155,0,.207.1a.656.656,0,0,1,.052.31.111.111,0,0,1-.1.1h-.207a.621.621,0,0,0-.413.1.441.441,0,0,1-.362,0c-.1-.052-.207-.1-.207-.207a.527.527,0,0,0,.1-.465v-.258a.777.777,0,0,1,.207-.568l.155-.155a.4.4,0,0,1,.413-.1c.052,0,.1.052.155.052a.83.83,0,0,0,.827-.155c.1-.052.155-.155.207-.207a.051.051,0,0,0-.052-.052,2.212,2.212,0,0,1-.724-.827c-.1-.155-.155-.362-.258-.517a.231.231,0,0,1,0-.258.284.284,0,0,1,.155-.258c.207-.1.258-.155.362-.207m.31-2.481a1.355,1.355,0,0,0,.775.1,4.29,4.29,0,0,0,1.085-.31.051.051,0,0,0,.052-.052,2.16,2.16,0,0,1,.517-.207,1.837,1.837,0,0,1,.517-.1.19.19,0,0,0,.155-.052l-.155-.207h.31a2.283,2.283,0,0,1,.827.31c.052.052.1.052.155.1a4.462,4.462,0,0,1,.672.724,8.807,8.807,0,0,1,.775,1.137,5.825,5.825,0,0,0,.62.93.051.051,0,0,0,.052.052v.052h-.052c-.052,0-.1-.052-.155-.1-.155-.1-.258-.155-.413-.258a1.262,1.262,0,0,0-1.137-.052,1.509,1.509,0,0,1-.465.1h-.052V13.95c-.052-.207-.1-.362-.155-.568s-.155-.413-.207-.62a1.466,1.466,0,0,0-.413-.568c-.052-.052-.155-.1-.207-.052-.1,0-.207.052-.31.052-.207.052-.362.1-.569.155a1.056,1.056,0,0,0-.465.258.19.19,0,0,0-.052.155c0,.1.1.207.155.31a.181.181,0,0,0,.1.052,1.076,1.076,0,0,0,.672.155h.465a.19.19,0,0,1,.155.052.051.051,0,0,1-.052.052,2.559,2.559,0,0,0-.672.207.051.051,0,0,0-.052.052.549.549,0,0,0,.052.413c.052.1.052.155.1.258,0,.052,0,.1-.1.1h-.413a1.758,1.758,0,0,0-.517.052h-.362a1.72,1.72,0,0,0-.724-.052h-.052a1.376,1.376,0,0,1-.155-.62.953.953,0,0,1,.258-.62,1.323,1.323,0,0,1-.517-.672c-.207-.052-.155-.1-.052-.207m1.4,23.876c-.1-.1-.155-.258-.258-.362a1.836,1.836,0,0,1-.207-.465,1.378,1.378,0,0,0-.362-.724.542.542,0,0,1-.052-.672.6.6,0,0,1,.258-.362.18.18,0,0,0,.052-.1l.31-.775c.052-.258.155-.517.207-.724.052-.155.052-.362.1-.517a.88.88,0,0,0,0-.517c0-.258-.052-.465-.052-.724a1.591,1.591,0,0,1,.155-.672l.568-1.189a.18.18,0,0,0,.052-.1c.052-.1.052-.1.258-.052a2.493,2.493,0,0,0,0,.62v.155c-.052.207-.1.413-.155.672a2.625,2.625,0,0,0-.155.879,2.6,2.6,0,0,1-.1.62c-.052.362-.155.724-.207,1.034a3.878,3.878,0,0,1-.465,1.292,1.834,1.834,0,0,0-.207.465v.155a.236.236,0,0,0,.258.207h.1c.207-.052.362.052.362.31v.155a1.009,1.009,0,0,0,.052.362c0,.052.052.1.052.155a.713.713,0,0,0,.155.207,1.824,1.824,0,0,0,.672.413.571.571,0,0,0,.413,0c.1,0,.155-.052.258-.052h.207c.1.1.1.258.207.413H265a2.274,2.274,0,0,1,.517.1c.1,0,.155.1.155.207v.1c0,.1-.052.1-.1.1H260.71a.111.111,0,0,1-.1-.1.231.231,0,0,1,0-.258.051.051,0,0,1,.052-.052h.052c.258,0,.517-.052.775-.052a3.024,3.024,0,0,0,.672-.1c0,.1.052.052.207-.052" transform="translate(-124.48 -0.048)" fill="#485160" fill-rule="evenodd"/>
      <path id="Path_6133" data-name="Path 6133" d="M266.345,24.524h.62c.31,0,.568-.052.879-.052a.958.958,0,0,0,.362-.1c.052,0,.1-.052.155-.052h.052a.1.1,0,0,1,0,.155,2.787,2.787,0,0,1-.724.827l-.052.052c-.155.052-.258.155-.413.207a1.836,1.836,0,0,0-.465.207h-.1a2.521,2.521,0,0,1-.879.052.85.85,0,0,0-.517.1,1.4,1.4,0,0,0-.568.258,1.205,1.205,0,0,1-1.034.1,1.883,1.883,0,0,0-.724-.1.387.387,0,0,0-.258.052c-.052,0-.1.052-.155.052-.052-.052,0-.1,0-.207.1-.258.207-.465.31-.724a4.908,4.908,0,0,1,.517-.879,3.477,3.477,0,0,1,.362-.568.18.18,0,0,0,.052-.1l.155.052.052.052a4.118,4.118,0,0,0,.413.827l.155.155a.907.907,0,0,0,.258.207c.052.052.1.052.155.1.258.1.207.1.413-.052a5.5,5.5,0,0,0,.569-.465c.155.1.258,0,.413-.155m2.016-8.062-.1-.1L268.1,16.2a12.542,12.542,0,0,0-1.034-.724,2.545,2.545,0,0,0-.879-.31.391.391,0,0,1-.207-.052v-.052a1.465,1.465,0,0,0,.413-.568,2.416,2.416,0,0,1,.258-.517,2.638,2.638,0,0,0,.155-1.085,3.913,3.913,0,0,0-.052-.775,4.307,4.307,0,0,0-.207-.775,3.34,3.34,0,0,1-.207-.672c0-.052-.052-.1-.1-.155v-.1c.052.052.1.052.1.1a2.249,2.249,0,0,1,.207.362c.207.31.362.62.568.982a5.217,5.217,0,0,1,.362.775c.155.31.258.62.413.93a5.075,5.075,0,0,1,.258.827c.052.258.1.568.155.827a6.928,6.928,0,0,1,.052,1.034v.1c.1.052.052.1,0,.1m-2.842-1.757c-.155-.052-.362-.1-.517-.155a5.776,5.776,0,0,1-1.292-.568l-1.24-.775c-.207-.155-.362-.31-.568-.465l-.465-.465a1.125,1.125,0,0,1-.258-.413.4.4,0,0,1,.052-.413c0-.052-.052-.1-.1-.155A5.625,5.625,0,0,1,260.609,10a2.2,2.2,0,0,1,0-1.292,1.08,1.08,0,0,1,.207-.31c.052.052.1.1.1.155,0,.155.1.258.1.413v.1a1.891,1.891,0,0,0,.1,1.189,4.409,4.409,0,0,0,.672,1.292c.155.207.362.413.517.62.258.258.568.465.827.724a13.916,13.916,0,0,0,1.4,1.034,10.48,10.48,0,0,1,.93.672c.1,0,.1.052.052.1m-3.618-.1a5.492,5.492,0,0,0-.465-.568,1.277,1.277,0,0,1-.207-.465c0-.1-.052-.258-.052-.362.052-.052.052,0,.1,0a.18.18,0,0,1,.052.1,3.557,3.557,0,0,0,.569.672c.155.1.31.258.465.362a5.649,5.649,0,0,0,.775.413,6.17,6.17,0,0,1,.827.413,2.16,2.16,0,0,0,.517.207c.052,0,.1.052.207.052-.052.052-.052.052-.1.052a8.981,8.981,0,0,0-.982.517.734.734,0,0,1-.31.1h-.568c-.258,0-.31-.052-.413-.31-.052-.1,0-.207,0-.31-.052,0-.052-.052-.1-.052a.7.7,0,0,1-.31-.362q-.155-.31,0-.465m2.636,22.946c-.052-.052-.052-.1-.1-.155v-.155a2.625,2.625,0,0,1,.155-.879,5.645,5.645,0,0,0,.258-.879c.052-.258.155-.517.207-.775a13.5,13.5,0,0,0,.31-1.4c0-.155.052-.31.052-.465,0-.207.052-.362.052-.568V31.4c0-.155-.052-.258-.052-.413v-.413c0-.052.052-.052.052-.1.052.052.1.1.1.155,0,.1.052.207.052.31a1.358,1.358,0,0,0,.362.775c.052.052.1.052.155-.052s.052-.207.1-.31c.052,0,.052,0,.1.052a.656.656,0,0,1,.052.31c0,.052-.052.1-.052.155-.052.1-.052.207-.1.31,0,.1-.052.155-.052.207s-.052.1-.052.155a1.643,1.643,0,0,1-.155.465l-.31.93c-.052.207-.155.413-.207.62-.1.31-.207.62-.31.879-.1.31-.207.568-.31.879a2.667,2.667,0,0,0-.1.568.879.879,0,0,1-.052.362c-.155.258-.155.258-.155.31" transform="translate(-125.877 -4.059)" fill="#485160" fill-rule="evenodd"/>
      <path id="Path_6134" data-name="Path 6134" d="M265.414,12.658c-.1.052-.155,0-.155,0a.714.714,0,0,1-.207-.155,11.356,11.356,0,0,1-1.189-1.034,9.439,9.439,0,0,1-.672-.827,11,11,0,0,1-.827-1.292c-.155-.258-.258-.517-.413-.827a1.284,1.284,0,0,1-.052-.413.285.285,0,0,1,.1-.258.16.16,0,0,0,.1-.052,10.508,10.508,0,0,0,3.308,4.858m11.938,11.628v-.258a1.154,1.154,0,0,1,.155-.724,2.433,2.433,0,0,1,.672-.775,3.619,3.619,0,0,0,.517-.413,2.387,2.387,0,0,0,.362-.362c.052-.052.052-.155.1-.258,0-.052.052-.1.052-.207l.052-.052a.051.051,0,0,1,.052.052.442.442,0,0,1,0,.362,2.044,2.044,0,0,1-.517.775,4.194,4.194,0,0,0-.517.465c-.052.1-.155.207-.207.31a.313.313,0,0,0,0,.413c0,.052.052.1.052.155a.513.513,0,0,1-.258.672.157.157,0,0,1-.207,0l-.31-.155m2.481-8.837h-.155a11.234,11.234,0,0,0-1.861.1,11.428,11.428,0,0,0-1.292.258c-.31.1-.62.155-.879.258s-.517.155-.775.258c-.31.1-.62.258-.879.362a2.245,2.245,0,0,0-.362.207l-.155.1c-.1-.052-.207-.155-.31-.207l.1-.1a.19.19,0,0,1,.155-.052,10.053,10.053,0,0,1,1.137-.413,13.346,13.346,0,0,1,1.344-.413,4.377,4.377,0,0,0,.879-.207,12.07,12.07,0,0,1,1.344-.207h.207a3.912,3.912,0,0,0,.775-.052,4.729,4.729,0,0,1,.827.052c-.1,0-.1,0-.1.052m-7.235,6.1a.93.93,0,0,1,.31.465,6.063,6.063,0,0,0,.258.568c.155.207.31.465.465.672a5.646,5.646,0,0,1,.413.775.243.243,0,0,1-.052.31,1.039,1.039,0,0,0-.207.413c0,.052,0,.052-.052.1a.665.665,0,0,1,.052-.62c-.1-.258-.207-.465-.31-.672-.155-.31-.362-.568-.517-.879a.747.747,0,0,1-.1-.362c0-.155-.1-.31-.1-.465a.447.447,0,0,1-.155-.31m3.514,8.786v.1c-.1.1-.155.207-.31.258-.052,0-.1.1-.207.1a1.178,1.178,0,0,1-.568.155h-.362a1.216,1.216,0,0,0-.413.1v.052c0,.1-.052.155-.155.207-.1,0-.207,0-.258-.1-.1-.155-.1-.258,0-.362a1.039,1.039,0,0,1,.413-.207h.93c.155,0,.31-.052.465-.052a.657.657,0,0,0,.362-.207c-.052,0,0,0,.1-.052m2.274-10.8c.1.1.207.258.31.31a.76.76,0,0,1,.31.258,2.885,2.885,0,0,1,.258.413c.1.155.052.258,0,.413-.1-.052-.052-.1-.052-.155a.974.974,0,0,0-.207-.465c-.1-.1-.258-.155-.362-.258-.052-.052-.1-.052-.207-.1a1.014,1.014,0,0,1-.465-.465c0-.052-.052-.052-.052-.1a.88.88,0,0,1,.052-.362.242.242,0,0,1,.413,0v.1a.571.571,0,0,1,0,.413m-7.649-2.791c.052-.1.1-.1.155-.1a2.4,2.4,0,0,1,1.034-.155h.517a1.314,1.314,0,0,1,.362.1l.052.052c0,.052,0,.1-.052.1h-.052a2.207,2.207,0,0,0-1.292.052A1.836,1.836,0,0,0,271,17c-.1.052-.1.052-.155,0l-.1-.1c.052-.1.052-.1,0-.155m-5.426,2.016-.052.052a3.412,3.412,0,0,1-.724.052h-.1a.051.051,0,0,1-.052-.052l-.517-.31h.258a2.618,2.618,0,0,0,.672.1c.155.052.31.1.517.155M277.559,24.7a.368.368,0,0,1-.31-.155c-.052-.052,0-.1.052-.1h.1c.052,0,.155.052.155.1.052,0,0,.1,0,.155m-.052,1.085h0" transform="translate(-126.548 -3.769)" fill="#485160" fill-rule="evenodd"/>
      <path id="Path_6135" data-name="Path 6135" d="M292.064,42.6h0" transform="translate(-141.104 -20.584)" fill="#485160" fill-rule="evenodd"/>
      <path id="Path_6136" data-name="Path 6136" d="M275.526,33.274a.655.655,0,0,1-.052-.31h.517a1.836,1.836,0,0,0,.517-.1,3.564,3.564,0,0,0,.517-.207,1.126,1.126,0,0,1-.207.258c-.207.1-.413.207-.672.31-.1.052-.258.052-.362.1a.387.387,0,0,1-.258-.052m6.408.1c-.052-.1-.052-.207-.1-.258-.052-.207-.207-.258-.362-.31h-.62a1.154,1.154,0,0,1-.724-.155.734.734,0,0,0-.31-.1c-.052,0-.1,0-.1-.1a1.271,1.271,0,0,0-.207-.568,6.977,6.977,0,0,0-.982-1.705c-.052-.1-.1-.155-.155-.258a1.911,1.911,0,0,1-.258-.568,3.293,3.293,0,0,1-.1-.362h-.052a3.559,3.559,0,0,1-.413.155,7.334,7.334,0,0,1-1.137.258.19.19,0,0,0-.155.052,1.863,1.863,0,0,1-1.034.31h-.155v.1h.1a5.014,5.014,0,0,0,.879.052c.207,0,.258.052.258.207a1.314,1.314,0,0,1-.1.362,1.519,1.519,0,0,1-.517.62c-.052.052-.155.1-.207.155a.165.165,0,0,0,.155.155h.155a.466.466,0,0,1,.258.052c-.052.155-.052.155-.1.207l-.155.155a.128.128,0,0,0,.052.207c.052,0,.1.052.155.052h.31c.207-.052.413-.155.62-.207.052,0,.052-.052.1,0a1.052,1.052,0,0,1-.31.362,2.213,2.213,0,0,1-1.137.31c-.258,0-.258,0-.258-.258a.111.111,0,0,0-.1-.1.238.238,0,0,0-.155.362.111.111,0,0,0,.1.1v.465a.689.689,0,0,0,.258.31,1.509,1.509,0,0,0,.465.1,3.05,3.05,0,0,0,.724-.1,1.484,1.484,0,0,0,.672-.413l.155-.31a4.849,4.849,0,0,0,.31-.775c.052-.1,0-.258,0-.362-.052-.1-.052-.155-.1-.258s-.052-.207-.1-.31a.549.549,0,0,1,.052-.413.4.4,0,0,1,.207-.207c.052,0,.1,0,.1.052a.18.18,0,0,1,.052.1,2.621,2.621,0,0,0,.465.827c.258.31.517.568.827.879a1.131,1.131,0,0,1,.155.258.19.19,0,0,0,.052.155c.1.258.155.31.413.258a.656.656,0,0,1,.31.052,1.969,1.969,0,0,0,.517.155c.155,0,.258.1.413.155a.269.269,0,0,0,.207.1c.207.052.362.1.568.155a3.022,3.022,0,0,0,.982.207.442.442,0,0,0,0,.362v.052a.19.19,0,0,1-.052.155l-.1.1c-.052.052-.1.155-.155.207a1.217,1.217,0,0,0-.155,1.034l.155.62a2.759,2.759,0,0,1,.1,1.137.051.051,0,0,0,.052.052h.1a.714.714,0,0,0,.155-.207c.052-.1.052-.258.1-.413a4.189,4.189,0,0,0,0-1.137c0-.1-.052-.155-.052-.258-.052-.31-.052-.362.207-.465.052-.052.155-.1.207-.155a.249.249,0,0,0,.052-.362.18.18,0,0,0-.052-.1c.052-.052.155-.1.207-.207.052-.052,0-.155.052-.258.052-.052.1-.052.1-.1,0-.1-.1-.155-.155-.258H284c.155,0,.207-.1.1-.258,0-.052-.052-.052-.052-.1.052,0,.1,0,.1-.052.1-.052.1-.1.052-.207a.268.268,0,0,0-.207-.1.879.879,0,0,0-.362-.052c-.052-.1,0-.155.052-.207h.207c.052,0,.1,0,.1-.052.1-.052.155-.155,0-.258-.052,0-.052-.052-.1-.052l-.31-.155c-.155-.1-.258-.052-.413.052l-.1.1a1.081,1.081,0,0,0-.207.31.558.558,0,0,0-.155.362v.258c0,.1-.1.207-.207.155a.584.584,0,0,1-.568.1m10.129-8.114a.71.71,0,0,0-.258-.413c-.1-.1-.207-.155-.31-.258a1.038,1.038,0,0,0-.413-.207c-.31-.155-.62-.258-.879-.362-.052,0-.052,0-.1-.052a3.343,3.343,0,0,1-.672-.207c-.1-.052-.207-.052-.31-.1a9.777,9.777,0,0,0-1.189-.258,3.05,3.05,0,0,1-.724-.1h-1.137a1.431,1.431,0,0,0-.465.052c-.31.052-.569.052-.879.1s-.568.1-.879.155a3.455,3.455,0,0,0-.982.258c-.517.207-1.085.31-1.6.465-.31.1-.672.207-.982.31a1.746,1.746,0,0,1-1.034.052,1.758,1.758,0,0,0-.517-.052.18.18,0,0,1-.1.052c0,.052,0,.052.052.1.1.052.207.052.31.1a.985.985,0,0,1,.517.258h-.568c-.207.052-.362,0-.569.052a.83.83,0,0,1-.568-.258l-.207-.207-.1-.1h-.1l-.052.052a.734.734,0,0,0,.1.31,1.509,1.509,0,0,1,.1.465c0,.052,0,.052-.052.1h-.052a.6.6,0,0,1-.31-.31,4.909,4.909,0,0,1-.517-.879,1.721,1.721,0,0,1-.258-.775V23.4a.051.051,0,0,0-.052-.052h-.1l-.052.052a.768.768,0,0,0-.1.465v.879c0,.052,0,.1-.052.1a.16.16,0,0,0-.1-.052c-.052-.052-.155-.1-.207-.207a.1.1,0,0,0-.155,0,1.732,1.732,0,0,0,0,.517c0,.052.052.1.052.155.1.155.155.258.258.413.052.052.052.155.1.207a.392.392,0,0,1,.1.207,2.238,2.238,0,0,0,.052.258v.724a2.284,2.284,0,0,1-.31.827,4.309,4.309,0,0,0-.413.62c0,.052-.052.052,0,.1.1,0,.155-.052.207-.155.052-.052.1-.155.207-.207a.18.18,0,0,1,.1-.052c.1,0,.155-.1.258-.155A.466.466,0,0,1,276.4,28a1.039,1.039,0,0,1,.413.207c.052.1.155.155.207.258.1.1.207.155.31.052.1-.052.207-.052.31-.1a1.08,1.08,0,0,1,.879.207c.052,0,.052.052.1.052a.1.1,0,0,0,.155,0,2.719,2.719,0,0,0,.62-.724c.052-.052.1-.155.155-.207.155.052.362.052.517.1a1.314,1.314,0,0,0,.879-.207.4.4,0,0,0,.207-.207c0-.052.052-.052.1-.1h.258a1.007,1.007,0,0,0,.413-.052,5.214,5.214,0,0,0,.775-.362c.052,0,.1-.052.155-.1s.052-.1.1-.155a.571.571,0,0,0,.413,0,.921.921,0,0,0,.827-.517h.155a4.178,4.178,0,0,0,.827-.052,1.235,1.235,0,0,0,.465-.155c.052-.052.1-.1.1-.155v-.052h.1c.258.052.465.1.724.155a1.26,1.26,0,0,0,.62,0c.207-.052.207-.1.1-.258,0-.052-.052-.052-.052-.1h.207a2.947,2.947,0,0,0,.672.052h.362a2.12,2.12,0,0,0,.568-.052,2.239,2.239,0,0,0,.258-.052c.1,0,.1-.155.1-.207s-.052-.1-.1-.155a.051.051,0,0,0-.052-.052h.1c.258.052.465.052.724.1a11.807,11.807,0,0,0,1.912,0c0,.155,0,.1.052.1m-12.92,1.5h-.1c-.052,0-.1-.052-.207,0-.052.052,0,.155-.052.258l-.155.155v.155c-.052.052-.155.1-.207.155v.31a.19.19,0,0,1-.155.052.111.111,0,0,1-.1-.1c-.1-.052-.155-.1-.258-.155a.907.907,0,0,1-.258-.207,8.415,8.415,0,0,1-.568-.879v-.1a1.376,1.376,0,0,1,.62-.155h.362a5.694,5.694,0,0,0,.93-.1h.1c.052,0,.1,0,.1.1-.052.1,0,.31-.052.517" transform="translate(-132.888 -11.258)" fill="#485160" fill-rule="evenodd"/>
    </g>
  </g>
</svg>
