<svg id="Group_107" data-name="Group 107" xmlns="http://www.w3.org/2000/svg" xmlns:xlink="http://www.w3.org/1999/xlink" width="209.067" height="78.877" viewBox="0 0 209.067 78.877">
  <defs>
    <clipPath id="clip-path">
      <rect id="Rectangle_1706" data-name="Rectangle 1706" width="209.067" height="78.877" fill="#3d5065"/>
    </clipPath>
  </defs>
  <g id="Group_144" data-name="Group 144" clip-path="url(#clip-path)">
    <path id="Path_593" data-name="Path 593" d="M144.119,20.852a37.688,37.688,0,0,1,1.813-11.146,14.626,14.626,0,0,1,3.7-6.139A9.018,9.018,0,0,1,155.41,1.1a9.845,9.845,0,0,1,7.84,2.821,14.864,14.864,0,0,1,3.336,5.2,28.554,28.554,0,0,1,1.929,8.166c.167,1.819.248,3.642.364,5.464a60.526,60.526,0,0,1-1.21,11.666,21.815,21.815,0,0,1-2.712,7.055,9.347,9.347,0,0,1-6.278,4.591,10.147,10.147,0,0,1-11.412-5.432,24.137,24.137,0,0,1-2.423-7.479,59.662,59.662,0,0,1-.725-12.3m-7.427,11.854a21.879,21.879,0,0,0,6.7,9.94A20.146,20.146,0,0,0,160.5,46.983a19.547,19.547,0,0,0,14.82-11.574,28.423,28.423,0,0,0,2.316-14.453,24.244,24.244,0,0,0-3.052-10.237A20.085,20.085,0,0,0,160.1.335c-.814-.147-1.634-.228-2.452-.335H154.7c-.988.136-1.975.237-2.951.427A18.465,18.465,0,0,0,140.68,7.161a25.213,25.213,0,0,0-5.507,14.718,27.5,27.5,0,0,0,1.519,10.826" transform="translate(-85.178)" fill="#3d5065"/>
    <path id="Path_594" data-name="Path 594" d="M371.513,14.95a11.357,11.357,0,0,0,5.007,8.3,21.552,21.552,0,0,0,5.541,2.74c2.787.938,5.614,1.779,8.412,2.691a20.022,20.022,0,0,1,5.666,2.651,6.812,6.812,0,0,1,3.021,5.287,8.677,8.677,0,0,1-5.2,8.62,13.068,13.068,0,0,1-6.8.941,14.163,14.163,0,0,1-8.984-4.574,23.312,23.312,0,0,1-5.53-10.251c-.39-1.435-.641-2.911-.959-4.381h-.858V46.405h1.008c.046-.283.072-.525.127-.759.358-1.678,1.34-3.153,3.771-2.573a14.935,14.935,0,0,1,3.771,1.652,18.756,18.756,0,0,0,10.384,2.6,15.006,15.006,0,0,0,7.1-1.981,14.211,14.211,0,0,0,7.084-12.163,11.24,11.24,0,0,0-4.635-9.94,21.719,21.719,0,0,0-5.937-3.156c-2.951-1.048-5.928-2-8.885-3.012a22.488,22.488,0,0,1-5.747-2.686,6.3,6.3,0,0,1-3.006-5.429,7.881,7.881,0,0,1,5.5-7.421,12.487,12.487,0,0,1,8.478.56,15.217,15.217,0,0,1,7.716,7.274A24.827,24.827,0,0,1,400.092,17c.038.228.107.335.344.318.214-.011.436,0,.653,0V.912a2.654,2.654,0,0,1-.456,0c-.41-.061-.523.124-.54.523a4.392,4.392,0,0,1-.211,1.169,1.991,1.991,0,0,1-2.737,1.513,30.551,30.551,0,0,1-3.523-1.591A23.1,23.1,0,0,0,388.01.387c-.765-.162-1.545-.26-2.319-.387h-2.443c-.367.058-.742.107-1.112.173a12.2,12.2,0,0,0-8.395,5.172,13.458,13.458,0,0,0-2.229,9.6" transform="translate(-233.76)" fill="#3d5065"/>
    <path id="Path_595" data-name="Path 595" d="M13.341,160.1c-2.478.618-4.4-.338-5.934-2.252a10.908,10.908,0,0,1-2.42-7.6,4.137,4.137,0,0,1,2.345-3.621,127.308,127.308,0,0,0,8.877,12.03,6.005,6.005,0,0,1-2.868,1.441M9.29,135.374a2.861,2.861,0,0,1,2.593-1.874A3.093,3.093,0,0,1,15,135.174a6.179,6.179,0,0,1,.606,3.858c-.28,2.466-1.782,3.893-3.927,4.851-1.126-1.909-2.371-3.731-2.7-5.986a4.829,4.829,0,0,1,.306-2.524m19.48,17.474c-.011.156-.017.315-.035.471a7.984,7.984,0,0,1-1.317,3.835,3.169,3.169,0,0,1-4.571.953,30.1,30.1,0,0,1-2.4-2.244c.569-.846,1.1-1.562,1.551-2.336a24.678,24.678,0,0,0,1.222-2.44c.364-.8.641-1.637.99-2.452a4.487,4.487,0,0,1,3.419-2.922c.479-.084.962-.133,1.45-.208v-.745H19.469v.7c.644.1,1.262.165,1.857.321a1.9,1.9,0,0,1,1.537,1.418,3.825,3.825,0,0,1,.009,1.438,14.75,14.75,0,0,1-2.957,6.217.53.53,0,0,1-.145.1,119.64,119.64,0,0,1-7.5-10.2c.3-.136.537-.24.777-.355a8.968,8.968,0,0,0,3.861-3.211c2.027-3.2.875-6.933-2.524-8.2a8.735,8.735,0,0,0-5.1-.164c-3.639.82-5.507,3.739-4.825,7.465a15.393,15.393,0,0,0,2.076,5.025c.072.127.147.254.211.376-.482.182-.927.318-1.346.517A8.635,8.635,0,0,0,.217,152.07c-.084.326-.145.662-.217.991v1.8a1.39,1.39,0,0,1,.078.234,7.714,7.714,0,0,0,3.153,5.357,10.716,10.716,0,0,0,8.559,1.652,10.7,10.7,0,0,0,5.2-2.579c.413.384.814.757,1.219,1.129a6.357,6.357,0,0,0,10.049-1.874,13.842,13.842,0,0,0,1.323-4.831c.046-.462.063-.924.095-1.386h-.855a2.55,2.55,0,0,0-.049.28" transform="translate(0 -83.54)" fill="#3d5065"/>
    <path id="Path_596" data-name="Path 596" d="M123.115,148.894H109.944v.817c.823.087,1.62.136,2.4.257a1.274,1.274,0,0,1,1.109,1.089,9.64,9.64,0,0,1,.2,1.351,17.537,17.537,0,0,1-.208,4.947c-.858,3.638-3.537,4.978-6.674,4.424a5.371,5.371,0,0,1-3.939-3.416,18.15,18.15,0,0,1-1.421-6.258,43.241,43.241,0,0,1,.075-8.224,17.5,17.5,0,0,1,1.444-5.645,6.139,6.139,0,0,1,4-3.717,7.244,7.244,0,0,1,7.534,2.417,13.72,13.72,0,0,1,2.948,6.171c.182.78.179.78.988.727a.258.258,0,0,0,.078-.043V133.5a2.355,2.355,0,0,1-.323,0c-.375-.055-.56.043-.618.494a3.855,3.855,0,0,1-.468,1.311,1.072,1.072,0,0,1-1.47.528,5.587,5.587,0,0,1-.609-.286c-.578-.318-1.152-.647-1.735-.965a11.272,11.272,0,0,0-7.6-1.025,11.6,11.6,0,0,0-8.42,5.747,17.2,17.2,0,0,0-.959,15.715,12.093,12.093,0,0,0,7.652,7.335,25.683,25.683,0,0,0,2.533.569h2.359a1.081,1.081,0,0,1,.2-.069,7.434,7.434,0,0,0,3.621-1.481c.557-.41,1.08-.869,1.649-1.259a2.287,2.287,0,0,1,3.133.3,12.844,12.844,0,0,1,1.1,1.6c.081.116.2.26.309.277a6.136,6.136,0,0,0,.872.012v-.508c0-2.743-.017-5.493.011-8.239a14.681,14.681,0,0,1,.254-2.377,1.383,1.383,0,0,1,1.233-1.23c.635-.089,1.27-.147,1.923-.223Z" transform="translate(-59.77 -84.042)" fill="#3d5065"/>
    <path id="Path_597" data-name="Path 597" d="M559.208,145.535a1.268,1.268,0,0,1,.035-2.535,1.268,1.268,0,0,1-.035,2.535m1.294-1.963a1.456,1.456,0,0,0-2.7,1.028,1.425,1.425,0,0,0,1.426,1.144,1.488,1.488,0,0,0,1.444-1.149v-.682c-.055-.116-.107-.228-.167-.341" transform="translate(-351.603 -90.01)" fill="#3d5065"/>
    <path id="Path_598" data-name="Path 598" d="M23.87,47.068c-.185,0-.352.006-.514,0-1.218-.046-2.443-.058-3.662-.15a2.473,2.473,0,0,1-2.532-2.42,23.753,23.753,0,0,1-.245-3.073c-.026-5.391-.015-10.782-.017-16.177v-.462H36.166v.476c0,5.016.014,10.041-.012,15.062-.006,1.325-.1,2.657-.222,3.976A2.566,2.566,0,0,1,33.3,46.921c-1.2.089-2.406.1-3.612.147-.159.006-.321,0-.476,0v.962H51.659v-.962c-.182,0-.353.006-.517,0-1.233-.046-2.466-.058-3.7-.156a2.413,2.413,0,0,1-2.434-2.073,7.592,7.592,0,0,1-.211-1.484c-.066-1.785-.142-3.569-.142-5.354q0-14.078.041-28.147a32.149,32.149,0,0,1,.19-3.422c.182-1.73.843-2.634,2.567-2.778,1.213-.1,2.437-.1,3.656-.147.176-.009.355,0,.546,0v-.95H29.2v.95c.185,0,.335,0,.488,0,1.092.026,2.189.029,3.28.084,1.917.1,2.758.869,2.968,2.8a37.227,37.227,0,0,1,.214,3.809c.026,4.262.012,8.521.012,12.786v.5H16.917c-.006-.159-.017-.295-.017-.436,0-4.346-.012-8.695.006-13.041a33.989,33.989,0,0,1,.179-3.471c.176-1.732.733-2.723,2.636-2.9,1.216-.107,2.44-.1,3.662-.136.159-.009.32,0,.494,0V2.554H1.413v.953c.245,0,.473-.015.693,0,1.216.052,2.44.055,3.653.173A2.251,2.251,0,0,1,8.037,5.8,29.947,29.947,0,0,1,8.366,10.1q.043,15.173,0,30.338a37.419,37.419,0,0,1-.248,4.017,2.4,2.4,0,0,1-2.224,2.4,15.522,15.522,0,0,1-2.261.17c-.739.026-1.479.008-2.229.008v.994H23.87Z" transform="translate(-0.887 -1.61)" fill="#3d5065"/>
    <path id="Path_599" data-name="Path 599" d="M463.037,3.507c1.1.052,2.215.058,3.312.173a2.6,2.6,0,0,1,2.639,2.509,34.066,34.066,0,0,1,.306,4.436q.039,14.7.005,29.4c-.005,1.325-.1,2.654-.228,3.971a2.746,2.746,0,0,1-2.631,2.871,15.206,15.206,0,0,1-2.05.162c-.685.026-1.366.009-2.047.009v1h37.644V30.724c-.22,0-.413.014-.6,0-.295-.032-.376.1-.393.39a21.994,21.994,0,0,1-1.016,5.538,15.09,15.09,0,0,1-5.6,8.022,14.047,14.047,0,0,1-8.322,2.4c-1.909,0-3.818-.011-5.729.012-.416.006-.54-.092-.537-.537q.018-10.777.009-21.543v-.554c1.808.084,3.552.087,5.276.266a6.526,6.526,0,0,1,5.741,4.308,19.551,19.551,0,0,1,1.132,4.9c.1.849.127.849.976.736.011,0,.02-.014.04-.029V13.316h-.872c-.237,1.2-.416,2.374-.707,3.514a7.546,7.546,0,0,1-5.92,5.931,22.683,22.683,0,0,1-5.57.375c-.02,0-.041-.029-.064-.049V3.533a2.176,2.176,0,0,1,.231-.026c2.527.023,5.054,0,7.583.086a11.772,11.772,0,0,1,5.446,1.58,12.7,12.7,0,0,1,5.873,7.78c.445,1.464.71,2.983,1.063,4.511h.852V2.554H462.344v.953c.248,0,.471-.014.693,0" transform="translate(-291.45 -1.61)" fill="#3d5065"/>
    <path id="Path_600" data-name="Path 600" d="M252.169,3.586a2.594,2.594,0,0,1,2.683,2.14,5.487,5.487,0,0,1,.2,1.181c.093,2.079.231,4.164.237,6.252.029,6.524-.006,13.044.026,19.567a27.393,27.393,0,0,0,.341,4.179,12.815,12.815,0,0,0,8.782,10.716A25.013,25.013,0,0,0,272,48.934a20.187,20.187,0,0,0,6.376-.641c4.089-1.172,6.945-3.662,8.1-7.944a28.48,28.48,0,0,0,.774-7.265c.029-6.581-.012-13.159.037-19.738a26.031,26.031,0,0,1,.413-4.337c.5-2.882,2.085-4.785,5.019-5.31.534-.09,1.071-.153,1.6-.225V2.552H278.84v.924c.5.067.979.113,1.45.194a5.752,5.752,0,0,1,4.958,4.323,15.847,15.847,0,0,1,.638,4.482q.039,10.513.014,21.025a28.786,28.786,0,0,1-.422,5.591,9.687,9.687,0,0,1-5.036,7.095,12.349,12.349,0,0,1-8.9,1.1,8.818,8.818,0,0,1-6.3-5.307,16.959,16.959,0,0,1-1.395-6.7c-.067-4.19-.049-8.38-.038-12.573.011-4.545.029-9.09.1-13.638a19.137,19.137,0,0,1,.361-3.315,2.348,2.348,0,0,1,2.227-2.1c1.242-.1,2.492-.109,3.737-.153.176-.006.358,0,.54,0V2.546h-22.42V3.574c1.294,0,2.559-.032,3.817.011" transform="translate(-156.555 -1.605)" fill="#3d5065"/>
    <path id="Path_601" data-name="Path 601" d="M264.146,148.261a37.377,37.377,0,0,1-6.058.142V136.768c.295,0,.583-.009.872,0a39.913,39.913,0,0,1,4.447.124,5.171,5.171,0,0,1,4.5,5.3,11.777,11.777,0,0,1-.286,2.755,4.284,4.284,0,0,1-3.474,3.312M276,159.54a3.976,3.976,0,0,1-.884,2.319,1.428,1.428,0,0,1-1.64.462,1.3,1.3,0,0,1-.745-1.409c.017-.9.11-1.793.113-2.7a17.288,17.288,0,0,0-.1-2.9,6.918,6.918,0,0,0-3.246-4.742,13.97,13.97,0,0,0-3.537-1.579c.153-.009.306-.014.459-.026a11.8,11.8,0,0,0,3.795-.866,5.683,5.683,0,0,0,3.453-6.521,5.9,5.9,0,0,0-3.462-4.551,13.074,13.074,0,0,0-5.925-1.187c-5.31-.02-10.615-.012-15.926-.012h-.462v.841c.886.064,1.741.1,2.59.2A1.405,1.405,0,0,1,251.9,138.3c.13,1.464.237,2.937.245,4.4q.043,7.147,0,14.291c-.006,1.308-.087,2.628-.165,3.936-.084,1.334-.5,1.785-1.779,1.946-.471.058-.95.058-1.426.084-.145.009-.292,0-.436,0v.886H261.9V163c-.684-.043-1.343-.061-2-.136a1.564,1.564,0,0,1-1.6-1.6,6.907,6.907,0,0,1-.078-.722c-.041-1.06-.09-2.117-.1-3.174-.029-2.6-.04-5.2-.055-7.8,0-.029.02-.055.058-.141.191,0,.413,0,.635,0a24.732,24.732,0,0,1,4.825.228,3.655,3.655,0,0,1,3.188,3.332,18.633,18.633,0,0,1,0,2.778c-.029,1.265-.17,2.541-.1,3.8a4.582,4.582,0,0,0,1.981,3.613,6.329,6.329,0,0,0,4.586.993,3.652,3.652,0,0,0,3.275-2.715,8.659,8.659,0,0,0,.376-1.663c.107-1.045.136-2.1.2-3.174h-.86c-.075.991-.122,1.958-.237,2.917" transform="translate(-156.264 -85.624)" fill="#3d5065"/>
    <path id="Path_602" data-name="Path 602" d="M350.064,154.775a11.531,11.531,0,0,1-2.31,5.527,7.013,7.013,0,0,1-5.068,2.541c-1.354.1-2.717.029-4.077.032-.1,0-.191-.02-.312-.032V136.837c.22-.011.427-.046.632-.04a37.772,37.772,0,0,1,4.282.115,7.3,7.3,0,0,1,5.752,4.488,16.438,16.438,0,0,1,1.427,5.862,29.107,29.107,0,0,1-.326,7.514m1.2-16.148a15.021,15.021,0,0,0-9.151-2.8c-4.522-.029-9.041-.009-13.563-.009H328.1v.889c.2,0,.378-.011.557,0,.688.041,1.378.061,2.05.147a1.422,1.422,0,0,1,1.409,1.441c.121,1.565.234,3.136.24,4.707q.034,7.442-.017,14.889c-.006,1.178-.118,2.365-.225,3.546a1.378,1.378,0,0,1-1.213,1.334,14.783,14.783,0,0,1-1.5.162c-.43.029-.863.006-1.311.006v.9c.156.012.28.023.4.023,4.759,0,9.521.04,14.282-.023a20.611,20.611,0,0,0,4.245-.5,11.28,11.28,0,0,0,7.58-5.441,15.577,15.577,0,0,0,1.839-10.7,13.044,13.044,0,0,0-5.172-8.576" transform="translate(-206.817 -85.615)" fill="#3d5065"/>
    <path id="Path_603" data-name="Path 603" d="M432.152,153.26a16.172,16.172,0,0,1-1.871,5.5,7.754,7.754,0,0,1-6.515,4.164c-1.721.092-3.454.043-5.184.049a.526.526,0,0,1-.142-.043V149.549c.557,0,1.083-.014,1.617,0a4.548,4.548,0,0,1,4.687,3.751c.251.947.4,1.918.595,2.908h.8V142.09h-.812c-.167.829-.286,1.637-.494,2.414-.915,3.321-3.37,4.285-6.393,4V136.875c.078-.009.13-.029.182-.029,1.519,0,3.035-.058,4.551.011a7.9,7.9,0,0,1,5.807,2.7,10.447,10.447,0,0,1,2.356,5.172c.145.806.142.808.9.742.023,0,.046-.029.069-.049v-9.5H408.2v.861c.214,0,.4-.011.575,0,.67.04,1.345.055,2.016.147a1.4,1.4,0,0,1,1.415,1.378,19.257,19.257,0,0,1,.222,2.766q.03,8.472.009,16.951c-.006,1.192-.133,2.391-.242,3.586a1.327,1.327,0,0,1-1.167,1.233,13.339,13.339,0,0,1-1.629.164c-.4.026-.8.008-1.207.008v.892h24.858v-11.2c-.766-.153-.774-.139-.9.554" transform="translate(-257.316 -85.682)" fill="#3d5065"/>
    <path id="Path_604" data-name="Path 604" d="M512.825,136.711v-.852h-9.9v.881l.485.038a3.726,3.726,0,0,1,3.673,3.214,14.617,14.617,0,0,1,.283,2.723c.029,4.219.012,8.441.009,12.66,0,.136-.009.274-.02.488-.13-.153-.214-.237-.289-.335q-7.476-9.689-14.958-19.385a.7.7,0,0,0-.629-.315c-2.68.012-5.365,0-8.045,0h-.4v.887a1.872,1.872,0,0,0,.214.037,4.094,4.094,0,0,1,3.471,1.857,1.281,1.281,0,0,1,.277.814c-.006,5.793.009,11.591-.017,17.381a15.93,15.93,0,0,1-.277,2.85,3.56,3.56,0,0,1-2.235,2.94,16.57,16.57,0,0,1-1.768.448v.809h9.734v-.884c-.115-.009-.211-.014-.306-.023a3.694,3.694,0,0,1-3.633-3.154,10.918,10.918,0,0,1-.32-2.454c-.029-5.5-.023-10.994-.023-16.483a2.713,2.713,0,0,1,.041-.347c.1.116.153.182.2.246q5.518,7.1,11.025,14.193,3.37,4.345,6.74,8.683c.081.1.211.234.318.237.684.023,1.366.011,2.079.011v-.615c0-6.85-.008-13.705.009-20.557a14.166,14.166,0,0,1,.245-2.512,3.72,3.72,0,0,1,2.888-3.292c.37-.078.745-.124,1.132-.191" transform="translate(-304.279 -85.622)" fill="#3d5065"/>
    <path id="Path_605" data-name="Path 605" d="M174.864,153.251c1.311-3.433,2.616-6.838,3.956-10.332,1.473,3.488,2.911,6.884,4.366,10.332ZM192.687,160a20.962,20.962,0,0,1-1.028-2.013q-2.885-6.727-5.744-13.463-2.1-4.921-4.19-9.853a.468.468,0,0,0-.505-.329c-.355-.011-.355.274-.433.476q-4.119,10.686-8.247,21.381a37.011,37.011,0,0,1-1.747,3.832,3.681,3.681,0,0,1-2.7,1.866c-.4.078-.8.11-1.213.164v.855h9v-.858c-.4-.046-.771-.078-1.143-.136a2.079,2.079,0,0,1-2.024-2.428,2.621,2.621,0,0,1,.124-.67c.511-1.444,1.031-2.893,1.568-4.329a.435.435,0,0,1,.35-.193c2.867-.011,5.729-.017,8.594,0a.544.544,0,0,1,.384.266c.41.907.811,1.819,1.184,2.743a20.908,20.908,0,0,1,.964,2.59,1.447,1.447,0,0,1-1.354,2.024c-.482.081-.976.1-1.458.139v.849H196.19v-.878c-.113-.006-.2-.017-.28-.023A3.776,3.776,0,0,1,192.687,160" transform="translate(-105.198 -84.686)" fill="#3d5065"/>
    <path id="Path_606" data-name="Path 606" d="M561.357,145.064c-.242.084-.5.145-.8.22v-.664c.283.064.537.113.785.188.032.009.037.251.011.257m.248-.231c-.075-.364-.364-.341-.627-.349-.191-.009-.378,0-.581,0v1.626h.121c.009-.219.02-.436.035-.679.6-.136.52.635,1.022.748-.167-.286-.3-.5-.433-.734.3-.1.54-.237.462-.609" transform="translate(-353.26 -91.076)" fill="#3d5065"/>
  </g>
</svg>
