<?xml version="1.0" encoding="UTF-8"?><svg id="Layer_2" xmlns="http://www.w3.org/2000/svg" viewBox="0 0 740.47 123.77"><defs><style>.cls-1{fill:#314f66;}</style></defs><g id="Calque_1"><g><path class="cls-1" d="M23.92,79.31c0,3.9,1.3,5.2,5.2,5.2h2.73c2.34,0,3.77,1.3,3.77,4.03s-1.43,4.03-3.77,4.03H3.77c-2.34,0-3.77-1.3-3.77-4.03s1.43-4.03,3.77-4.03h1.43c3.9,0,5.2-1.3,5.2-5.2V14.31c0-3.38-1.3-4.68-5.2-4.68h-1.43c-2.34,0-3.77-1.3-3.77-4.03S1.43,1.57,3.77,1.57H38.61c18.33,0,30.81,10.92,30.81,27.04s-12.48,27.95-30.81,27.95h-5.98c-2.34,0-3.77-1.17-3.77-4.03s1.43-4.03,3.77-4.03h3.51c14.3,0,19.24-10.14,19.24-19.89s-4.94-18.98-20.54-18.98h-5.72c-3.9,0-5.2,1.3-5.2,5.2V79.31Z"/><path class="cls-1" d="M130.65,81.91c-4.68,7.41-12.09,12.22-21.71,12.22-13,0-23.53-7.28-23.53-22.75v-31.33c0-3.12-1.95-4.42-4.55-4.42h-.13c-2.34,0-3.77-1.3-3.77-4.03s1.43-4.03,3.77-4.03h14.56c1.82,0,2.86,1.04,2.86,2.86v39.65c0,9.1,3.25,15.47,12.61,15.47,10.4,0,18.98-10.27,18.98-25.22v-20.28c0-3.12-1.95-4.42-4.55-4.42h-.13c-2.34,0-3.77-1.3-3.77-4.03s1.43-4.03,3.77-4.03h14.56c1.82,0,2.86,1.04,2.86,2.86v49.14c0,2.86,1.04,4.94,3.38,5.07h1.3c2.34-.13,3.77,1.17,3.77,3.9s-1.43,4.03-3.77,4.03h-12.74c-1.69,0-2.86-1.04-2.99-2.73l-.78-7.93Z"/><path class="cls-1" d="M200.72,41.74c-3.64-3.25-5.46-5.2-10.01-5.2-8.06,0-12.22,6.11-12.22,17.42v26.13c0,2.6,1.82,4.42,4.42,4.42,2.08,0,3.25,1.3,3.25,4.03s-1.43,4.03-3.77,4.03h-20.67c-2.34,0-3.77-1.3-3.77-4.03s1.17-4.03,3.38-4.03c2.6,0,4.42-1.82,4.42-4.42V40.05c0-2.6-1.82-4.42-4.42-4.42-2.08,0-3.38-1.3-3.38-4.03s1.43-4.03,3.77-4.03h12.74c1.69,0,2.86,1.04,2.99,2.73l.39,4.29c3.51-5.33,8.97-8.06,15.86-8.06,6.37,0,11.18,2.21,14.3,5.59,4.55,4.81-2.34,14.04-7.28,9.62Z"/><path class="cls-1" d="M286.26,88.41c0,2.86-1.43,4.16-3.77,4.16h-13.26c-1.82,0-2.86-.91-2.99-2.73l-.52-7.02c-6.11,8.45-14.3,11.31-23.14,11.31-14.17,0-29.51-10.14-29.51-33.67,0-21.32,15.34-33.93,30.03-33.93,10.79,0,17.81,4.94,21.97,9.88V14.04c0-3.12-1.95-4.42-4.55-4.42h-.13c-2.34,0-3.77-1.3-3.77-4.03s1.43-4.03,3.77-4.03h14.56c1.82,0,2.86,1.04,2.86,2.86V79.04c0,4.03,2.6,5.46,4.68,5.46,2.6,.01,3.77,1.18,3.77,3.91Zm-20.93-27.95c0-14.56-8.06-25.35-19.76-25.35-13.39,0-19.24,10.79-19.24,25.35s5.85,25.09,19.24,25.09c11.7,0,19.76-10.79,19.76-25.09Z"/><path class="cls-1" d="M358.67,27.57c2.34,0,3.77,1.3,3.77,4.03s-1.17,4.03-3.25,4.03c-2.47,0-3.9,1.3-4.81,3.38l-28.47,63.7c-4.16,9.36-11.96,17.94-23.4,17.94-6.37,0-13.13-2.21-16.9-6.24-4.42-5.07,2.86-13.65,8.06-8.71,2.73,2.47,5.46,5.98,10.27,5.98,8.45,0,12.48-7.54,18.59-20.93l-25.35-52.52c-.65-1.3-1.95-2.6-3.9-2.6-2.21,0-3.51-1.3-3.51-4.03s1.43-4.03,3.77-4.03h20.67c2.34,0,3.77,1.3,3.77,4.03s-1.04,4.03-3.12,4.03-2.99,1.04-2.99,2.6c0,.78,.26,1.82,.78,2.86l16.51,34.45,15.08-34.45c.52-1.17,.91-2.34,.91-3.12,0-1.43-.91-2.34-3.12-2.34-2.34,0-3.64-1.3-3.64-4.03s1.43-4.03,3.77-4.03c0,0,16.51,0,16.51,0Z"/><path class="cls-1" d="M468.13,86.98c-2.08,3.9-7.41,7.15-13.39,7.15-7.02,0-13.91-3.9-14.04-14.3-5.72,10.14-15.86,14.3-26.39,14.3-15.86,0-28.21-9.75-28.21-25.22,0-11.96,6.24-22.36,19.37-26.65-9.49-2.21-15.47-9.88-15.47-18.72C390,8.98,403.13,.01,416.91,.01c8.71,0,16.12,2.21,19.89,6.24,4.16,4.81-2.73,13-7.93,8.45-3.64-3.25-6.76-6.37-12.48-6.37-8.84,0-13.65,5.98-13.65,14.3,0,9.62,6.76,14.43,17.68,14.43h2.34c2.34,0,3.64,1.3,3.64,4.16s-1.3,4.16-3.64,4.16c-13.13,0-23.27,9.62-23.27,21.97,0,11.31,6.37,18.46,17.16,18.46,12.22,0,23.53-10.66,23.53-35.23v-5.33h-5.2c-2.34,0-3.64-1.43-3.64-4.16s1.3-3.9,3.64-3.9h5.85l3.25-12.35c.39-1.3,1.17-2.08,2.6-2.08h3.9c1.43,0,2.34,.91,2.34,2.34v12.09h9.23c2.34,0,3.64,1.17,3.64,3.9s-1.3,4.16-3.64,4.16h-9.23v35.75c0,3.12,1.43,4.94,4.03,4.94,2.21,0,3.77-1.3,5.46-3.38,1.43-1.82,2.73-2.47,4.55-1.56,2.6,1.3,2.34,3.64,1.17,5.98Z"/><path class="cls-1" d="M522.07,79.31c0,3.9,1.3,5.2,5.2,5.2h1.43c2.34,0,3.77,1.3,3.77,4.03s-1.43,4.03-3.77,4.03h-26.78c-2.34,0-3.77-1.3-3.77-4.03s1.43-4.03,3.77-4.03h1.43c3.9,0,5.2-1.3,5.2-5.2V14.82c0-3.9-1.3-5.2-5.2-5.2h-1.43c-2.34,0-3.77-1.3-3.77-4.03s1.43-4.03,3.77-4.03h56.42c1.82,0,2.73,.91,2.86,2.73l1.04,16.38c.13,1.56-1.04,2.47-2.99,2.47s-3.12-1.04-3.9-3.25c-2.73-7.15-7.67-10.27-13.26-10.27h-14.82c-3.9,0-5.2,1.3-5.2,5.2V79.31h0Zm8.58-26.91c-2.34,0-3.64-1.3-3.64-4.03s1.3-4.03,3.64-4.03h11.05c2.6,0,3.77-1.43,3.77-3.51,0-2.34,1.3-3.77,3.9-3.77,2.73,0,4.03,1.43,4.03,3.77v15.08c0,2.34-1.3,3.77-4.03,3.77s-3.9-1.43-3.9-3.77c0-2.47-1.17-3.51-3.77-3.51h-11.05Z"/><path class="cls-1" d="M586.94,27.57c1.82,0,2.86,1.04,2.86,2.86v49.66c0,2.6,1.82,4.42,4.42,4.42,2.08,0,3.25,1.3,3.25,4.03s-1.43,4.03-3.77,4.03h-20.67c-2.34,0-3.77-1.3-3.77-4.03s1.17-4.03,3.38-4.03c2.6,0,4.42-1.82,4.42-4.42V40.05c0-2.6-1.82-4.42-4.42-4.42-2.08,0-3.38-1.3-3.38-4.03s1.43-4.03,3.77-4.03h13.91Zm-11.83-19.25c0-4.55,3.77-8.32,8.45-8.32s8.32,3.77,8.32,8.32-3.77,8.45-8.32,8.45-8.45-3.77-8.45-8.45Z"/><path class="cls-1" d="M665.98,34.72h-8.32c4.03,4.29,6.24,9.88,6.24,16.12,0,13.39-10.4,24.31-27.43,24.31-5.72,0-10.53-1.04-14.43-2.86-2.47,1.04-3.9,2.73-3.9,5.2,0,3.38,2.6,4.42,8.45,4.42h14.69c15.73,0,27.3,6.37,27.3,20.67s-13,21.19-30.55,21.19c-18.98,0-31.07-7.93-31.07-18.33,0-4.55,1.82-8.58,6.5-8.58,4.16,0,4.94,2.73,5.46,6.63,.91,7.8,6.11,12.09,19.11,12.09,10.4,0,17.81-3.12,17.81-11.05s-5.59-10.4-16.51-10.4h-15.86c-11.57,0-16.64-4.81-16.64-12.74,0-5.07,2.73-10.53,8.71-13.65-4.29-4.42-6.5-10.4-6.5-16.9,0-13.52,9.1-24.31,27.43-24.31h29.51c2.6,0,3.9,1.43,3.9,4.03s-1.3,4.16-3.9,4.16Zm-29.51,0c-6.76,0-14.95,3.64-14.95,16.12s8.19,16.12,14.95,16.12,14.95-3.64,14.95-16.12-8.32-16.12-14.95-16.12Z"/><path class="cls-1" d="M736.57,34.72h-8.32c4.03,4.29,6.24,9.88,6.24,16.12,0,13.39-10.4,24.31-27.43,24.31-5.72,0-10.53-1.04-14.43-2.86-2.47,1.04-3.9,2.73-3.9,5.2,0,3.38,2.6,4.42,8.45,4.42h14.69c15.73,0,27.3,6.37,27.3,20.67s-13,21.19-30.55,21.19c-18.98,0-31.07-7.93-31.07-18.33,0-4.55,1.82-8.58,6.5-8.58,4.16,0,4.94,2.73,5.46,6.63,.91,7.8,6.11,12.09,19.11,12.09,10.4,0,17.81-3.12,17.81-11.05s-5.59-10.4-16.51-10.4h-15.86c-11.57,0-16.64-4.81-16.64-12.74,0-5.07,2.73-10.53,8.71-13.65-4.29-4.42-6.5-10.4-6.5-16.9,0-13.52,9.1-24.31,27.43-24.31h29.51c2.6,0,3.9,1.43,3.9,4.03s-1.3,4.16-3.9,4.16Zm-29.51,0c-6.76,0-14.95,3.64-14.95,16.12s8.19,16.12,14.95,16.12,14.95-3.64,14.95-16.12-8.32-16.12-14.95-16.12Z"/></g></g></svg>