<svg id="daily-mail" xmlns="http://www.w3.org/2000/svg" width="359.223" height="58.55" viewBox="0 0 359.223 58.55">
  <path id="Path_608" data-name="Path 608" d="M190.606,114.581l.8.6a14.871,14.871,0,0,1,.051-2.4,1.969,1.969,0,0,0-.75,1.149l-.85.1.75.552Zm32.759,6.5a.544.544,0,0,0-.5-.347.609.609,0,0,0,0,1.2.568.568,0,0,0,.552-.6c0-.1-.049-.151-.049-.251Zm-.02-2.347a.557.557,0,0,1,.02.147.615.615,0,0,1-.4.566v.738a1,1,0,0,1,.7.394,1.249,1.249,0,0,1,.247.75,1.115,1.115,0,0,1-.754,1.11c1.235-.1,2.007-.208,2.007-.208-1.2-.251-.5-.95-.5-.95a6.3,6.3,0,0,1,1.6-.8,3.04,3.04,0,0,1-2.252-1.748h-.666Zm-.63,3.736a1.19,1.19,0,0,1-.051-2.265v-.734a.656.656,0,0,1-.548-.544l0,0a3.758,3.758,0,0,1-.95.147.261.261,0,0,0,.1.352c1.051.75.352,1.449.352,1.449-.5.452-.75.452-.75.452a8.55,8.55,0,0,0-1.7,1.2c1.337.041,2.561,0,3.552-.063Zm-13.7-4.638a.433.433,0,0,0,.251-.08l1,.431a.512.512,0,0,0,.452.552.439.439,0,0,0,.372-.243l.846.125a.475.475,0,0,0,.431.419.545.545,0,0,0,.495-.519l.707-.335a.426.426,0,0,0,.352.2.55.55,0,0,0,.5-.552l.452-.746a13.1,13.1,0,0,0,2.551-.051,22.415,22.415,0,0,1,2.451-1.1,6.437,6.437,0,0,0-1.055.85,7.607,7.607,0,0,0-.7.8,1.339,1.339,0,0,0-.552,1.153,1.93,1.93,0,0,0,.3.8,1.862,1.862,0,0,0,.6.452l.552.5a5.045,5.045,0,0,1-1.453.6,2.008,2.008,0,0,1-1.3-.147c-1.752-.4-2.351.4-2.351.4a1.689,1.689,0,0,1-1,.452l.3.452a1.166,1.166,0,0,1-1-.051,3.718,3.718,0,0,1,.4-1.7c-.2-1.349-3-1.1-3-1.1l-.7-.654-.151-.151-1.6-1.5a4.619,4.619,0,0,1-.448,1.654,7.981,7.981,0,0,1-.452.85l-.6-.3a1.724,1.724,0,0,0,.247-.548,19.468,19.468,0,0,0,.85-2.9,3.07,3.07,0,0,1,.75.1,2.87,2.87,0,0,0,.251.151c.116.055.243.108.38.164l.552.783a.614.614,0,0,0-.08.3C208.61,117.631,208.759,117.831,209.011,117.831Zm5.584-.779-.292.415a.476.476,0,0,0-.39-.235c-.251,0-.452.247-.452.6a.517.517,0,0,0,.016.139l-.638.3a.575.575,0,0,0-.478-.439c-.247,0-.448.3-.448.6l-.762-.131a.565.565,0,0,0,.012-.117c0-.3-.2-.6-.452-.6a.482.482,0,0,0-.411.376l-.883-.4a.542.542,0,0,0,.043-.223.491.491,0,0,0-.452-.5.28.28,0,0,0-.117.02l-.235-.423h0a25.927,25.927,0,0,0,2.853.7h1.1l.352-.552a4.547,4.547,0,0,0,1.635.47Zm-5.928-8.54c.041.051.08.1.121.141l-.063.112a.223.223,0,0,0-.112-.037.388.388,0,0,0-.352.4l-.047-.049-.4-.452-.147-.149-.9-.95c-1.051-1.4-2.651,0-2.651,0l-.247-.2a.665.665,0,0,0,.1-1.151l1.649-4.251-.452-.55c.8-1.652-.9-1.7-.9-1.7-.5-1.5-1.4-.8-1.4-.8-.3-1.451-1.4-.7-1.4-.7a.878.878,0,0,0-1.349-.4l.047-2.351-1.1.049-1.2-.049.1,2.4a.876.876,0,0,0-1.4.6c-1.4-.8-1.4.75-1.4.75-1.153-.352-1.1.75-1.1.75a1.324,1.324,0,0,0-1.349,1.5l1.2,4.1a63.263,63.263,0,0,1-3.849,5.1l-1.5-.45-.1-.249a.732.732,0,0,0,.6.1,4.3,4.3,0,0,1,.049-1.5c.452-1.95-.35-2.651-.35-2.651a3.785,3.785,0,0,0-.5-1.75c.75-.95-.35-1.9-.35-1.9l-.151-.251-.049-2.05c-.2,0-.3-.251-.3-.251-.3-.85-.85-.3-.85-.3a.589.589,0,0,0-1.051-.2.638.638,0,0,0-1.1,0l-.45-1.451-1.5.6.5,1.6c-1.1-.251-.75.85-.75.85-.95.049-.5.9-.5.9-.9.1-.55,1.1-.55,1.1l1,1.649c-.8.9-.049,1.5-.049,1.5.251.452.552.452.552.452a4.326,4.326,0,0,0,.149,2.751,8.607,8.607,0,0,1-2.451,1.8,15.432,15.432,0,0,1-2.351.9c-1.952.452-5.8,1.7-5.8,1.7-1.351.347-3.5,1-3.5,1-2.7.8-3.4-.047-3.4-.047-.65-.4-.149-1.453-.149-1.453a3.209,3.209,0,0,1,2-1.6,8.486,8.486,0,0,1,1.3.95,2.451,2.451,0,0,0,1.652.552l.049-.2a1.435,1.435,0,0,0,.75-.1,1,1,0,0,1-.3-.65c0-.249-.35-.648-.35-.648l6.952-.3c.251-.047.45-.047.65-.1,2.4-.45,2.952-1,2.952-1a3.3,3.3,0,0,0,.95-3.452,3.345,3.345,0,0,0-2.651-2.2,5.759,5.759,0,0,0-2.351-.149,10.462,10.462,0,0,1-2.3-.35c-.051.3.6,1.249.6,1.249a1.688,1.688,0,0,1-1.249-.4,2.459,2.459,0,0,0-2.1-.4,9.042,9.042,0,0,0,1.4,1.4,9.818,9.818,0,0,1-2.6-.75,4.457,4.457,0,0,0,6.451,2.751,11.52,11.52,0,0,1,1.9-.95,1.087,1.087,0,0,1,1.5.7c-.1,1.7-1.351,1.75-1.351,1.75a32.959,32.959,0,0,1-8.4.249,3.774,3.774,0,0,0,.4-1.6l-.4.1c-2.1-.2-2.651.251-2.651.251a3.058,3.058,0,0,0-1.1,1.4,7.94,7.94,0,0,0-2.252,1.4,5.059,5.059,0,0,0-1.549,2.851c-.1,1.8.9,2.052.9,2.052-.9,1.748.45,2.4.45,2.4a2.993,2.993,0,0,0,.85-.95c1.2-.9,4.7-1.649,4.7-1.649a5.071,5.071,0,0,0-1.1,2.2,3.179,3.179,0,0,1-1.6-.151c-.55-.047-.55.4-.55.4l-.251.6-.35,1.1c-2.15-.1-1.85,1.149-1.85,1.149l-.3,3.35c.5,1.249,1.3,1.051,1.3,1.051v-1.249h.55a3.051,3.051,0,0,0,1.652,1.649h.3c.35-.1.5.4.5.4l.35.047.049-.85.4-.047c.251.1.4.5.4.5h.3a3.194,3.194,0,0,0,.151-.75c.4-.251.3-1.149.3-1.149a3.637,3.637,0,0,1,1.652.151l-.049.746a2.311,2.311,0,0,0,1.351,1.153,10.3,10.3,0,0,0,2.15.3c1.551.1,3.5.047,5.3,0q2.931-.148,5.852-.452c.2.3.3.251.3.251.85.3,1.8-.6,1.8-.6l-.3.6a3.5,3.5,0,0,0,1.351-.5,1.38,1.38,0,0,0,.7.5l.151-.151.2.3a1.9,1.9,0,0,0,.65-.9,1.488,1.488,0,0,0,1.1.3l.2.3.147-.251a7.041,7.041,0,0,0,.85.452,2.415,2.415,0,0,0,.352-1.848l.151.247.147-.6a1.276,1.276,0,0,0,.8.3c-.95.4-.4,1.1-.4,1.1a1.116,1.116,0,0,0,.5.448.634.634,0,0,1,.7.5.957.957,0,0,0,1.2-.452l.1-.6a2.8,2.8,0,0,1-.151-.9l.151.65.247.151,1.7,1.349,1.453-1.2a3.807,3.807,0,0,0,1.9.552c.4,0,.1-.5.1-.5a4.823,4.823,0,0,0,3.25.8c.3-.247.1-.4.1-.4.352-.151.95.352.95.352a1.51,1.51,0,0,0,1.249.047.4.4,0,0,0-.3-.3c.352,0,.151-.5.151-.5a1.23,1.23,0,0,1,.65.448.921.921,0,0,0,.85.3l.047-.251a2.866,2.866,0,0,0,1.149.3.45.45,0,0,0,.051-.5,33.3,33.3,0,0,0,8.951.9c6.954-.047,7.9-1.4,7.9-1.4a.657.657,0,0,0,.1-.65v-.4a1.383,1.383,0,0,1,.9-.051l-.5,1.051-.147.352c1.2,1.349,3-.151,3-.151v-.452a1.921,1.921,0,0,0,.65-.548l.8.2a1.515,1.515,0,0,1-.2.95,1.42,1.42,0,0,0,1.7-.95l-.646-3.354a3.563,3.563,0,0,0-2.8-.95l-.051-.85a.957.957,0,0,0-.75-.548l-.386-.139-.364.139c-.552.047-1.353.047-1.353.047v-.047l.1-1.153v-1.3l-.1-.452,1.055.151a9.4,9.4,0,0,0,2.651.347.968.968,0,0,1,.6.85l-.2.7c1.7-.151,1.5-2.052,1.5-2.052,1.2-1,.9-3.7.9-3.7a2.639,2.639,0,0,0-.552-1.2l-.047-.047a2.912,2.912,0,0,0-1.7-2.453,1.108,1.108,0,0,0-.65-.251,2.757,2.757,0,0,1-.95-.75,2.168,2.168,0,0,0-.1,2.1c-1-.2-6.005.8-6.005.8a7.544,7.544,0,0,1-3.2-.35c-1.253-.7-1.051-1.6-1.051-1.6.247-1.451,1.449-1.251,1.449-1.251h.352a2.934,2.934,0,0,1,1.8.2c2.1,1,5.848,0,5.848,0,1.8-.7,2.3-3.052,2.3-3.052a2.977,2.977,0,0,1-2.351.9,6.227,6.227,0,0,0-.75.2,2.117,2.117,0,0,1,1.2-1.251,3.177,3.177,0,0,0-2.7.4,4.708,4.708,0,0,1-2.252,1,3.767,3.767,0,0,0,1.752-1.7,4.395,4.395,0,0,1-2.1.35c-2.052-.4-4.3,1.449-4.3,1.449a3.5,3.5,0,0,0-1.051,4,2.6,2.6,0,0,0,1.5,1.3,6.678,6.678,0,0,0,1.948.552,40.725,40.725,0,0,0,6.555-.251,4.047,4.047,0,0,1,.85-.1,3.2,3.2,0,0,0-.95,1.952,4.416,4.416,0,0,1,1.4-.3l-.047.2a5.65,5.65,0,0,1,1.748,0,.538.538,0,0,0,.6-.4c.6.9-.6,1.9-.6,1.9-.7.7-2.248.147-2.248.147a12.727,12.727,0,0,0-3.054-.552c-.4-.5-4.951-1.4-4.951-1.4a.541.541,0,0,0-.7-.251l-.4-.051a.858.858,0,0,0-1.3-.4,8.651,8.651,0,0,1-2.3-1.051,1.846,1.846,0,0,1-.448-.3,8.248,8.248,0,0,0,2.248-5.5,4.908,4.908,0,0,0-3.649-4.752,2.579,2.579,0,0,0-2.1-1.3l-.1.251.147.35c-.047.251.251.7.251.7l-.65.149-4.051-2.351c-1-.249-.6.6-.6.6l.2.3,3.5,2.751a6.681,6.681,0,0,1-1.549,1.6l-.452.1-.552.6.051.8a1.62,1.62,0,0,1-.8.2l-.047.5c.347.5,1.349.5,1.349.5l.8.8a.374.374,0,0,0,.452-.049l.7-.8.95-.45a2.2,2.2,0,0,0,.7.2,4.177,4.177,0,0,0-1.349,1.2,3.858,3.858,0,0,0-1.453.049l-.1.55-.029.133-.219-.133a.838.838,0,0,0-1.453-.55,1.134,1.134,0,0,0-.09,1.433Zm.022,1.047a.472.472,0,0,0,.219-.431.4.4,0,0,0-.037-.168l.067-.168a.871.871,0,0,0,.554.194c.515-.016.715-.76.715-.76h.125l-.125.6a3.592,3.592,0,0,0-.95,1.3l-.568-.566Zm.313-1.429a.581.581,0,0,1,.307-.8c.7-.1.552.8.552.8-.188.235-.339.323-.464.333C209.125,108.482,209.006,108.135,209,108.131Zm-27.3,10.551a3.4,3.4,0,0,1-2,.9l-.4.646.95.251.2.1.85.251a.54.54,0,0,1,.7-.452s.45-1.2,2.25-.8a.976.976,0,0,1,.7.1,2.8,2.8,0,0,1,.45.347l-.2-.65a.661.661,0,0,1,.7-.2,2.116,2.116,0,0,1-.35-.5,1.854,1.854,0,0,1-.35-1,2.493,2.493,0,0,1,1.2-.147v-.552h.35l-.65-.4a4.633,4.633,0,0,1-4.752.95,7.377,7.377,0,0,1-1.75-.75,2.562,2.562,0,0,0,2.5,1.449,4.106,4.106,0,0,1-.4.452Zm-8.051,0a18.064,18.064,0,0,0,2.751.452,3.559,3.559,0,0,1-.45.4,2.68,2.68,0,0,1-1,.552,2.536,2.536,0,0,0-.149,1.4,2.645,2.645,0,0,0,1,.5c.5.2,1,.352,1,.352a4.641,4.641,0,0,1-1.85,0,3.152,3.152,0,0,1-.9-.2l.249-.5c-.2-1.3-2.15-1.449-2.15-1.449l.1-.6a4.07,4.07,0,0,0,.6-.9,1.322,1.322,0,0,0,.149-.3,2.136,2.136,0,0,0,.6.3h.047v0Zm35.612,4.151a.444.444,0,0,0-.251.4s.1.3.75.5a3.019,3.019,0,0,0-.051-1.149,2.149,2.149,0,0,0-.448.251Zm-22.809-.9.35-.1a1.509,1.509,0,0,1-.4-.5,1.042,1.042,0,0,0-.45-.75l.049.352v.5l.149.151v.4l.3-.051Zm1.6,1.754.051.75.65-.7a.276.276,0,0,1-.251-.147,1.7,1.7,0,0,1-.4-.5l-.051.6Zm2.261-4.983a.955.955,0,0,1,.879.2.665.665,0,0,1,.611-.719,14.464,14.464,0,0,1-2-.552,3.052,3.052,0,0,1-1.4-.75l-.45.151-.352.147v.151a3.706,3.706,0,0,1,1.451.552v-.2a1.841,1.841,0,0,1,1.261,1.024Zm2.639,1.981c0-.1.051-.2.051-.352l.75.8a.886.886,0,0,1-.151.8,1.5,1.5,0,0,0-.347-.247.934.934,0,0,0-.4-.1l-.047-.65a.717.717,0,0,0,.147-.253ZM132.138,93.373s7.452,3.8,8.352,4.552c.95.75.45,1.251.45,1.251a2.079,2.079,0,0,1-1.2.7c-.852.149-.6.85-.6.85l-.1,17.756c3.5,3.45,6.8,1.6,6.8,1.6a1.423,1.423,0,0,0,1.1-1.5s.251-16.7.149-17.255a.642.642,0,0,0-.6-.6s-3.1-1.952-3.6-2.3c-.552-.35.049-.9.049-.9s5.251-3.651,6-4.352a1.122,1.122,0,0,1,1.351-.251s8.652,4.852,9.652,5.6.5,1,.5,1L158,101.978a.808.808,0,0,0-.251.95l-.1,16.405c-.65,4.2-7.252,4.8-7.252,4.8-7.953.1-11.653-3.3-11.653-3.3a8.5,8.5,0,0,0-6.8-.6c-4.65,1.6-5,4.6-5,4.6-.151,2.152,2.25,3.2,2.25,3.2,2.952,1.9,7.252.7,7.252.7,3.651-1.249,9.3-3.15,9.3-3.15a16.808,16.808,0,0,1,6.351-.151,8.247,8.247,0,0,1,4.452,2.2,6.914,6.914,0,0,1,1.9,4.8c.149,5.905-7.1,7.9-7.1,7.9-3.25.65-4.149-.1-4.149-.1-2.3-.5.149-.75.149-.75s-4.2.247.35.047c4.552-.147,5.053-2.346,5.053-2.346,1.652-2.954-.9-3.452-.9-3.452-3.5-.5-7.3,2.351-7.3,2.351-8.5,3.8-14.954.65-14.954.65-6.6-2.551-5.752-7.452-5.752-7.452.149-6.351,4.151-8.85,4.151-8.85l-.249-19.657a1.183,1.183,0,0,0-.7-.65s-2.751-1.1-3.2-1.7a.533.533,0,0,1,.249-.85l6.353-4.2c.746-1.053,1.7,0,1.7,0ZM8.9,90.372c-.95-.65.1-1,.1-1l9.554-7H43.811c5.451.5,5,7.5,5,7.5l-.1,25.805a20.619,20.619,0,0,0-13.1,9.206c-8.254-2.351-22.406-.251-22.406-.251-1.251.1-.4-.85-.4-.85,4.9-8.6,14.3-8.352,14.3-8.352.607-.012,1.2,0,1.78.041l.049-24.836L8.9,90.372Zm12.6,1.4c1.85-.85,1.5.4,1.5.4v14.353a12.5,12.5,0,0,1-4.9,9.355c-1.4,1.9-6.751,4.1-6.751,4.1-1.85.7-.75-1.1-.75-1.1a8.863,8.863,0,0,0,1.75-4.452V97.175a1.014,1.014,0,0,1,.2-.7l8.953-4.7Zm8.227,23.77a24.916,24.916,0,0,1,7.579,1.989l-.065-11.1-.067.051c-.01-.012-3.51-4.632-7.43.17Zm7.506-10.232-.027-4.654c-1.339,1.253-4.46,3.36-7.452-.542l-.01,5.269C33.044,102.04,36.008,104.122,37.238,105.31ZM37.2,99.442l-.045-7.769c.35-1.3-1.449-.95-1.449-.95l-5.93-.078-.014,7.97c3.354,5.56,7.095,1.247,7.438.828Zm69.025-12.17s11-3.55,12.4-3.9c1.449-.35,1.351.35,1.351.35s-.3,31.308-.049,32.409.75.8.75.8,2.551,1.8,3.1,2.048a.6.6,0,0,1,.3.85l-6.2,4.8s-10.1-4.452-10.9-4.951c-1-.7-.35-1.1-.35-1.1l1.8-1.8s.3-25.607-.2-26.958a3.715,3.715,0,0,0-2.1-1.9c-.352-.552.1-.652.1-.652Zm-12.352,5.3a1.167,1.167,0,0,0,1.249.7,10.988,10.988,0,0,0,5.6-5.4c1-3.751-1.351-4.75-1.351-4.75a3.538,3.538,0,0,0-3.651-.251,6.624,6.624,0,0,0-3.052,3.8,8.558,8.558,0,0,0,1.2,5.9Zm-1.8,1.7s-6.5,4-7,4.752-.1,1.1-.1,1.1,2.8,1.75,3.55,2.05c.8.249.5.65.5.65l.2,13a4.98,4.98,0,0,1,0,1.249s-1.1.9-1.7,1.4a.807.807,0,0,0-.151,1.2l10.054,5.051s6.8-4.9,7.4-5.151,0-.75,0-.75-2.952-1.7-3.45-1.952a.589.589,0,0,1-.3-.75s-.4-12.857-.1-13.956c.249-1.051.6-.7.6-.7a7.359,7.359,0,0,0,1.7-.75c.75-.5.051-.95.051-.95s-9.353-4.9-10.052-5.5a.8.8,0,0,0-1.2,0ZM50.638,115.93c-.025-.1.775,7.553,10.578,8.8l6.5-5.249a.507.507,0,0,1,.85-.1l11,5.353,6.7-5.249a1.139,1.139,0,0,0-.2-1.2l-4.652-3.1V102.426s-.049-.6.35-.7l1.8-1.449s.3-.5-.3-1.151c-.552-.7-11.5-6.1-11.5-6.1s-.4-.6-1.4.1c0,0-11.953,4.8-16.654,10.952,0,0-3.749,2.4-3.074,11.853Zm9.378-4.1a11.126,11.126,0,0,1-.9-7.4,6.774,6.774,0,0,1,4.4-5.5l5.752,3.751-.1,14.8s-.75,1.253-2.6.4c0,0-4.752-2.351-6.553-6.052ZM335.646,94.673s-6.5,3.951-7,4.752c-.5.75-.1,1.1-.1,1.1a36.428,36.428,0,0,0,3.552,2c.8.251.5.7.5.7l.2,13a4.981,4.981,0,0,1,0,1.249s-1.1.85-1.7,1.353a.8.8,0,0,0-.147,1.2L341,125.13s6.8-4.9,7.4-5.2c.6-.247,0-.75,0-.75s-2.9-1.7-3.45-1.948a.588.588,0,0,1-.3-.75s-.4-12.855-.1-13.954c.251-1,.6-.7.6-.7a7.506,7.506,0,0,0,1.7-.75c.75-.5.047-.9.047-.9s-9.353-4.9-10.052-5.5a.817.817,0,0,0-1.2,0Zm-99.43-4.251c-1.549-.85-.448-1.251-.448-1.251l7.8-5c.4-.35.75.151.75.151l7.1,4.151s9.6-5.1,10.253-5.5a.623.623,0,0,1,.75.1l8.1,4.5,8.151-5.1c.9-.75,1.149-.251,1.149-.251l9.554,5.6c.8.5.448.65.448.65v25.91a5.789,5.789,0,0,0,3.054,4.452c.75.6.4,1.051.4,1.051l-7.354,5.249c-6.351-2.152-6.95-7.3-6.95-7.3V93.073a1.293,1.293,0,0,0-.75-1.051l-4.91-2.5.037,11h5.273l-5.249,7.567.033,9.108,3.669,2.483c.5.6-.3.7-.3.7l-7.606,4.75-11.3-6c-1.051-.7-.251-1.1-.251-1.1l2.451-1.549v-7.953h-5.382l.02,10.21,1.813,1.147a.609.609,0,0,1-.1,1l-7.553,4.251-9.852-5.2c-.85-.552.047-1,.047-1l2.8-1.6V94.424l-5.4-3.9-.253-.1Zm36.424-1.21c-1.492-.464-1.261.462-1.261.462l.1,10.052v.8h1.2l-.041-11.316Zm.065,19.316h-1.226v7.354c.047.2.65.448.65.448l.6.411-.027-8.213ZM254.692,107.1l4.431-6.58h.95V93.073a2.317,2.317,0,0,0-.7-.8l-4.711-2.451.029,17.282Zm-.705-17.443c-1.382.031-1.461.963-1.461.963l-.1,26.709c0,.147.452.247.452.247l1.161.734-.047-28.653Zm40.232,26.269c-.025-.1.775,7.553,10.58,8.8l6.5-5.249a.508.508,0,0,1,.85-.1l11,5.353,6.7-5.249a1.144,1.144,0,0,0-.2-1.2l-4.65-3.1V102.426s-.047-.6.352-.7l1.8-1.449s.3-.5-.3-1.151c-.552-.7-11.506-6.1-11.506-6.1s-.4-.6-1.4.1c0,0-11.953,4.8-16.654,10.952,0,0-3.751,2.4-3.076,11.853Zm9.378-4.1a11.1,11.1,0,0,1-.9-7.4,6.764,6.764,0,0,1,4.4-5.5l5.752,3.751-.1,14.8s-.75,1.253-2.6.4C310.147,117.882,305.4,115.532,303.6,111.83Zm46.2-24.558s10.95-3.55,12.4-3.9c1.4-.35,1.349.35,1.349.35s-.3,31.659-.051,32.761.75.85.75.85,2.551,1.8,3.1,2.048a.6.6,0,0,1,.3.85l-6.2,4.8s-10.1-4.452-10.9-5c-1-.65-.352-1.1-.352-1.1l1.8-1.752s.3-26.057-.2-27.408a3.535,3.535,0,0,0-2.1-1.85C349.351,87.321,349.8,87.272,349.8,87.272Zm-12.354,5.7a1.165,1.165,0,0,0,1.249.7,11.189,11.189,0,0,0,5.6-5.451c1-3.7-1.353-4.7-1.353-4.7a3.408,3.408,0,0,0-3.649-.251,6.606,6.606,0,0,0-3.05,3.8,8.551,8.551,0,0,0,1.2,5.9Z" transform="translate(-8.504 -82.057)" fill="#3d5065" fill-rule="evenodd"/>
  <path id="Path_609" data-name="Path 609" d="M93.876,90.293l.7-.35v.5l.249-.249.3.7-.4.051.251.249c.55.4.2.75.2.75l-.251.2c-.8.3-.55-.95-.55-.95l-.251.249-.3-.75h.4l-.352-.4Z" transform="translate(80.571 -73.823)" fill="#3d5065" fill-rule="evenodd"/>
  <path id="Path_610" data-name="Path 610" d="M102.531,92.728a.629.629,0,0,1,.65.5c.049-.85.7-.1.7-.1a1.247,1.247,0,0,0-.55.35c0,.5.75.5.75.5.65-.352.55-.75.55-.75.1-.552-.55-.251-.55-.251l-.251-.55.4-.049v-.2l-.35-.2,1.1-.55-.151.45.1.1.249-.3.2.8c-.5-.1-.3.35-.3.35.284.307.511.335.677.27a.7.7,0,0,0,.323-.321c.3-.35-.049-.5-.049-.5-.4.149-.45.3-.45.3-.2-1.051.35-.852.35-.852a.99.99,0,0,1,0-.75.835.835,0,0,1,.45.6c.6-.65.7.049.7.049-.8.151-.45.6-.45.6.188.3.335.343.452.27.253-.166.347-.926.347-.926a2.056,2.056,0,0,0-1.6-.7l-.049.407-.6.1-.1-.3-.149-.049v-.251a2.915,2.915,0,0,1,2.751.65l.049,2a14.672,14.672,0,0,0-4.8,2.05l-1.051-1.8a4.023,4.023,0,0,1,1.7-2.25l.2.2-.251.3.1.35-.6.5-.5-.251a1.762,1.762,0,0,0-.35,1.151l.35.75c.7.3.452-.55.452-.55-.2-.251-.452.3-.452.3-.45-.85.151-.8.151-.8a.731.731,0,0,1-.147-.642ZM86.277,111.034a8.873,8.873,0,0,0-.3,3.9h-.4v-2.751c-1.151-.251-.65-.7-.65-.7a1.51,1.51,0,0,1,1.351-.45Zm2.2,5.051a1.735,1.735,0,0,1,.2.95.462.462,0,0,0-.5-.352C87.978,116.084,88.477,116.084,88.477,116.084Zm.95,0a.623.623,0,0,0,.251-.5c.552.247.2,1.051.2,1.051A1.057,1.057,0,0,0,89.427,116.084Zm-.65-1.948a.843.843,0,0,1,1,.6c.35.352.35-.151.35-.151-.452-1.4-1.351-.448-1.351-.448Zm1.1.95a.259.259,0,0,0,.35-.1.84.84,0,0,1-.051.8c-.049-.4-.3-.4-.3-.4v-.3Z" transform="translate(71.166 -73.109)" fill="#3d5065" fill-rule="evenodd"/>
  <path id="Path_611" data-name="Path 611" d="M88.57,106.183c-.5-1.848-1.8-.6-1.8-.6a2.829,2.829,0,0,1,.151-2.052,9.158,9.158,0,0,0,1.75,0c.249,0,.149.151.149.151.2.9-.35.9-.35.9.4.352.5.2.5.2.8.1,1.5-1.5,1.5-1.5a3.162,3.162,0,0,1,1.652.6c.5.452,0,.6,0,.6a6.511,6.511,0,0,0-1.952.1c-.149.1-.1.4-.1.4a8.5,8.5,0,0,1,.151,1.3A7.612,7.612,0,0,0,88.57,106.183Zm3.3-5.5c.2-.75,1.7-1.549,1.7-1.549a15.691,15.691,0,0,1,1.85-.552,3.246,3.246,0,0,1,2.2,1.449l-.5.4.2.151a.672.672,0,0,1,.95.051,16.5,16.5,0,0,0,1.549.65c-.5.746-2.05.448-2.05.448.049.8-.85,1.349-.85,1.349a10.44,10.44,0,0,0,2.9.955c.85-1.2,1.75-.352,1.75-.352a4.939,4.939,0,0,1,.452.4c-.5.251-.352.9-.352.9a31.473,31.473,0,0,1-3.8.2,15,15,0,0,1-4.151-1.1.232.232,0,0,1-.1-.352l-.051-.3c-.049-.352.251-.3.251-.3a3.564,3.564,0,0,0,1.85-1.249c.251-.6-.3-.5-.3-.5A15.7,15.7,0,0,1,91.871,100.68Z" transform="translate(73.074 -64.807)" fill="#3d5065" fill-rule="evenodd"/>
  <path id="Path_612" data-name="Path 612" d="M93.558,108.242a1.117,1.117,0,0,1,1.549-.3,1.941,1.941,0,0,1,.4.6.513.513,0,0,0-.5.352c-.35-.705-1.449-.652-1.449-.652Zm1.2,1.748a.46.46,0,0,1,.251-.548,1.95,1.95,0,0,1,.4.5,3.963,3.963,0,0,1-.65.049Zm.35-.846a.966.966,0,0,1,.5.746l.35-.047a1.4,1.4,0,0,0-.3-1.149A.632.632,0,0,0,95.107,109.144Zm.5-1.353c.251.151.2.65.2.65a1.364,1.364,0,0,1,.45.75,1.2,1.2,0,0,1,.65-.1c-.2-1.4-1.3-1.3-1.3-1.3Zm.75,1.6.049.4.55-.047a.7.7,0,0,0-.1-.5.6.6,0,0,0-.5.147Zm3.5-10.8a3.764,3.764,0,0,1,0,1.1c-.151.3-.55.9-.55.9l.7.7,1.7.047a6.413,6.413,0,0,1,1.2-1.6,7.439,7.439,0,0,1,2.3-4.251v-.249a.615.615,0,0,1-.448-.5.961.961,0,0,1,.4-.8c.2.2.2-.151.2-.151a.393.393,0,0,0-.251-.1l-.1.2-.448.7a18.919,18.919,0,0,1-1.453,2.551c-.4.4-1.7,1.85-1.7,1.85l-.2-.1a4.044,4.044,0,0,1-1.347-.3Zm2.9,8.452.347-.6.251.051a2.5,2.5,0,0,0,.552,1.2l-.051,1a.567.567,0,0,0-.5-.352,1.122,1.122,0,0,0-.6-1.3Zm-2.254,4.65h-.35l-.85.95c-.051.552-.75.8-.75.8,1.351-.1,1.551-.6,1.551-.6a3.311,3.311,0,0,1-.3.746c.848-.448.65-.646.65-.646.151-.5.1-.552.1-.552a.7.7,0,0,1,.1-.3c.1-.4-.149-.4-.149-.4Zm.6.4a2.663,2.663,0,0,0,.85.047c.7.65-.047,1.6-.047,1.6-.2-.452-.1-.65-.1-.65a.7.7,0,0,0-.1-.552,1.478,1.478,0,0,0-.1,1.1,1.346,1.346,0,0,1-.746-.85,1.211,1.211,0,0,1,.247-.7Zm5.6-5.8.452-.347a1.165,1.165,0,0,1-.147,1A1.977,1.977,0,0,0,106.709,106.29Zm-.7.65a3.562,3.562,0,0,0,.352-.448,1.473,1.473,0,0,1,.147,1.051c-.247-.151-.147-.051-.147-.051Z" transform="translate(80.291 -69.917)" fill="#3d5065" fill-rule="evenodd"/>
  <path id="Path_613" data-name="Path 613" d="M100.157,99.233v1.7c1.453-.151,1.3.95,1.3.95.6.2.2,1.249.2,1.249a1.9,1.9,0,0,1-.047,1.3,5.106,5.106,0,0,0,3,2.4l-.1-7.653Zm-.3-3,.051,1a7.507,7.507,0,0,0-.352,4,.536.536,0,0,0-.4.3c-.552-3.6.7-5.3.7-5.3Zm3.2,10.105-.051,3.753,1.6,1.3,1.353-1.2v-3.4l-.552.047v2.9l-.8.9-.9-.65v-3.2Z" transform="translate(85.992 -67.26)" fill="#3d5065" fill-rule="evenodd"/>
  <path id="Path_614" data-name="Path 614" d="M105.459,115.9c.147,0,.251-.1.251-.3s-.1-.347-.251-.347c-.1,0-.2.147-.2.347S105.361,115.9,105.459,115.9Zm.452.8c.1,0,.2-.151.2-.3,0-.2-.1-.352-.2-.352-.151,0-.251.151-.251.352A.28.28,0,0,0,105.911,116.7Zm-.4.6c.1,0,.2-.147.2-.3s-.1-.3-.2-.3a.3.3,0,0,0,0,.6Zm-.4-.652c.151,0,.251-.147.251-.347a.254.254,0,1,0-.5,0C104.862,116.5,104.96,116.65,105.11,116.65Zm-4.3-4.047c-.051-.4.147-.452.147-.452a2.055,2.055,0,0,0,.6.8V112.9a2.284,2.284,0,0,0,.6.7.291.291,0,0,1-.3.352,4.848,4.848,0,0,1-1.051-1.351Zm1,.3a.706.706,0,0,0,.2-.552c.151.251.251.251.251.251l.151-.1.3.448a.873.873,0,0,0-.552.452.727.727,0,0,1-.35-.5Zm-1.848.448.347.5a.7.7,0,0,1,.1-.352l.4-.4-.2-.352-.4.452A2.349,2.349,0,0,0,99.959,113.349Zm-.55-.9.3.4c.051-.2.151-.247.151-.247l.5-.452-.3-.2ZM98.158,106.9v.552l.147-.049.752-.051-.9,1.049.6.4h.85v-.4h-.9l.9-1v-.452l-.151.049H98.305l-.147-.1Zm.1-1.249-.051.5.1-.1,1.151.151.151.2.1-.6h-.2l-1.049-.151-.2-.149Zm.9-2.7.352.249-.251.1c-.4.35-.147.55-.147.55.247.151.3-.149.3-.149.4-.55.7-.251.7-.251a.659.659,0,0,1,.151.9l-.151.2-.047.149-.4-.149.2-.149a.415.415,0,0,0,.147-.4c-.1-.452-.347,0-.347,0-.6.6-.9-.051-.9-.051-.253-.454.4-1,.4-1Zm1.453-1.652v.4a.405.405,0,0,0-.552.45c.147.7.65.6.65.6v.3a.89.89,0,0,1-.95-.552.908.908,0,0,1,.852-1.2Zm.448,5.5h4.352v-6.4l-4.55-.051Zm-.347-12.752a8.85,8.85,0,0,1,4.047-2v1C103.26,92.845,100.709,94.045,100.709,94.045Zm5.4-1.95v.9a6.569,6.569,0,0,1,4.552,1.251A6.053,6.053,0,0,0,106.111,92.1Zm-1.1-.051v1h.85v-1ZM99.456,94.7c-.3-1.4.75-.85.75-.85Zm1.1-1.1c-.1-1.449.85-.65.85-.65Zm1.349-.95c-.047-1.449.9-.6.9-.6Zm1.3-.7c.2-1.9,1-.4,1-.4Zm1.549-.952h1.353c.2.3-.2.75-.2.75a1.381,1.381,0,0,1-.9-.049c-.7-.149-.251-.7-.251-.7Zm.051-2.25h1.3l-.4.6.247.251.3-.4.051,1.251-.65-.5.3.75-1.151-.051.5-.6-.147-.149-.5.45-.049-1.2.5.452.151-.151-.452-.7Zm5.6,4.452.75.7C111.413,92.344,110.41,93.195,110.41,93.195Zm-.4-.3-.9-.5C110.158,91.345,110.011,92.894,110.011,92.894Zm-2.2-1.249.9.4C108.709,90.495,107.812,91.645,107.812,91.645Zm-.352-.051c-.1-.7-.5-.7-.5-.7-.452-.1-.5.65-.5.65l1,.051Zm-6.651,7.653a24.755,24.755,0,0,1,9.1,0c.6.1.352.55.352.55a.924.924,0,0,1-.65.049,27.71,27.71,0,0,0-8.654.151c-.75.049-.6-.3-.6-.3.151-.55.45-.45.45-.45Zm4.85,1.151v6.453h4.151l.149-6.453Zm4.151,6.651h-4.151l.051,7.653a3.858,3.858,0,0,0,2.949-1.8c.1-.7,1.149-3.6,1.149-3.6v-2.25h0Zm-2.6,7.454v.75a7.866,7.866,0,0,0,2,.9.38.38,0,0,0,.251-.552,1.269,1.269,0,0,0-.5-.247,3.5,3.5,0,0,1-1.754-.848Zm1.553-1.453.247.251-.9,1.3-.151-.352Zm.446.4-.846,1.2c1.3.85,2.048-1.149,2.048-1.149A1.724,1.724,0,0,1,109.208,113.453Zm.854-9.8v1.2a7.717,7.717,0,0,1,.548,2.5l.4-.7a5.894,5.894,0,0,0-.95-3Zm-2.9,13.852v.552a4.508,4.508,0,0,0,1.449.6c.251-.1,0-.448,0-.448a3.167,3.167,0,0,1-1.449-.7Z" transform="translate(85.093 -75.076)" fill="#3d5065" fill-rule="evenodd"/>
  <path id="Path_615" data-name="Path 615" d="M103.369,105.038l.251-.9c.85-.051.552-1,.552-1,.7-.2,1.5-1.5,1.5-1.5l.2.5.3.6c.147.3.247.452.2.452l-.452.4v-.251l-.85.75.3-1.649-.8,1.848a3.177,3.177,0,0,1-1.2.75Zm.151.452c.7,1.051,3,1.051,3,1.051a1.757,1.757,0,0,0-.9-.85,1.939,1.939,0,0,1,1.9.5,1.862,1.862,0,0,0,1.149.5,2.894,2.894,0,0,0-.5-.552.861.861,0,0,0,.6.047,4.24,4.24,0,0,0-1.349-1.149c1.051-.552,1.952.7,1.952.7a2.142,2.142,0,0,0,.85.8l-.3-1c.3.9,1.5,1.153,1.5,1.153.151-.151,0-.452,0-.452-.347,0-.65-.5-.65-.5l-.047-1c-1.1-.151-1.1-.75-1.1-.75a1.163,1.163,0,0,1,.95-1l-.1-1.153c.65-.6,1.9-.247,1.9-.247-.1-.7-.65-.5-.65-.5,0-.548-.646-.6-.646-.6v.151l-1.8,1.4c.251,1.4-.4,1.848-.4,1.848a1.612,1.612,0,0,1-2.148-.3l-.7.452a1.73,1.73,0,0,1,1.1.65l-.1.1a2.842,2.842,0,0,0-1.1-.552l-.6.247-.3.251-1.506.748Z" transform="translate(90.533 -62.812)" fill="#3d5065" fill-rule="evenodd"/>
  <path id="Path_616" data-name="Path 616" d="M111.822,111.358a6.642,6.642,0,0,0,.8-2.1l.2.251-.3.95.2.2.347-.8.251.3-.4.65.3.247.4-.548.251.2-.552.552.247.347.452-.7.352.251-.6.6.247.2.6-.5.2.147-1.453,1.2A2.855,2.855,0,0,0,111.822,111.358Zm5.151,1.2c1.253-.3.2-.95.2-.95-1.1-.4-1.253-.2-1.253-.2.4.151.352.4.352.4C116.826,111.856,116.973,112.555,116.973,112.555Zm.051,1.2.452-1.1a1.879,1.879,0,0,1-1.149.1,1.651,1.651,0,0,0-1.055.1c-.448.251-.1.3-.1.3a3.412,3.412,0,0,0,1.848.6Zm1.449-.153.251.3,1.2-.4-.7.5,1.3.1-.6-.9-1.453.4Zm-3.6-22.1a1.988,1.988,0,0,0-.6-1.3c-.552-.35-.6-.049-.6-.049a.642.642,0,0,0,.347.6l.85.75Zm1.149.7a2.032,2.032,0,0,0-.147-.6,5.723,5.723,0,0,0-.352-.55l-.65-.45a3.012,3.012,0,0,1,.251.9l.9.7Zm.051-.8a1.559,1.559,0,0,1,.251.9l.8.8a2.218,2.218,0,0,0-.4-1.3l-.65-.5v.1Zm-1.547,5.551a.737.737,0,0,1-.6.1c0,.5.9.5.9.5a1.02,1.02,0,0,0,.65-.35V97a1.774,1.774,0,0,1-.65.251l-.3-.3Zm1.1,3.45.1-.35c.95-.251.251-.95.251-.95.352-.149.452-.049.452-.049.448-.251.6.3.6.3.352-.3.6-.1.6-.1-.75.7.151.95.151.95a.58.58,0,0,0,.552-.45,1.07,1.07,0,0,1-.251-.35,1.22,1.22,0,0,1,.4.249.245.245,0,0,1,.251-.3.658.658,0,0,1,.1.45c.151-.149.452,0,.452,0-.452.5.147.95.147.95.7.4.6-.75.6-.75a.4.4,0,0,1,.448.45l.3-.249a1.753,1.753,0,0,1,.1.5.375.375,0,0,1,.5-.049c-.8.5-.251.95-.251.95a.366.366,0,0,0,.452.049l-.047-.35.646.1-.646.75A11.241,11.241,0,0,0,115.624,100.4Zm1.553-8.352.646.4a1.778,1.778,0,0,1-.4.8A2.724,2.724,0,0,0,117.178,92.05Zm3.1.4c1.353-.35,2.252,1.449,2.252,1.449l-1-.4A9.551,9.551,0,0,0,120.274,92.451Zm1.353,1.349a3.35,3.35,0,0,1,.448,1.051,7.944,7.944,0,0,0,1.353,1,2.571,2.571,0,0,0-1.8-2.052Zm.648,1.652a2.023,2.023,0,0,1,1.2,2.5,1.533,1.533,0,0,0-.7-.85A2.809,2.809,0,0,1,122.275,95.451Zm.3,1.95a4.553,4.553,0,0,1-.1,1.1,5.546,5.546,0,0,1,.448,1.2,5.52,5.52,0,0,0,.452-1.4A1.787,1.787,0,0,0,122.578,97.4Zm-.2,1.6a6.9,6.9,0,0,1-.7,1.549l.251.3.3.2a1.706,1.706,0,0,0,.153-2.05Zm10.3,16.256-.448-1.7a.638.638,0,0,0-.9-.2,1.129,1.129,0,0,1-1,.147c-.6-.1-.1-.5-.1-.5a7.944,7.944,0,0,1,1.6-.75,5.081,5.081,0,0,0,1.7.2c.95-.147.75.65.75.65a10.646,10.646,0,0,1-.2,2.052,13.814,13.814,0,0,0-1.4.1Zm1.6.352.251.247-.75,1.349-.352-.2a3.813,3.813,0,0,0,.85-1.4Zm.45.347-.6,1.3a2.369,2.369,0,0,0,1.9-.552l-.151-.8a1.768,1.768,0,0,1-1.151.049Zm2.252-.552a6.536,6.536,0,0,1,.75.251,3.985,3.985,0,0,0-.251-2c.85.3.85-.051.85-.051.251-.7-.6-.9-.6-.9a4.8,4.8,0,0,0-1.952-.352,1.637,1.637,0,0,1,.051.65,2.189,2.189,0,0,1,.047.5,1.661,1.661,0,0,1,1.1,1.9ZM108.973,99.9v.4l.5-.35-.5,1.151-.049.7.8-1.7-.251-.45-.5.251Zm.151,2.15h.2l1.049-.8.1-.2.247.552h-.147l-.95.75.147.4.253.249-.352.149-.548-1.1Zm.9,2.2.151.6.247-.151.4-.147.347.247h.5l-.6-.4.452-.5-.2-.6-.1.247-.45.6-.6.149Zm.8,3.55c-.251.051-.151.2-.151.2.5.65.8.1.8.1a.772.772,0,0,0,.1-.5l-.147-.047c0,.6-.3.448-.3.448A.381.381,0,0,1,110.825,107.805Zm-.55.948-.1.652.2.352.1-.6.5.251-.251.5-.147.051.352.2.347-.8.151-.2h-.151l-1-.5Zm-9.854,5.5a.419.419,0,0,1-.452.352l-.552-.65c-.352-.552-.047-.7-.047-.7l.7-1a.92.92,0,0,1,.352.4l-.5.65c-.147.352.1.452.1.452Z" transform="translate(86.231 -73.731)" fill="#3d5065" fill-rule="evenodd"/>
  <path id="Path_617" data-name="Path 617" d="M112.453,111.557c.2.85-.65.65-.65.65-.3.6.151.6.151.6a.986.986,0,0,0,.95-.65.674.674,0,0,0-.452-.6Zm14.8-13.852-.6-.55a1.055,1.055,0,0,0,.4-.9s.352-.049-.347-.049l-.251.149s-.251-.1-.3-.251l-.1-.6.452-.55.4.049a13.563,13.563,0,0,1,1.7-1.631l.2.231c-.251.55.047.7.047.7.4.251.552-.249.552-.249.4.2.251-.049.251-.049a2.212,2.212,0,0,1-.934-.73c.515-.437.934-.771.934-.771a1.928,1.928,0,0,1,.65-.8,3.761,3.761,0,0,1-.452-1.1,1.518,1.518,0,0,1,1.449,1.3c3.853,3.052,1.453,7.853,1.453,7.853a11.773,11.773,0,0,0-3.753-1.551,3.2,3.2,0,0,1,1.2-1.151c1.654.051,1.4-1.95,1.4-1.95-.347-.7-.247.35-.247.35-.7,2.3-2.5.251-2.5.251-.2-.151,0,.35,0,.35.1.249.2.2.2.2l.151.149-1.249.5c-.2.3-.552.8-.552.8h-.151v0ZM104,93.754a11.99,11.99,0,0,0-4.65,2.05c-.3.2-.35.149-.35.149-.5.9.55,1.3.55,1.3a3.665,3.665,0,0,0,.4,2.4,4.617,4.617,0,0,1,.55,1.952,1.433,1.433,0,0,0,.45-.8,2.668,2.668,0,0,0,1.7,2.05,1.212,1.212,0,0,1,.8.6,2.925,2.925,0,0,0,.1-1,1.723,1.723,0,0,0,.75,1,7.356,7.356,0,0,1,.3-1.149,2.677,2.677,0,0,0,.1-1.9,1.1,1.1,0,0,0,.65.45,2.6,2.6,0,0,1,0-1.652,2.383,2.383,0,0,0-.2-1.5l-.1-.362a4.578,4.578,0,0,0-.106,1.613,3.273,3.273,0,0,1-.5-.149,4.243,4.243,0,0,1-.45,2.1,2.586,2.586,0,0,0-.4.95,4.5,4.5,0,0,0-1.85-1,6.222,6.222,0,0,1-.6-.9c-.2.35-.4.251-.4.251a4.421,4.421,0,0,0-.6-1.1,2.636,2.636,0,0,1-.35-1.2,10.479,10.479,0,0,0,.6,1.051c.35.2.35.9.35.9a.708.708,0,0,0,.35-.5,2.853,2.853,0,0,0,1.652,1.351,3.363,3.363,0,0,1,.75.55,2.022,2.022,0,0,1,.35-1.149,2.56,2.56,0,0,0,.249-2,.967.967,0,0,0,.7.55,2.759,2.759,0,0,1-.049-.85,6.331,6.331,0,0,0,.135-1.128l-.135-.523a3.929,3.929,0,0,1-.35-1.1.887.887,0,0,0-.4-1.3Zm-2.05,4.45a2.261,2.261,0,0,0,.95.75,2.045,2.045,0,0,0,.2-1.149.962.962,0,0,1-.65-.1c-.151.55-.5.5-.5.5ZM100,96c.7.2.95-.1.95-.1a.586.586,0,0,1,.85.5,1.257,1.257,0,0,0,.151.6,1.117,1.117,0,0,0,.75-.2c.2-.251-.1-.5-.1-.5a3.512,3.512,0,0,0-.2-.55c0-.8.552-.75.552-.75a.713.713,0,0,0,.6-.3.9.9,0,0,1-.55.95.51.51,0,0,0-.251.552c.35.6.049.65.049.65a.562.562,0,0,1-.388.331.527.527,0,0,0,.54.37,1.084,1.084,0,0,0,.55-.9c.249.7,0,.9,0,.9a.44.44,0,0,1-.151.65,1.711,1.711,0,0,1-.45,1.251c-1.7-1-1.75-2.15-1.75-2.15.55.95,1.1.5,1.1.5.108-.11.086-.429.065-.6a1.414,1.414,0,0,1-.466,0,.992.992,0,0,1-.249-.7c-.251-.552-.4-.1-.4-.1A.753.753,0,0,1,100,96Zm-11.553,17.2c1.4.85,6.553.85,6.553.85a32.467,32.467,0,0,0,7.653-.646,5.318,5.318,0,0,0,1.6-.452c.2-.051.1.352.1.352a5.594,5.594,0,0,0-.049,2.3c0,.8-.85.75-.85.75a65.38,65.38,0,0,1-13.053.5c-1.7-.3-1.752-1.2-1.752-1.2a2.709,2.709,0,0,0-.149-2.2C88.3,113.311,88.447,113.206,88.447,113.206Zm1.6,2.954.151-.151V114.56l-.1-.251c1.1-.047,1.449.4,1.449.4A.939.939,0,0,1,91,116.26a1.631,1.631,0,0,1-.948-.1Zm2.5-1.652.75.051c-.2.1-.149.4-.149.4l-.049,1.349.2.3-.8-.047c.2-.151.2-.251.2-.251v-1.449a.554.554,0,0,0-.151-.35Zm-1.85.051-.049,1.4a.567.567,0,0,0,.65-.4.841.841,0,0,0-.1-.6.619.619,0,0,0-.5-.4Zm3.4.1h1.449l.049.352a1.116,1.116,0,0,0-.45-.1h-.3v.552H95l.35-.1-.049.452-.249-.051h-.2v.6h.35a.547.547,0,0,0,.35-.151v.4l-1.1-.047h-.3c-.049-.051,0-.051,0-.051a.35.35,0,0,0,.2-.1v-1.549c-.049-.1-.249-.2-.249-.2Zm2.25-.051.75.051a.831.831,0,0,0-.1.247v1c.049.4.35.352.35.352.35-.051.3-.5.3-.5v-1l-.1-.1h.55a.239.239,0,0,0-.049.147v1.051a.806.806,0,0,1-.75.7.76.76,0,0,1-.75-.75v-1a.687.687,0,0,0-.2-.2Zm3.651-.2,1.2-.1.149.352a1.286,1.286,0,0,0-.35-.051h-.3v.5h.3a.653.653,0,0,1,.151-.1l.049.448a.31.31,0,0,0-.2-.1h-.3v.552h.35c.1,0,.251-.151.251-.151v.352l-1.151.151.1-.1-.049-1.6c0-.1-.2-.153-.2-.153Zm2.152-.2.049.4c.1-.2.45-.2.45-.2l.049,1.449-.1.1.6-.1-.1-.047-.049-1.449a.442.442,0,0,1,.45.047l-.049-.4-.051.047-1.149.1h-.1v.049h0Zm2.9-1.6a1.184,1.184,0,0,1-.1-1.1,1.109,1.109,0,0,1,1.151-.8c.5.3.452-.1.452-.1a.784.784,0,0,1,1.1-.3,1.137,1.137,0,0,0,.65.4c.352.452.151.7.151.7a.613.613,0,0,0,.1.452.552.552,0,0,1,.4.6,3.524,3.524,0,0,1-.251,1.449.584.584,0,0,1-.646.047c-.251.051-.151.151-.151.151.251.4,0,.6,0,.6a1.217,1.217,0,0,1-.95.4c-.8,0-.85-.4-.85-.4-.1-.347-.55-.347-.55-.347a1.013,1.013,0,0,1-.7-.85.5.5,0,0,1,.2-.5c.251-.147,0-.4,0-.4Zm1.351.452a.924.924,0,0,1-.247,1.051c-.4.051-.452-.251-.452-.251a.333.333,0,0,0-.251-.347c-.149-.6.151-.6.151-.6a.815.815,0,0,1,.8.151Zm.95-.3c.1.5.8.9.8.9.347,0,.2-.5.2-.5-.2-.251-.1-.4-.1-.4.5-.1.147-.552.147-.552-.95-.249-1.051.552-1.051.552Zm-.7-.8c0-.95-.6-.9-.6-.9a.354.354,0,0,0-.3.347c.1.5-.1.5-.1.5-.45.1-.149.6-.149.6.149.2.249.151.249.151a1.523,1.523,0,0,0,.8-.251C106.8,112.36,106.653,111.958,106.653,111.958Zm.652-1.051a.386.386,0,0,0,.4.251c.552,0,.2.552.2.552a1.128,1.128,0,0,1-.7.448c-.552-.646-.5-1-.5-1C106.7,110.357,107.3,110.907,107.3,110.907Zm-.352,2.4a.835.835,0,0,1,.7.9c-.2.352-.4.2-.4.2-.251-.247-.4-.047-.4-.047,0,.448-.352.147-.352.147-.2-1.051.45-1.2.45-1.2Z" transform="translate(74.898 -73.133)" fill="#3d5065" fill-rule="evenodd"/>
  <path id="Path_618" data-name="Path 618" d="M100.7,114.9a.968.968,0,0,0,.75-.9.736.736,0,0,0,.172-.08,1.567,1.567,0,0,1,.679.783,2.219,2.219,0,0,1,.5.6c-.051-.65-.352-.8-.352-.8a2.183,2.183,0,0,0-.536-.834,2.21,2.21,0,0,0,.384-1.214c.552-.2,1.051.5,1.051.5a.634.634,0,0,1-.4.051c.8.347.65,1.6.65,1.6a.71.71,0,0,1-.5-.151c.6.7,0,2.052,0,2.052a1.294,1.294,0,0,1-.7-.95c.1.5-.1.646-.1.646-.5-.1-.7-.75-.7-.75-.051.6-.352.352-.352.352-.147-.1-.147-.452-.147-.452-.249-.045-.4-.446-.4-.446Zm6.253-.55a3.468,3.468,0,0,1-.6-.2,5.671,5.671,0,0,1-.846,1.6,15.814,15.814,0,0,0,.7-1.66,4.967,4.967,0,0,1-1.2-.791c-.051.75-.85.347-.85.347a.606.606,0,0,0,.347.955,1.377,1.377,0,0,0,.9-.4c.7-.147.2.4.2.4a1.867,1.867,0,0,1-.8.347.537.537,0,0,0-.352.85c.4.552.8.352.8.352.352.047.352.3.352.3.251.6.65.251.65.251a.917.917,0,0,0,.2-1c-.251-.65-.1-.9-.1-.9-.151-.9.251-.251.251-.251a2.572,2.572,0,0,1,.2.552c.147.347.2.1.2.1Zm-7.8-4.3.3-.548a1.365,1.365,0,0,0-.65-.95.615.615,0,0,0,0,.448,2.871,2.871,0,0,0-1.2-.75,1.776,1.776,0,0,0,0,.75,1.791,1.791,0,0,0-1.4-.9,1.113,1.113,0,0,0,.2.65,2.265,2.265,0,0,0-1.351-.251,2.728,2.728,0,0,0,.9,1.5l-.1.251c-.55-.4-.7-.1-.7-.1-.049.047,0,.147,0,.147a3.734,3.734,0,0,0,1.4.95.672.672,0,0,0-.4.352c.4.8,1.6.75,1.6.75a2.829,2.829,0,0,1,.031-1.664,8.491,8.491,0,0,1-1.03-.738,5.614,5.614,0,0,0-.6-.6l-.7-.552a4.211,4.211,0,0,1,.95.5,10.813,10.813,0,0,0,1.545,1.1,1.489,1.489,0,0,1,1.206-.35Zm20.407,2.6a9.845,9.845,0,0,1,.1,2.9c5.6,2.148,15.205.846,15.205.846,1.6-.2,1.654-.448,1.654-.448.6-.051.5-.95.5-.95a7.49,7.49,0,0,1-.552-2.252c-1.3.75-8.65.95-8.65.95C121.86,113.854,119.56,112.652,119.56,112.652Zm.7.75.552.1.3,1.1.6-.85.5.047-.047.151v1.6l.1.2-.7-.1.1-.151v-.85l-.65.85-.452-1.051v.95l-.4-.2.047-.1.051-1.453Zm2.651.75a1.191,1.191,0,0,0,0,1.7.98.98,0,0,0,1.149,0,1.192,1.192,0,0,0-.051-1.7C123.258,113.754,122.911,114.152,122.911,114.152Zm.55.049c-.85.4-.251,1.3-.251,1.3.2.452.5.1.5.1.4-.4.1-1.051.1-1.051C123.708,114.1,123.46,114.2,123.46,114.2Zm1.3-.1h.4l.65.9-.051-.7-.051-.147.65.047-.1.151v1.7l.051.147h-.352l-.7-1.051v.7l.047.2-.5-.051.047-.247.051-1.453Zm3.154.1h.7c.75,0,.9,1,.9,1a.994.994,0,0,1-1.055,1.051l-.548-.051.2-.147-.051-1.7-.147-.153Zm.6.251v1.6a.892.892,0,0,0,.5-1C128.863,114.453,128.511,114.453,128.511,114.453Zm1.349-.251.3-.047a1.394,1.394,0,0,1,.9-.051.729.729,0,0,1-.051,1.051l.452.7a.331.331,0,0,1,.2.147.443.443,0,0,1-.4,0,1.312,1.312,0,0,1-.552-.7h-.247v.75l.047.147h-.5l.047-.147-.047-1.752-.151-.1Zm.6.9v-.8a.21.21,0,0,1,.347.051.511.511,0,0,1,0,.65c-.1.149-.347.1-.347.1Zm2.2-1.249c.95-.051.95,1.2.95,1.2a1.032,1.032,0,0,1-1,1c-.85-.1-.9-1.149-.9-1.149.147-1.151.948-1.051.948-1.051Zm0,.3c.5.047.452.8.452.8a.755.755,0,0,1-.452.85c-.251.051-.352-.3-.352-.3-.3-.95.1-1.249.1-1.249.053-.1.251-.1.251-.1Zm1.249-.352.7-.047-.1.2.051,1.748.1.1-.6.051.047-.1-.047-1.8-.151-.151Zm1.2-.151.047.5.151-.151.251-.047v1.6l-.051.147.5-.1-.047-.151V113.8h.347l-.047-.4-.1.047-.9.2h-.149ZM114.659,111.4a2.7,2.7,0,0,0,.059.36.674.674,0,0,1,.067-.037c.159-.444.072-.623.072-.623L115,111a1.257,1.257,0,0,1-.051.658,1.04,1.04,0,0,1,.419-.043,2.29,2.29,0,0,0,.084-.715l-.719-.088A.858.858,0,0,0,114.659,111.4Zm.123.587a2.337,2.337,0,0,0,.536.905c.231-.176.18-.85.151-1.1a.948.948,0,0,0-.687.2Zm.648,1.018a2.668,2.668,0,0,0,.679.452,1.717,1.717,0,0,0,.112-.814,2.492,2.492,0,0,0-.707.135A1.617,1.617,0,0,1,115.43,113.008Zm.842.519a1.835,1.835,0,0,0,.235.076,1.457,1.457,0,0,0,.444,0l-.037-.456a1.414,1.414,0,0,0-.574.208l-.067.172Zm.838.035a.75.75,0,0,0,.482-.587.885.885,0,0,0-.474-.041Zm.5-.787a2.24,2.24,0,0,0-.531-1.486,2.06,2.06,0,0,1,.084.9l.247-.092.047.151-.347.043a1.676,1.676,0,0,1-.012.491.729.729,0,0,1,.513-.008Zm-.658-1.617a2.323,2.323,0,0,0-.636-.411,1.049,1.049,0,0,1,.147.615A1.028,1.028,0,0,1,116.95,111.158Zm-.926-.521a2.861,2.861,0,0,0-.715-.135.806.806,0,0,0-.474.2l.734.051Zm-.431.286a.953.953,0,0,1,.008.54.945.945,0,0,1,.711-.033,1.177,1.177,0,0,0-.147-.619Zm.91.683a1.063,1.063,0,0,1-.029.687.768.768,0,0,1,.54-.088,1.4,1.4,0,0,0-.1-.766.6.6,0,0,0-.407.168Zm-.1.9a1.363,1.363,0,0,1-.016.687.758.758,0,0,1,.554-.288,1.152,1.152,0,0,0,.072-.507A1.859,1.859,0,0,0,116.407,112.5Zm-.076-.807a1.1,1.1,0,0,0-.758.051,2.661,2.661,0,0,1-.012.83,1.245,1.245,0,0,1,.719-.135,1.363,1.363,0,0,0,.051-.746ZM103.955,96.545l-.85-2.7.448-1.2.5,1.95-.452-.2a.993.993,0,0,0,1.6.75c.552-.6.047-.8.047-.8-.646-.352-.75.049-.75.049-.448-1.7.7-1.051.7-1.051-.051-1.1.4-1.2.4-1.2.6.2.6,1.151.6,1.151.65-1.051,1.055.049,1.055.049a1.022,1.022,0,0,1-.051.45.631.631,0,0,0-.9.552c-.1.55.9.7.9.7a1.759,1.759,0,0,0,1.2-1.652,2.81,2.81,0,0,0-.95.6v-2.25a2.335,2.335,0,0,0,1.051.85,2.935,2.935,0,0,0-.7-1.549l2.1-.049a2.2,2.2,0,0,0-.65,1.6,1.37,1.37,0,0,0,.9-.7l.051,1.95c-.452-.7-.9-.4-.9-.4a1.212,1.212,0,0,0,1.1,1.549.858.858,0,0,0,.95-.75c-.2-.9-.8-.4-.8-.4-.247-1.5.85-.85.85-.85-.4-1,.3-1.351.3-1.351A1.039,1.039,0,0,1,112.153,93c1.153-.6.95.85.95.85-1.1-.5-.95.65-.95.65.5,1.2,1.5.3,1.5.3a1.714,1.714,0,0,0,.251-.6l-.452.1.452-1.549.4.8.3-.85.251.3L113.4,96.646a27.623,27.623,0,0,0-9.445-.1Zm7.45-.7c-.247-.049-.5-.151-.448-.251,0-.149.2-.2.5-.149.247.049.5.149.452.249C111.908,95.846,111.7,95.9,111.4,95.846ZM106,95.9c.251-.049.452-.149.452-.3,0-.1-.251-.149-.5-.1-.3,0-.5.149-.5.249S105.7,95.947,106,95.9Zm2.751-1,.7.6-.7.45-.646-.45Zm9.4,7.851a4.728,4.728,0,0,1,.448-1.5l-.583-.625-.2.36a.563.563,0,0,1-.139.926l-.047.213.521.625Zm-.294-2.293L116.407,98.9c-1-1.451-1.7-.75-1.7-.75l-.7.251a2.67,2.67,0,0,1,.85.95c.6-.1.65.2.65.2l1.549,1.874V101.4a.509.509,0,0,1,.452-.55.4.4,0,0,1,.168.037l.188-.433Z" transform="translate(81.847 -72.726)" fill="#3d5065" fill-rule="evenodd"/>
  <path id="Path_619" data-name="Path 619" d="M105.588,95.822c-.352-.4-.6-.7-.75-.55a13.75,13.75,0,0,1,.8,1.9,6.54,6.54,0,0,1,.4,2.4l.746.051.2.025-.067-.384a.529.529,0,0,1-.376-.54c0-.352.2-.6.452-.6a.139.139,0,0,1,.041,0l.092-.431c-.125-.147-.251-.307-.384-.47-.2-.251-.452-.5-.65-.752-.149-.247-.354-.448-.5-.648Zm1.6,3.849.8.1a1.665,1.665,0,0,1-.1-1.153l-.531-.638-.059.272a.646.646,0,0,1,.192.47.566.566,0,0,1-.343.515l.039.429Z" transform="translate(92.067 -68.3)" fill="#3d5065" fill-rule="evenodd"/>
  <path id="Path_620" data-name="Path 620" d="M103.467,105.962c.352.5,1.4.352,1.4.352.151-.1.1-.7.1-.7a1.138,1.138,0,0,1-.047-.552c.247.047.3.347.3.347a5.218,5.218,0,0,1-.151.6c1.1-.7.151-2.052.151-2.052a3.613,3.613,0,0,1,.6-1.748c1.149-1,1.752-.65,1.752-.65a11.188,11.188,0,0,1,2.651.552c.646.2,2.949.6,2.949.6a.8.8,0,0,1,.2-.4c.65-.452,1.1-2.6,1.1-2.6,0-.347.151-.2.151-.2a1.157,1.157,0,0,1,.051.552,5.421,5.421,0,0,1-.5,2.1,6.9,6.9,0,0,0,3.254.552,5.26,5.26,0,0,0,2.6-.75,7.159,7.159,0,0,1,3.05-.452l-.047-.3c-1.249-.552-.4-1.2-.4-1.2l-.5-.7c-1.349-.1-5.549-2.3-5.549-2.3-3.6-2-5.5-1.652-5.5-1.652a6.365,6.365,0,0,0-1.3,4.4l.9.1a3.854,3.854,0,0,1,1.1-2.9c.352-.149.1.251.1.251a3.636,3.636,0,0,0-.75,3.15,25.591,25.591,0,0,0-3.853-.4,2,2,0,0,0-1.6.247,3.1,3.1,0,0,0-.85,1.3l-.65,2.252a6.876,6.876,0,0,0-.7,2.193Zm13.956-5.852a8.676,8.676,0,0,1-.85,2.2c.1.347.5-.2.5-.2a6.238,6.238,0,0,0,.6-1.9C117.57,99.364,117.423,100.11,117.423,100.11Zm-1.654-.7a6.259,6.259,0,0,1-1,2.551c-.151.4.3.1.3.1a6.706,6.706,0,0,0,.85-2.551c-.051-.452-.151-.1-.151-.1Zm.8.452a4.766,4.766,0,0,1-.95,2.2c-.2.352.247.151.247.151a4.32,4.32,0,0,0,.95-2.4C116.72,99.26,116.573,99.863,116.573,99.863Zm5.5,2.048a2.248,2.248,0,0,1,1.1-.092l.108.536a.668.668,0,0,0-.36.611.611.611,0,0,0,.552.646h.047v.779a9.916,9.916,0,0,1-1.649.376c-.85.2-.251.7-.251.7a1.793,1.793,0,0,1,.552.75c.4.452-.251.8-.251.8a7.461,7.461,0,0,0-2.851,1.6,17.183,17.183,0,0,1-2.6-.047,2.964,2.964,0,0,1-.7-1,.718.718,0,0,1,1.051.1,2.725,2.725,0,0,0,1.3.151c.75-.4,1.852-.9,1.852-.9a.756.756,0,0,1,.5-.1c.3-.1-.051-.352-.051-.352a6.847,6.847,0,0,1-1.349-1.249c-.4-.65,0-.95,0-.95a25.637,25.637,0,0,1,3-2.355Zm1.41,0a1.67,1.67,0,0,1,.791.65c.3.65.2.8.2.8a1.14,1.14,0,0,0,0,.6,4.032,4.032,0,0,1-.7.339v-.8a.7.7,0,0,0,.247-.54.623.623,0,0,0-.511-.65Z" transform="translate(90.635 -68.188)" fill="#3d5065" fill-rule="evenodd"/>
  <path id="Path_621" data-name="Path 621" d="M154.376,102.93a6.242,6.242,0,0,0,.051-2.2c-.352-.75-.7-.9-.7-.9,0-2.148-1.3-2.449-1.3-2.449a2.93,2.93,0,0,0,.247.95c.1.2-.247-.051-.247-.051a1.421,1.421,0,0,0-.7-1.051,2.669,2.669,0,0,1-.75-.65c-.552.9.9,1.852.9,1.852a33.571,33.571,0,0,0-6.152.7,5.993,5.993,0,0,1-4.3-.3,1.7,1.7,0,0,1-1-2.2,2.536,2.536,0,0,1,2.4-1.351,8.926,8.926,0,0,1,2.4.4,10.344,10.344,0,0,0,4.951-.1,3.4,3.4,0,0,0,1.649-1.85,2.937,2.937,0,0,1-1.8.45c-.646.6-2.751.7-2.751.7,1.4-.55,1.353-1.1,1.353-1.1a2.378,2.378,0,0,1,.646-.8,5.211,5.211,0,0,0-1.848.95,4.848,4.848,0,0,1-2.152.452,1.329,1.329,0,0,1-.7-.049c1-.3,1.051-.7,1.051-.7a5.7,5.7,0,0,0-4.4.8c-2,1.652-1.4,3.3-1.4,3.3.347,1.6,3.2,2.1,3.2,2.1a34.736,34.736,0,0,0,5.8-.3c2.4-.3,3.05.051,3.05.051.3.2,0,.247,0,.247-1.453-.2-1.9,1.5-1.9,1.5a2.6,2.6,0,0,1,2.351-.8c.247.047,0,.1,0,.1a1.587,1.587,0,0,0-1.2.352,2.007,2.007,0,0,0,1.649.347,1.034,1.034,0,0,0,.6-.5,2,2,0,0,1,.3,2.1,2.217,2.217,0,0,1-1,.85,7.464,7.464,0,0,1-3.5-.4,4.205,4.205,0,0,0-1.65-.251c-.151-.047-.4-.147-.6-.2a39.14,39.14,0,0,0-4.3-.85l.251.352c.4.1.6.3.65.5a.667.667,0,0,1-.051.4,1.243,1.243,0,0,1-.251.4l.2.4a1.656,1.656,0,0,1,1.3,1.9,2.469,2.469,0,0,0,.9,1.748,4.616,4.616,0,0,0,3.45,1.249c.6,0,.7.151.7.151.6.352.5,1.952.5,1.952a4.028,4.028,0,0,1-.3,1.349c.2.5,1.2.251,1.2.251a.39.39,0,0,0,.2-.251.709.709,0,0,0-.151-.6c-.1-.151,0-.1,0-.1a1.117,1.117,0,0,1,.6,1.051,1.372,1.372,0,0,0-.4-2.1c-.2-.047-.352-.1-.352-.1a14.924,14.924,0,0,1-.2-1.948v-.352l-.5-.552a3.714,3.714,0,0,1-2.4-.147,4.918,4.918,0,0,0,.047-.65,19.478,19.478,0,0,0-.2-3.1,23.059,23.059,0,0,0,2.7.6,4.755,4.755,0,0,0,1.649.2c1.3.3.9,1.2.9,1.2,1.051-.85.147-1.449.147-1.449a1.866,1.866,0,0,0,1.153-1.5Zm-69.868.5a3.28,3.28,0,0,1,.249-2.4,5.984,5.984,0,0,1,3.1-2.551,3.084,3.084,0,0,1,2.4-1.449,3.339,3.339,0,0,1-.552.75,4.3,4.3,0,0,0,1.7-.95,1.814,1.814,0,0,1-1.051,1.6,45.871,45.871,0,0,0,9.1-.1,2.3,2.3,0,0,0,2.05-2.351c-.45-1.8-2.7-.75-2.7-.75-4.752,2.751-7.052-.9-7.052-.9a12.45,12.45,0,0,0,3.4.45,7.4,7.4,0,0,1-1.95-1.6,2.17,2.17,0,0,1,1.051.4,4.858,4.858,0,0,0,2.551.5c-.4-.45-1.051-1.2-1.051-1.2a4.481,4.481,0,0,0,1.6.35c.5.049.9.1.9.1a2.912,2.912,0,0,0,1.3,0,3.1,3.1,0,0,1,2.851,2.6c.249,3-3.2,3.25-3.2,3.25-1.4.4-9.153.3-9.153.3a1.823,1.823,0,0,1,1,1.1,2.872,2.872,0,0,0,.35.6c-.8.047-1.6-1-1.6-1a8.354,8.354,0,0,0,.9,1.249c-.45.2-1.4-.95-1.4-.95a2.044,2.044,0,0,0-2.8.051c-1.4,1.1-1.151,2.048-1.151,2.048a1.124,1.124,0,0,0,.35.85,1.731,1.731,0,0,0,1.4.5,9.193,9.193,0,0,0,2.7-.5,8.116,8.116,0,0,0,1.551-.6,2.022,2.022,0,0,1,.45.051,1.984,1.984,0,0,1,1.1-.251c2.2-.2,8.5-2.5,8.5-2.5a13.022,13.022,0,0,0,2.4-2c.55.35.9,1.652.9,1.652a.932.932,0,0,0,.349-.452c.3,1.1,1.8,1.7,1.8,1.7a1.39,1.39,0,0,1,.8.5l.149-.452a21.71,21.71,0,0,0,3.252,2.351q1.58,1.082,3.2,2.1c1.349-1.5,2.3-.6,2.3-.6a.535.535,0,0,1-.452.151,1.656,1.656,0,0,0-1.149.347c1.654-.247,1.952.3,1.952.3.347.8-.8,1.2-.8,1.2a.992.992,0,0,0-1.051-1.051,1.382,1.382,0,0,1,.75,1.149c-.352.95-1.2.2-1.2.2a4.894,4.894,0,0,1-.75-.552,10.716,10.716,0,0,1-4.8-1.852l-1.251.552a5.374,5.374,0,0,1-1.6-1.952c-.149-.247-.249-.448-.249-.448v.448a3.825,3.825,0,0,0,.6,1.3c-2.15,2.451-6,.251-6,.251-.45-.151-1.852-.9-1.852-.9a6.877,6.877,0,0,0-5.852,3.552l-.3.5c-.3,2.252-1,2.252-1,2.252a.967.967,0,0,0-.5-1.249,14.751,14.751,0,0,1-2,.047,2.719,2.719,0,0,0-.151,2.751c1.75-.047,1,1.349,1,1.349a.611.611,0,0,1-.55.452,1.2,1.2,0,0,0-1.3-1.349c1.149.452.9,1.149.9,1.149-.3-.051-.6.452-.6.452a3.28,3.28,0,0,1-1.449-3.05c.2-3.452.95-4.1.95-4.1.251-.1.35.051.35.051a2.833,2.833,0,0,0,1.75.047c.4-.1.5-.9.5-.9a5.938,5.938,0,0,1,1.2-2.5c-.65.3-4.3,1.253-4.3,1.253a2.974,2.974,0,0,0-2.15,1.848c-1.1-1.349.65-2.1.65-2.1a1.724,1.724,0,0,1-1.347-1.1Zm19.555-1.149a9.1,9.1,0,0,0,1.8,2.052,2.606,2.606,0,0,0,.4.3.614.614,0,0,1-.35.1,5.884,5.884,0,0,1-1.9-2c-.251-.5.049-.45.049-.45Zm-1.652,1.049a8.517,8.517,0,0,0,.95,1.051,3.673,3.673,0,0,0,1.151.9,2.819,2.819,0,0,1-2.1-1.449c-.2-.4-.149-.552-.149-.552l.149.049Zm.85-.65a5.534,5.534,0,0,0,1.85,2c.35.1.251.347.251.347-.3.051-.4-.1-.4-.1a3.16,3.16,0,0,1-1.8-1.948c-.251-.55.1-.3.1-.3Z" transform="translate(70.685 -70.757)" fill="#3d5065" fill-rule="evenodd"/>
</svg>
