<svg id="Group_106" data-name="Group 106" xmlns="http://www.w3.org/2000/svg" xmlns:xlink="http://www.w3.org/1999/xlink" width="382.016" height="75.727" viewBox="0 0 382.016 75.727">
  <defs>
    <clipPath id="clip-path">
      <rect id="Rectangle_1686" data-name="Rectangle 1686" width="382.016" height="75.727" fill="#3d5065"/>
    </clipPath>
  </defs>
  <g id="Group_91" data-name="Group 91" transform="translate(0 0)" clip-path="url(#clip-path)">
    <path id="Path_426" data-name="Path 426" d="M237.9,54.528l-.634-.012-.012-1.9a1.1,1.1,0,0,1,1.022.308,1.079,1.079,0,0,1-.376,1.6m1.465-2.048a10.656,10.656,0,0,0-3.821-.375c0,.139-.032.272.038.375a1.979,1.979,0,0,1,.413.088v1.949a1.553,1.553,0,0,0-.413.045c0,.137-.038.273.032.374,1.194-.066,2.353.342,3.48-.033a1.663,1.663,0,0,0,.783-1.4,1.2,1.2,0,0,0-.512-1.025" transform="translate(-92.314 -20.421)" fill="#3d5065"/>
    <path id="Path_427" data-name="Path 427" d="M244.912,26.945l.376.137s-.149.291-.062.441c.1.185.286.377.471.275a.625.625,0,0,0,.343-.716h.271l.039.246c-.038.443-.172.761-.771.728-.55-.03-.749-.612-.667-1.11M246.1,28.6c-.005-.01.468.148.468.148l.146.193.227-2.614-.227-.182a1.379,1.379,0,0,1-1.111.481c-.421,0-.871-.089-1.239-.1.134.443-.06.965.216,1.48a1.471,1.471,0,0,0,1.52.6" transform="translate(-95.772 -10.245)" fill="#3d5065"/>
    <path id="Path_428" data-name="Path 428" d="M251.722,26.857h.271a.632.632,0,0,0,.338.72c.189.1.368-.093.475-.278.087-.15-.064-.442-.064-.442l.378-.134c.079.5-.12,1.077-.669,1.108-.6.033-.731-.286-.766-.728Zm.947,1.349c.866-.125.926-1.312.893-2.131a2.709,2.709,0,0,1-1.329.4,1.476,1.476,0,0,1-1-.5l-.195.1.513,2.694a1.591,1.591,0,0,1,1.119-.562" transform="translate(-98.387 -10.179)" fill="#3d5065"/>
    <path id="Path_429" data-name="Path 429" d="M259.853,39.031a1.333,1.333,0,0,0-.714-1.227.975.975,0,0,0-.923.036c-.443.239-.41.715-.341,1.089.1.172.239.376.477.309.443-.272-.343-.783.306-.955.307-.035.48.341.583.545a1.2,1.2,0,0,1-.617,1.194,1.89,1.89,0,0,1-1.364-.1,1.941,1.941,0,0,1-.818-1.4,1.976,1.976,0,0,1,1.159-1.878c1.569-.749,2.7.651,3.818,1.638a2.047,2.047,0,0,0-1.567.748m-6.311-4.091a1.763,1.763,0,0,1,.037-1.6,2.205,2.205,0,0,1,1.4-1.093,2.611,2.611,0,0,1,2.15.648,26.636,26.636,0,0,1,2.181,3.138,2.762,2.762,0,0,0-2.8.581,3.52,3.52,0,0,0-.545,1.261,23.27,23.27,0,0,0-2.423-2.933m-7.534,3.138a13.292,13.292,0,0,0-5.732.716,18.321,18.321,0,0,0,.139-3.616c.988-1.261,2.694-1.124,4.226-1.225a31.547,31.547,0,0,1,7.674.987c.547,1.57,2.319,2.627,2.933,4.16-3.136.272-6.069-.853-9.24-1.022m-.886,1.774a11.957,11.957,0,0,1-4.435-.41,8.9,8.9,0,0,1,4.159-.785l.341.036c-.1.375,0,.782-.064,1.16m-10.438,0-11.629-2.081a16.531,16.531,0,0,0-5.012.033,9.475,9.475,0,0,0,.271-3.24c.172-.578.853-.544,1.3-.817,1.908-.477,3.92,0,5.8.207A116.252,116.252,0,0,0,239.732,36.2a25.962,25.962,0,0,1-.07,3.308c.344.546.955.513,1.468.648a33.812,33.812,0,0,1-6.445-.306m-12.072-.443a15.21,15.21,0,0,1-4.5-.581l-.169-.2a7.855,7.855,0,0,1,4.7-.24ZM203,39.442a34.495,34.495,0,0,0,4.4-1.74,31.614,31.614,0,0,1-4.4-2.285,116.136,116.136,0,0,0,14.7.41c.035,1.09-.407,2.114-.3,3.1.545.683,1.361.615,2.077.822A88.448,88.448,0,0,1,203,39.442m10.062-7.912a19.667,19.667,0,0,0,4.3-.887c1.366-.207,2.728.066,3.958-.375.066.68.443,1.329.168,2.046l-1.875.2a3.127,3.127,0,0,0-2.047,1.364c-.167-.238.136-.818-.373-.818a.4.4,0,0,0-.376.238c.032.138.134.308.069.444a.54.54,0,0,0-.341.853c-.069.068-.2.033-.274.033-.341-.238-.207-.716-.579-.921-.137-.272.239-.443,0-.648a.513.513,0,0,0-.615,0c-.2.376.1.921-.512,1.022l.137.615c-.443.2-.477-.342-.615-.547-.067-.341-.477-.544-.169-.886.1-.17-.137-.307-.274-.307a.387.387,0,0,0-.41.238c.241.41-.24.582-.511.682l.067.819c-.34,0-.443-.374-.545-.615.068-.34-.376-.272-.41-.58.238-.749.308-1.773,1.228-1.976m6.751-8.252c.343-2.319,2.728-3.48,4.126-5.082.035.987-.749,1.671-1.4,2.319Zm3.1-6.514c-.035,1.361-1.5,2.078-2.455,2.829a4.9,4.9,0,0,1,2.455-2.829m.714-1.161a3.344,3.344,0,0,1,2.8.889c.08-.133.271-.206.338-.345a.206.206,0,0,0-.032-.134,9.158,9.158,0,0,1,2.075-.441,10.868,10.868,0,0,1,2.6.2c.035.138.168.341.34.341.443-.239.679-.749,1.161-.956a3.85,3.85,0,0,1,1.363-.2,2.852,2.852,0,0,1-.716,1.74c-.207.272-.647.1-.716.443.784,1.089.682,2.8.408,4.093a1.264,1.264,0,0,1-.821.715,2.014,2.014,0,0,1-.5.07l-.043.2.687.435-.062.4-.654-.307-.094.345.671.435-.07.331-.684-.272-.134.41.689.415-.137.611-2.085-.807s0-.925,0-.934a1.49,1.49,0,0,0,.783-.853c.035-.2.1-.546-.1-.717a2.416,2.416,0,0,1-1.271.455,1.973,1.973,0,0,1-1.286-.285.852.852,0,0,0,.134.988,1.725,1.725,0,0,0,.739.438v.986l-1.965.929-.179-.538.63-.392-.139-.474-.652.379-.134-.319.709-.454-.159-.434-.724.389-.082-.251.708-.532s-.04-.255-.044-.275c-.582-.07-1.3-.2-1.5-.887a9.88,9.88,0,0,1-.308-3.479c.032-.17.443-.272.169-.443-.988.036-1.4-1.091-1.706-1.772Zm1.435-2.659a.505.505,0,0,1-.333-.406,6.525,6.525,0,0,1,1.56-.924c.035.007-.035.685,0,.688-.057.155-.192.046-.41.325a.457.457,0,0,0,.34.68,3.452,3.452,0,0,1,.373-.024c.139.411-.162.6-.475.749-.446.216-.647-.375-.647-.375l.341-.17-.443-.851s-.149.365-.308.306m6.992,1.568a.769.769,0,0,1-.2.24,12.465,12.465,0,0,0-5.833.338.817.817,0,0,1-.274-.2,10.961,10.961,0,0,1,6.311-.375m-1.264-3.24c-.01-.005-.365.617-.376.648-.206.035-.547-.077-.579.264-.172.478.172.828.547.691a.654.654,0,0,1-.411.579.612.612,0,0,1-.758-.328l.007-.216.348.012-.007-1.065-.373,0,.032-.41a2.07,2.07,0,0,0-.538-.074c-.189.021-.443.077-.443.077v.472l-.313,0-.01,1.031.418-.007s.015.532-.306.613c-.527.133-.691.06-.794-.28l-.027-.231s.485.012.473-.391c-.008-.249-.033-.527-.324-.559-.2-.024-.239.088-.448.088-.027-.03-.2-.707-.212-.741a6.7,6.7,0,0,1,4.092-.17m.309,1.638a.473.473,0,0,0,.716-.377c.02-.29-.326-.464-.564-.5l-.05-.662,1.465.646-.1.446-.445-.206-.268.817.306.137a.67.67,0,0,1-.853.41c-.284-.064-.306-.444-.2-.716m7.537,8.7c-1.436-1.431-4.095-1.978-4.264-4.263,1.261,1.67,3.783,2.013,4.264,4.263m-.547-2.967c-.991-.683-2.829-1.09-2.9-2.7,1.366.308,2.187,1.569,2.9,2.7m-2.08,10.846c-.853-.24-2.044-.24-2.629-1.231a2.853,2.853,0,0,1-.269-2.623c.032,1.7,1.805,2.761,2.9,3.854m1.229-.105c-1.229-1.838-4.025-3.034-3.684-5.626.614,2.149,4.089,3.036,3.684,5.626m-2.728-9.752c1.293,1.67,4.025,2.557,3.888,4.98-1.16-1.74-3.888-2.627-3.888-4.98m3.442,7.434c-1.194-1.91-4.263-2.829-3.751-5.388.885,1.977,3.82,2.933,3.751,5.388m-9.617.716.411-.032a2.276,2.276,0,0,0-.685,1.467l-.853.033c.239-.479.443-1.264,1.127-1.467m2.251,1.195-1.435.134a1.875,1.875,0,0,1,.617-1.431c.58.172.716.785.818,1.3m2.046-.068-.988-.1a2.625,2.625,0,0,0-.716-1.162c.818-.136,1.331.683,1.7,1.264m-1.4-2.252-3.069.17a.361.361,0,0,1-.169-.576,3.147,3.147,0,0,1,1.706-.887,3.05,3.05,0,0,1,1.806.817.359.359,0,0,1-.274.477M224.285,31.5l-.035,1.091-.617-.068a1.629,1.629,0,0,1,.652-1.023m-.583-.75c.411-1.5,2.732-2.59,2.525-4.537a2.481,2.481,0,0,1,.271,2.081c-.407,1.228-1.911,1.638-2.8,2.456m-.783,1.7-.647-.066a1.661,1.661,0,0,1,.341-.41c.2.033.2.308.306.476m-.376-2.18c-.577-1.841,1.468-3.036,2.251-4.536a5.7,5.7,0,0,0,.684-1.638c.816,2.593-1.98,4.093-2.935,6.174m-1.911-4.3c-.373-2.489,2.391-3.887,3.41-5.659-.1,2.319-2.487,3.719-3.41,5.659m3.923-3.614c.684,2.627-2.627,3.956-3.037,6.309-.443-2.659,2.114-4.159,3.037-6.309m15.552,5.118c.271-.376,0-.854-.067-1.264l-.513-1.7c3.478.647,6.547,2.626,10.163,3.136a2.1,2.1,0,0,0,1.261,1.162l1.226.1a5.081,5.081,0,0,0,1.16,2.932,8.692,8.692,0,0,0-1.16,1.775c-2.967-.443-5.968-1.162-9.173-.82a3.307,3.307,0,0,0,0-2.728c-.51-.375-.684-1.228-1.433-1.3-.51.581.547,1.023.547,1.67A2.832,2.832,0,0,1,241.674,33c-.749.374-2.077.785-2.044,1.943a35.438,35.438,0,0,1-4.742-.511c-.714-.614-1.194-1.638-2.25-1.467a.792.792,0,0,0-.679-.069c.134.614-.924.446-.481,1.092-.579.241-.372-.716-.783-.921.07-.306.443-.783-.069-.919-.237-.036-.41.2-.443.374.34.649-.851.545-.373,1.194-.2.1-.478-.17-.512-.374.067-.376-.513-.581-.2-.991a.255.255,0,0,0,0-.407c-.1-.24-.378-.069-.513,0-.274.3.239,1.057-.513.988l-.032.443c-.683.171-.341-.716-.853-.887.032-.34.579-.751.067-.989a.536.536,0,0,0-.51.376c0,.305-.139.647-.513.647l-.032.545c-.684.1-.308-.783-.818-.989a2.159,2.159,0,0,1,1.057-1.74c2.793.273,5.761-1.293,8.251.411,1.124-.614,2.933.716,3.512-.956l.241-1.023a11.4,11.4,0,0,0,1.09.887c.306-.273,0-.578-.032-.85a10.386,10.386,0,0,1-.649-2.557c.513.238.751.918,1.261,1.226m10.641-1.878a2.266,2.266,0,0,1,1.774-.887,2,2,0,0,1,1.637.819c.988,1.4-.547,3.8,1.465,5.629-.477-.138-.851.134-1.3.1-1.229-1.093-1.092-2.866-.921-4.4a1.275,1.275,0,0,0-.614-.853,1.033,1.033,0,0,0-1.192.443c-.035.272.032.716.371.784.139,0,.241-.137.308-.239a.589.589,0,0,1-.1-.41.46.46,0,0,1,.513-.066c.274.238.171.544.069.853a1.316,1.316,0,0,1-1.3.375,1.663,1.663,0,0,1-.819-.785,1.709,1.709,0,0,1,.1-1.366m.1-4.126c-2.658.341-6.447,2.866-8.46-.273a3.183,3.183,0,0,1,.308-3.375c2.423-2.561,5.627.272,8.423-.513a1.711,1.711,0,0,0,.818-1.329l-.032-.683a1.962,1.962,0,0,1,.1,1.842,1.791,1.791,0,0,1-1.057.987c-2.423.379-4.639-1.465-6.992-.374a2.42,2.42,0,0,0-.987,1.911,1.874,1.874,0,0,0,.51,1.4c2.012,1.707,4.365-.2,6.48-.408a3.094,3.094,0,0,1,3,1.024,2.986,2.986,0,0,1-.443.476,2.812,2.812,0,0,0-1.672-.682m-1.979-1.022c-1.329.2-2.59.988-3.955.578-.376-.171-.341-.647-.2-.956.376-.508,1.022-.2,1.569-.236Zm3.206-1.468a2.879,2.879,0,0,1-2.251.444c-2.012.033-4.024-1.672-5.866-.273l-.2.306a1,1,0,0,1,.578-1.127c2.664-1.261,7.435,2.968,8.256-1.772a2.14,2.14,0,0,1-.513,2.421m3.092,1.949a1.414,1.414,0,0,1,1.227-.1,1.578,1.578,0,0,1,.988,1.227c-.033,2.082-.918,3.625-.784,5.969a12.652,12.652,0,0,0,.649,3.683c-1.943-1.393-2.06-2.849-2.012-5.423a2.408,2.408,0,0,0-1.348-1.874,2.828,2.828,0,0,0-1.585-.24,23.262,23.262,0,0,0,2.865-3.24m2.694-4.078a2.565,2.565,0,0,0,2.261,1.628c-.783.716-1.023,2.048-2.219,2.252a1.728,1.728,0,0,1-1.7-1.195c-.41-1.431,1.05-1.628,1.662-2.685m-.314,10.806a12.857,12.857,0,0,1,1.731-6.536,8.692,8.692,0,0,1,1.182-1.554l-.01-1.643a2.487,2.487,0,0,1-1.759-.818,2.091,2.091,0,0,1-.595-1.633,2.045,2.045,0,0,1,1.42-1.89,2.106,2.106,0,0,1,2.2.511,1.953,1.953,0,0,1,.513,1.478,1.161,1.161,0,0,1-1.045,1.258,1.042,1.042,0,0,1-1-.512c-.174-.321-.186-.919.176-.919.493,0,.061.35.356.486a.351.351,0,0,0,.47-.117.58.58,0,0,0-.109-.642.8.8,0,0,0-.918-.2,1.011,1.011,0,0,0-.567,1.259,1.3,1.3,0,0,0,1.221,1.054l2.067.005,1.161-.785,1.438-.708a2.16,2.16,0,0,0-.375-.9l-1.771.944a3.948,3.948,0,0,0-1.231-2.71,3.174,3.174,0,0,0-5.114,2.865c-.921,1.162-2.831,2.15-2.013,3.89-.818.033-1.229.988-1.774,1.431l-1.092-.887.885-.614a3.445,3.445,0,0,0,.719-3.444,3.757,3.757,0,0,0-2.8-2.662,1.857,1.857,0,0,0-1.635.375,1.457,1.457,0,0,0-.34,1.161.945.945,0,0,0,.918.716c.549-.17-.2-.444,0-.784.069-.272.41-.309.687-.272a.9.9,0,0,1,.544,1.021,1.187,1.187,0,0,1-.853.649c-2.422-.1-5.012-1.841-7.263-.238a3.913,3.913,0,0,0-2.047,3.206,4.141,4.141,0,0,0,1.433,3.375c2.353,1.943,5.627.443,8.114-.238.443-.1,1.025-.1,1.231.34-1.057.991-2.216,2.047-2.288,3.479-3.475-.716-6.41-2.353-9.888-3.1-.41.034-.513-.479-.617-.717l1.3.445.067-.1c-.545-1.022-.987-2.114-1.43-3.135.443.033.784.443,1.226.375V20c-1.568-1.7-2.182-4.6-4.776-5.046-.064-.512.241-.955.207-1.431h-.309l-2.522.715-.1-.1a6.891,6.891,0,0,1,1.023-1.911c-.206-.308.309-.479.137-.853-.1-.443-.649-.41-.953-.341.067-1.16-1.127.1-1.3-.851a.67.67,0,0,0-.783.1l-.306-.411a1.168,1.168,0,0,0-.784.1c-.1-.614-.852-.989-.582-1.672a2.914,2.914,0,0,1,.752.07,5.37,5.37,0,0,0,0-1.057l-.886.033V6.4c-.378-.035-.686.1-1.092.067,0,.308.17.683.17,1.024h-.921a5.143,5.143,0,0,0,.1,1.023c.306.033.58-.275.888-.069.2.717-.341,1.126-.443,1.7l-.069-.1c-.274-.033-.513-.1-.719.1-.065.922-.749-.273-1.089.41.069.919-.818-.139-1.057.545.171.818-.646.2-.885.682-.306.375.271.716.1,1.057a3.678,3.678,0,0,1,1.3,1.842,25.853,25.853,0,0,1-2.9-.41c.035.545.443.988.408,1.5a4.638,4.638,0,0,0-3,3.512c-.239.822-.991,1.468-.955,2.355.338.035.614-.444.92-.308-.274,1.23-1.025,2.251-1.127,3.549.341.238.786-.513,1.229-.513a20.393,20.393,0,0,1-.408,3.855c.306.581.748-.477,1.159-.409a6.553,6.553,0,0,1,0,1.4c-2.9.135-5.492,1.09-8.286,1.5-1.06.41-1.094,1.673-1.467,2.559-.207.785.955.716.749,1.465a127.273,127.273,0,0,1-13.2-1.022,42.929,42.929,0,0,0,6.14,3.855v.1A46.872,46.872,0,0,1,197.3,39.92a107.882,107.882,0,0,0,18.624,1.225,38.66,38.66,0,0,0,6.955-.68c.513-.341.14-1.056.376-1.467,7.129.922,14.221,3.478,21.793,1.911,1.022,0,.443-1.2.682-1.638,3.478.068,6.686,1.536,10.231.887a2.272,2.272,0,0,0,2.388,1.023c1.638-.24,2.523-2.695,4.467-1.773a14.321,14.321,0,0,0,6.654,2.241l-.988-1.045a13.112,13.112,0,0,1-10.937-12.95" transform="translate(-77.329 -2.505)" fill="#3d5065"/>
    <path id="Path_430" data-name="Path 430" d="M259.032,56.022l0-.372-1.861-.308v.442l.179.029.01,1.643c-.137.275-.46.275-.784.275-.7,0-.445-2.525-.445-2.525l-1.67-.238,0,.4a2.634,2.634,0,0,1,.308.109c.065.854-.2,1.841.58,2.387a2.212,2.212,0,0,0,2.092.164,1.733,1.733,0,0,1,.231.243l1.291.174.01-.417-.246-.063.013-1.976Z" transform="translate(-99.728 -21.543)" fill="#3d5065"/>
    <path id="Path_431" data-name="Path 431" d="M250.407,56.343a3.507,3.507,0,0,1-1-.015l0-.857a.9.9,0,0,1,.4.156c.149.169.264.391.555.289-.042,0,.012-.96-.012-.977-.1-.066-.366-.049-.4.124a1.067,1.067,0,0,1-.577,0v-.741s.992-.021,1.3.411a1.755,1.755,0,0,1,.207.561l.473.03-.137-1.046-3.435-.637v.383l.365.118-.012,1.98-.383-.06v.412l3.328.632.373-1.021-.443-.17a1.041,1.041,0,0,1-.6.427" transform="translate(-97.1 -21.023)" fill="#3d5065"/>
    <path id="Path_432" data-name="Path 432" d="M279.857,52.865l-.012,1.181.221-.017a1.464,1.464,0,0,1,.413-.457,1.661,1.661,0,0,1,.578,0V55.58l-.413,0v.341l1.943.342.008-.27-.348-.207-.007-2.013s.373.056.475.183a6.758,6.758,0,0,1,.41.651l.323,0-.007-1.152Z" transform="translate(-109.678 -20.719)" fill="#3d5065"/>
    <path id="Path_433" data-name="Path 433" d="M275.919,55.026a1.5,1.5,0,0,1-1.122.035l.012-.671s.62-.116.62.179l.289.015.007-.875-.3,0a.568.568,0,0,1-.674.3v-.8a1.032,1.032,0,0,1,.968.007,1.634,1.634,0,0,1,.48.612l.335,0-.2-1.057-3.309-.008v.451l.378.068v1.908l-.343.138.012.318,3.3.024.271-.854-.448-.061a1.168,1.168,0,0,1-.269.267" transform="translate(-107.004 -20.681)" fill="#3d5065"/>
    <path id="Path_434" data-name="Path 434" d="M243.395,53.168l.4.2-.012,1.95c-.1.069-.4-.027-.4-.027l-.045.354s2.069.412,2.069.385v-.385l-.318-.094v-2.03l.375-.016v-.3l-2.067-.391Z" transform="translate(-95.369 -20.699)" fill="#3d5065"/>
    <path id="Path_435" data-name="Path 435" d="M284.042,46.1l-.239-.48-5.117-.921.207.306a37.25,37.25,0,0,0,5.149,1.094" transform="translate(-109.224 -17.52)" fill="#3d5065"/>
    <path id="Path_436" data-name="Path 436" d="M283.362,47.643l.308-.411c-2.32-.374-4.639-.785-6.89-1.3l.207.274a39.871,39.871,0,0,0,6.375,1.434" transform="translate(-108.477 -18.003)" fill="#3d5065"/>
    <path id="Path_437" data-name="Path 437" d="M284.323,44.571c-.032-.167.037-.443-.167-.509-1.264-.174-2.629-.308-3.788-.479l.172.206a24.121,24.121,0,0,0,3.783.782" transform="translate(-109.883 -17.081)" fill="#3d5065"/>
    <path id="Path_438" data-name="Path 438" d="M318.437,20.82a16.723,16.723,0,0,1-8.009.017l0-.727a12.8,12.8,0,0,1,8-.118ZM309.7,19.342l-.221.077c.615.545,0,1.43.717,1.91a15.885,15.885,0,0,0,8.288-.036c.921-.375.041-1.485.725-2.03a14.048,14.048,0,0,0-9.508.078" transform="translate(-121.291 -7.24)" fill="#3d5065"/>
    <path id="Path_439" data-name="Path 439" d="M309.668,7.123c-.453.257-.428.454-.453.631-.035.232.3.629.3.629s-.472-.122-.621.01c-.345.3-.233.554-.2.921.014.212.168.307.308.443.2-.195.3-.253.753-.273a.918.918,0,0,1-.612,1.162c-.629.2-.883-.118-1.1-.548a.965.965,0,0,1,.6-.219l-.572-1.211-.646.542-.217-.354-.08-.392a9.427,9.427,0,0,1,2.54-1.34m6.374,0c-.748.021-.828.59-.708,1.064-.17-.1-.533-.353-.817-.134-.387.295-.283.86-.149,1.235a.741.741,0,0,1,.808-.1.924.924,0,0,1-.983.925.746.746,0,0,1-.807-.907,1.182,1.182,0,0,1,.592.1A2.6,2.6,0,0,1,314,7.851h-.592l.159-.766h-1.574l.137.786c-.249.006-.424-.008-.613,0a1.616,1.616,0,0,1,.137,1.409,2.174,2.174,0,0,0,.592-.071.849.849,0,1,1-1.686.139.667.667,0,0,1,.641-.019.548.548,0,0,0,.2-.433c-.054-.347-.039-.685-.4-.811a.859.859,0,0,0-.627.14,1.856,1.856,0,0,0-.042-.69.792.792,0,0,0-.629-.412,9.854,9.854,0,0,1,6.337,0m2.328,1.2-.2.688a4.621,4.621,0,0,1-.518-.448l-.614,1.158c.187.036.465.049.6.255a.947.947,0,0,1-1.179.55c-.589-.244-.512-.69-.416-1.182.354,0,.5.08.613.258.179-.178.57-.533.392-1-.091-.244-.564-.306-.768-.236a.789.789,0,0,0-.173-1.2,8.906,8.906,0,0,1,2.265,1.161m-12.345.295-.139.148a7.707,7.707,0,0,1,1.878,2.866,15.6,15.6,0,0,1,10.2-.068,8.372,8.372,0,0,1,.853-1.773,8.639,8.639,0,0,1,.919-1.126l-.185-.146a.917.917,0,0,0,.288-.437c.041-.412.137-.817-.138-1.057a1.372,1.372,0,0,0-1.092-.068,1.021,1.021,0,0,0-.271-.749c-.343-.375-.888-.069-1.2.033a.889.889,0,0,0-.373-.716,1.016,1.016,0,0,0-1.057.2,1.972,1.972,0,0,0-.443-.646c-.341-.272-.853-.036-1.09.137l-.213-.665-.381-.9-.137-.887,1.206.3V1.4l-1.206.311L313.682,0l-1.83,0,.236,1.711-1.3-.311V3.07l1.3-.3-.147.983-.321.856-.172.675a1.14,1.14,0,0,0-.82-.272c-.409,0-.545.443-.682.715a1.043,1.043,0,0,0-.888-.272c-.408.1-.545.547-.679.853l-.238-.171c-.376-.069-.853-.069-1.023.341-.206.137.135.752-.276.581a.811.811,0,0,0-1.057.306.908.908,0,0,0,.241,1.25" transform="translate(-119.783 0)" fill="#3d5065"/>
    <path id="Path_440" data-name="Path 440" d="M312.787,22.109l1.125.166.207-.133a13.444,13.444,0,0,1,3.3-.025l.137.178,1.025-.2a10.3,10.3,0,0,0-5.789.013" transform="translate(-122.589 -8.5)" fill="#3d5065"/>
    <path id="Path_441" data-name="Path 441" d="M261.186,49.2a26.985,26.985,0,0,0,3.719-.237c.888-.409.851-1.706.647-2.524a.69.69,0,0,0-.271.1c-.2.649.1,1.57-.583,1.944l-3.442.41Z" transform="translate(-102.365 -18.202)" fill="#3d5065"/>
    <path id="Path_442" data-name="Path 442" d="M282.894,49.291c.139-.134.1-.341.171-.476a63.719,63.719,0,0,1-6.343-1.194.345.345,0,0,0,.172.272,38.257,38.257,0,0,0,6,1.4" transform="translate(-108.454 -18.664)" fill="#3d5065"/>
    <path id="Path_443" data-name="Path 443" d="M361.272,55.155s.817.026,1.033,0v-.323h-.266V53.474l1.732,1.914.48,0V52.883h.237V52.5l-.944-.027v.354h.262l0,.766-1.233-1.169-1.67-.036.041.38h.59l.017,2.007-.254.029Z" transform="translate(-141.448 -20.531)" fill="#3d5065"/>
    <path id="Path_444" data-name="Path 444" d="M356.65,55.058c-.4.074-.634-.337-.691-.989-.062-.686-.366-1.377.382-1.433.561-.041.549.6.623,1.109.086.62.118,1.23-.314,1.312m-.1-2.727a2.08,2.08,0,0,0-1.467.578,1.34,1.34,0,0,0-.375,1.365,1.668,1.668,0,0,0,.818.989,2.706,2.706,0,0,0,1.943-.1,1.557,1.557,0,0,0,.683-1.979,1.66,1.66,0,0,0-1.6-.85" transform="translate(-138.997 -20.509)" fill="#3d5065"/>
    <path id="Path_445" data-name="Path 445" d="M371.321,49.7c-.169,0-.34,0-.375.167.134.548-.135,1.4.375,1.809a12.439,12.439,0,0,1,3.989,1.261c.1.069.447.173.411-.1a8.514,8.514,0,0,0-3.786-1.57c-.717-.2-.172-1.159-.615-1.565" transform="translate(-145.383 -19.478)" fill="#3d5065"/>
    <path id="Path_446" data-name="Path 446" d="M376.124,40.661c.514-.17,1.366-.272,1.809-.851-.032-1.023-.41-2.012-.375-3.07,2.864-.067,5.73-.34,8.557-.579a25.444,25.444,0,0,1-4.637,2.32,24.957,24.957,0,0,0,4.468,1.774,52.091,52.091,0,0,1-9.824.407m-3.341-.237c-.034-.41-.34-.991-.067-1.228a10.8,10.8,0,0,1,4.465.306c-.1.443-.682.308-.987.511-1.092.17-2.251.342-3.411.41m-10.093.306c0-1.127,1.568-.578,1.911-1.6a2,2,0,0,0-.274-1.638c-1.025-1.091-2.525-.136-3.751-.1l-.615-.411c5.252-.614,9.924-2.863,15.517-2.455a2.007,2.007,0,0,1,1.4.819,19.53,19.53,0,0,0,.34,3.445c-5.148-.955-9.788.989-14.526,1.944m-.649-3.1a1.028,1.028,0,0,1,.989.139c.479.408.717,1.566-.035,1.874,0,0-.917-2-.954-2.013M360.2,35.75h.205v.036H360.2Zm.922,5.7c-.887.479-1.842-.032-2.763-.066a6.413,6.413,0,0,0-3.683.17,11.82,11.82,0,0,1-2.558-1.4c.409-.785,1.4-.821,2.249-.89,1.2.377,2.184,1.366,3.683.991a.738.738,0,0,0,.819-.41c-.407-.647-1.226-.614-1.843-.817-2.351-.512-4.261-2.049-6.854-1.944-.786-.889-.2-2.252-.305-3.378.168-.238.715-.511.442-.853-.1-.2-.378-.134-.511-.066l-1.124.716a5.143,5.143,0,0,1,.067,1.022,14.028,14.028,0,0,0-2.525-.408c-.236-.715.787-.138.72-.784l.2-2.594c-.035-.508-.854-.374-.442-.951.238.033.575.236.782,0l1.465-2.39a.589.589,0,0,0-.305-.614l.341-.374c.375.647,1.091.032,1.638.032.545-.374,1.876.07,1.738-1.021v-.137l.616-.1c-.034.479-.072,1.158-.444,1.432-.884.319-2.254.076-3.091.493l-.727,1.281c1.874-.479,4.056-.445,5.9-1.057a36.2,36.2,0,0,1,5.694,2.456c-.682.919-.307,2.045-.17,3.134a4.671,4.671,0,0,1-1.639,3.07c-.784-.749.547-1.3.613-2.045.172-.443.342-1.195-.1-1.569-.68.033-.172.886-.48,1.226a12.479,12.479,0,0,0-.815,1.6,2.229,2.229,0,0,1-1.057-.887c-.2-.445.58-.955-.035-1.261a7.925,7.925,0,0,1-2.009,1.534c-.1.1-.171.239-.1.341.475.545,1.058-.239,1.532.375,1.774,1.365,3.443,3,5.423,3.889.614.749-.032,1.568-.34,2.249M350,38.514c0-.341.375-.41.613-.477,1.126-.173,1.909.443,2.83.749a4.277,4.277,0,0,0-1.909.887A2.462,2.462,0,0,1,350,38.514m-.888,2.967c.238-.17.65-.309.787-.649l-.035-.819a1.771,1.771,0,0,0,1.226.545c0,.376.444.683.684.821Zm-4.159-.309-.137-1.089a9.078,9.078,0,0,1,4.3.647l-.035.136a10.975,10.975,0,0,1-4.123.306m-10.812-.919a11.512,11.512,0,0,1,1.909-2.488,2.517,2.517,0,0,1,.278.285v1.33l-.257.031-.021.331,1.017-.008,0-.3-.269-.053,0-.8,1.024,1.091.987-1.475.146.944a1.941,1.941,0,0,1-.316.086,1.11,1.11,0,0,0,.02.388l1.862-.326-.061-.5a2.2,2.2,0,0,1-.32.066l-.269-1.808.326-.086-.057-.493-1.193.2-.75,1.533-1.248-1.335-.322.005.207-.513c3.716-.406,7.639-1.7,11.491-.613a1.162,1.162,0,0,1,.639.6c.373.841-.194,2.165.147,3.082a1.228,1.228,0,0,1,.066.513c-5.079-1.806-9.89,1.194-15.037.308m-.785-.922a3.108,3.108,0,0,0-1.434-1.773,2.674,2.674,0,0,0-2.111.068c1.123-1.569,1.977-4.569,4.6-3.853a1.918,1.918,0,0,1,1.228,1.467c.373,1.841-1.911,2.59-2.286,4.091m-.99,1.707a1.549,1.549,0,0,1-1.5.511,1.448,1.448,0,0,1-.851-.889.693.693,0,0,1,.342-.817c.2-.033.441.034.477.24.066.239-.343.511.032.647.24.034.446-.24.479-.444a.939.939,0,0,0-.58-1.023,1.043,1.043,0,0,0-1.025.24c-.337.24-.306.65-.337.988a2.64,2.64,0,0,0-1.74-.647c1.124-.989,2.251-2.183,3.853-1.806a1.936,1.936,0,0,1,1.191,1.432,2.411,2.411,0,0,1-.34,1.569m-.9-16.929a1.821,1.821,0,0,1,.631-1.557,1.327,1.327,0,0,1,1.436-.306l3.341,3.444a2.488,2.488,0,0,0-2.625.921c-1.2,1.5.238,3.922-1.057,5.422l-1.2,1.159a13.645,13.645,0,0,0-.528-9.083m-.426-2c-.987-.342-1.3-1.111-2.09-2.1a2.535,2.535,0,0,0,1.92-1.453c0-.136.105-.2.105-.339.885.886,2.724,1.976,1.532,3.408a1.5,1.5,0,0,1-1.467.479m14.188.2a2.113,2.113,0,0,0,.854-2.081c.07-.68-.682-1.124-1.057-1.5-2.388-.958-4.64.85-7.094.443a1.589,1.589,0,0,1-.921-1.366v-.1a1.7,1.7,0,0,0,1.432.886c2.659-.171,6.412-2.354,8.356.545a3.052,3.052,0,0,1-1.228,4.092c-3.205,1.57-6.278-2.148-9.277.2l-.41-.341c2.661-2.9,6.208.784,9.344-.784m-.373-.818c.033.308-.344.615-.614.648a11.958,11.958,0,0,1-4.263-.546c1.464-.305,2.93-.919,4.467-.613a.7.7,0,0,1,.41.511m-9.379-1.706v-.1c2.8,2.151,5.865-.341,8.868-.066a1.378,1.378,0,0,1,1.021,1.671,1.415,1.415,0,0,0-.986-.922c-3-.374-6.719,2.66-8.9-.58m2.147,6.72a2.372,2.372,0,0,1,.785,1.126,1.476,1.476,0,0,1-.51,1.329,1.15,1.15,0,0,1-1.194.272,1.1,1.1,0,0,1-.613-.683.547.547,0,0,1,.34-.613c.647-.17.1,1.023.783.547a.866.866,0,0,0-.1-.853.934.934,0,0,0-1.022-.2c-1.092.749-.1,2.078-.342,3.2a3.056,3.056,0,0,1-1.093,2.081,1.957,1.957,0,0,0-1.259,0c1.124-1.228,1.022-3.106.955-4.742a2.362,2.362,0,0,1,.885-1.466,2.674,2.674,0,0,1,2.386,0m7.948,4.569.683.036-.14,1.737-.679-.066Zm.954-2.693c.341-.41.479-.922.819-1.332l.548.341a8.273,8.273,0,0,1-.854,1.5c-.172-.136-.752-.2-.513-.51m4.707-3.65c.207.069.137.408.207.615a6.687,6.687,0,0,1-1.671.443,1.2,1.2,0,0,1-.1-.683Zm5.083,1.057c.273.138.578.069.648-.239-.14-1.025.784-1.842.987-2.831a1.986,1.986,0,0,0,1.81-2.694c-.1-.1-.277-.274-.379-.07-.1.581-.339,1.332-1.02,1.5a6.809,6.809,0,0,1-3.308-.171c-.99.24-2.079.2-2.8,1.057a.874.874,0,0,1-1.024-.069c-.168-.137-.375-.41-.1-.544.342-.24.955.032,1.227-.41a.767.767,0,0,0-.545-.817c-.681-.411-1.7,1.158-1.672-.275l.137-.953a1.343,1.343,0,0,0,1.125.2c.207-.068.41-.3.308-.511-.308-.579-.716.035-1.125,0,.068-.444.647-.477.989-.647a5.606,5.606,0,0,0,3.546-1.74c.888-.272,1.909.442,2.729-.171a3.588,3.588,0,0,1,1.634-1.773c.1.853.515,1.944-.2,2.659a.46.46,0,0,0,.612.137c.241-.137.241-.41.344-.65a6.329,6.329,0,0,1,2.8,6.753,13.932,13.932,0,0,1-1.362,3.651c-.035,0-.239-.375-.479-.342a.838.838,0,0,0-.137-.919c-.514,0-.68.748-1.264.508a.778.778,0,0,0-.27.548c.1.134.27.066.372.237.035.308-.235.479-.474.546a.788.788,0,0,1-.854-.546c-.038-.17-.1-.476.035-.578.235.069.648.546.716,0,0-.341.646-.715.1-.955l-.412-.1c.069-.2.342-.307.308-.579a2.841,2.841,0,0,0-1.16-.444c-.17.137-.1.342-.1.544-.239.1-.34-.272-.582-.2a6.6,6.6,0,0,0-.406,1.126l.612.2a1.012,1.012,0,0,1-1.022.479c-.2-.139-.511-.24-.58-.513a.326.326,0,0,1,.24-.41m1.635-12.518a5.007,5.007,0,0,1,1.943-1.463,3.68,3.68,0,0,1-2.012,2.829c-.337-.375-.068-.955.069-1.366m4.809-.783c0,1.3-1.4,2.013-1.774,3.171-.27-.066-.305-.407-.407-.613-.172-1.363,1.226-2.01,2.181-2.558m2.389,1.637c-.275,1.534-2.045,1.638-2.8,2.8-.305,0-.272-.341-.373-.511.272-1.534,2.013-1.773,3.173-2.286m2.181,2.59c-1.088.992-2.694,1.126-4.057,1.434-.2-.1-.1-.41-.07-.581,1.025-1.021,2.661-.749,4.126-.854m.851,2.627c-1.058.75-2.761.581-4.09.443-.274-.1-.2-.409,0-.579,1.262-.817,2.8-.068,4.09.136m.174,2.491c-1.264.34-3.139.511-4.06-.513-.035-.239.206-.341.372-.443a10.305,10.305,0,0,1,3.687.956m-.548,2.353a3.284,3.284,0,0,1-3.578-1.058.344.344,0,0,1,.305-.377c1.263.139,2.184,1.024,3.273,1.435m-3.888,1.02c-.066-.1,0-.272-.032-.407a.675.675,0,0,1,.717-.035l2.18,1.638a3.286,3.286,0,0,1-2.866-1.2m-.645,1.842a.971.971,0,0,1-.035-.817.985.985,0,0,1,.446,0l1.669,2.149a3.24,3.24,0,0,1-2.079-1.332m-.924,1.706c-.1-.238-.032-.58.207-.613.784.239,1.057,1.228,1.7,1.7a2.053,2.053,0,0,1-1.911-1.091m-1.364-.308c-.136-.066-.305-.066-.407-.238a.429.429,0,0,1,.239-.477c.168-.033.375,0,.375.2.068.206-.1.377-.207.511m4.535,5.355a1.952,1.952,0,0,1,1.468.377,49.034,49.034,0,0,1-6.448,1.465c1.64-.375,3.276-1.293,4.979-1.842m18.93,4.639a39.592,39.592,0,0,0,6.14-4.025A84.052,84.052,0,0,1,377.7,35.444c-.342-.1-.071-.646-.276-.887-1.191-1.738-3.884-1.227-5.865-1.158-1.366-.138-3,1.431-3.955-.24a3.792,3.792,0,0,0-2.318-.513c-1.469.342-2.8,1.227-4.265,1.467.443-.989.07-2.15,0-3.206.035-.237.07-.512.308-.614a2.747,2.747,0,0,0,2.589,1.434c.035-.376-.544-.649-.613-1.023.923.41,2.184.032,3.069.511-.032-.751-1.022-1.4-1.431-1.91a14.1,14.1,0,0,1,2.179.137,5.413,5.413,0,0,0-1.5-2.25l1.57.032c.477-.068,1.057,0,1.5-.068a3.8,3.8,0,0,0-1.911-1.875l1.5-.2c.445-.2,1.128.032,1.534-.2a6.656,6.656,0,0,0-2.556-1.914l2.251-.612c.305,0,.752.067.92-.069a5.185,5.185,0,0,0-2.56-1.638v-.069c.512-.1.887-.544,1.334-.818.305-.2.781-.17.984-.475a6.538,6.538,0,0,0-3-1.16v-.1c.678-.408,1.226-1.057,1.908-1.465v-.137a6.709,6.709,0,0,0-3.786-.648,2.979,2.979,0,0,0,.647-1.332c.173-.443.547-.818.718-1.192a5.837,5.837,0,0,0-3.241.511l.58-2.32-.1-.067a6.138,6.138,0,0,0-3.1,1.226,6.2,6.2,0,0,1,.375-2.046,6.3,6.3,0,0,0-2.49.82c-1.025.546-2.114,1.464-1.981,2.728-.066.066-.27.032-.235.2a1.994,1.994,0,0,1,.578,1.16,1.445,1.445,0,0,1-.614-.887.989.989,0,0,0-1.23-.546,1.891,1.891,0,0,1,.478,1.057c-.612-.306-.58-.987-1.057-1.4a.85.85,0,0,0-.851-.069l.442.752-.07.1c-.648-.308-.543-1.023-1.123-1.365a.775.775,0,0,0-.854,0c.17.308.513.614.479.955-.784-.306-1.022-1.977-2.114-1.4.239.238.544.479.544.784-.683-.172-.714-.921-1.226-1.261-.274-.1-.615-.24-.822-.069a.873.873,0,0,1,.342.684c-.475-.07-.443-.583-.817-.821a.863.863,0,0,0-1.023-.375c.1.207.342.443.307.646-.443-.2-.409-.884-.991-.989a.421.421,0,0,0-.341.513,1.275,1.275,0,0,0,.58.545c1.022-.168,1.5.992,2.559.751a2.031,2.031,0,0,0,1.669.683,2.087,2.087,0,0,0,1.606.578c.477.82,1.569.069,2.044.955.376.342,1.229-.069,1.332.512h-.1c-1.261-.647-2.181.41-3.136.988-1.162.513-2.663.444-3.548,1.467-.171,1.057-.683,2.318-.068,3.342.137.1.446.139.308.411l1.159,1.261c.373.307.955.2,1.431.17a4.228,4.228,0,0,1,4.364-.614c-.1.479-.235,1.057-.815,1.228-.207.137-.105.614-.514.443-.376,0-.511.41-.511.715l.375.139a.327.327,0,0,1,0,.476.8.8,0,0,1-.817.17.7.7,0,0,1-.443-.853c.168-.034.271.24.443.138-.035-.407.2-.683.2-1.023l-.479-.067c0-.24.309-.443.241-.683a2.368,2.368,0,0,0-1.2-.035l-.134.786-.955.1c-.174-.137-.1-.443-.375-.511l-2.286.476c-.412.035-.953.341-.682.853-.445.375-.955,1.638-1.672.854-.58.646-.991,1.533-1.534,2.248a.581.581,0,0,0,.273.923,2.166,2.166,0,0,1-.342,1.023.629.629,0,0,0-.68.237l-.207,2.833c.1.3.446.237.646.375-.032.134.07.341-.064.443-2.968-.068-5.562.853-8.392.919a3.893,3.893,0,0,0-1.126-1.841,4.808,4.808,0,0,0,1.23-2.9,2.56,2.56,0,0,0,2.353-1.024,23.536,23.536,0,0,0,6-.168l-.1-.1c-.337-.309.069-.581.1-.854a32.076,32.076,0,0,1-5.729,0c.241-1.774-1.5-2.728-2.486-3.888a3.152,3.152,0,0,1,.678-.479c2.423-.2,4.4,1.2,6.891.887a4.133,4.133,0,0,0,3.512-2.761,4.239,4.239,0,0,0-.612-3.785c-1.6-1.842-4.4-1.673-6.546-1.126-1.025.135-2.525.92-3.308-.207a2.129,2.129,0,0,1-.037-1.7c-.475-.068-.748.376-1.058.615a3.8,3.8,0,0,0-.166,3.479A2.54,2.54,0,0,1,335,17.5h-.068a3.238,3.238,0,0,0,.1,2.525,3.733,3.733,0,0,0,2.044,1.67,6.09,6.09,0,0,0-1.6.853c-.27-.17-.442-.581-.717-.853-.238-.374-1.059-.237-.852-.715.512-1.569-.989-2.489-1.979-3.444a4.021,4.021,0,0,0-2.623-3.479,2.968,2.968,0,0,0-3.309.853,2.678,2.678,0,0,0-.614,2.183,9.134,9.134,0,0,0-2.012-.818,1.306,1.306,0,0,0-.045.961,10.876,10.876,0,0,1,2.753,1.5h1.811a1.376,1.376,0,0,0,.972-.48,1.128,1.128,0,0,0,.2-1.261.925.925,0,0,0-.992-.649c-.517,0-.612.382-.612.752,0,.32.156.375.344.341s.084-.293.2-.443c.078-.1.159-.226.272-.171a.637.637,0,0,1,.343.477.853.853,0,0,1-.581.922,1.09,1.09,0,0,1-1.262-.308,1.431,1.431,0,0,1-.238-1.6,1.713,1.713,0,0,1,1.057-1.16,1.964,1.964,0,0,1,2.082.341,2.2,2.2,0,0,1,.749,2.831,1.99,1.99,0,0,1-1.945,1.158v1.534a12.277,12.277,0,0,1,3.084,8.249,13.014,13.014,0,0,1-11.2,13.028l-.945,1.024A14.193,14.193,0,0,0,326.54,40.9c2.25-.887,3.069,2.423,5.32,1.773a3.081,3.081,0,0,0,1.637-1.33,15.407,15.407,0,0,0,3.99.206c2.351-.1,4.5-.921,6.785-.853.033.476-.07,1.057.273,1.4a26.932,26.932,0,0,0,9.073.409,2.664,2.664,0,0,0,2.286-.034c1.564-.272,3,.274,4.535.306a1.594,1.594,0,0,0,1.635-.68,95.177,95.177,0,0,1,9.789-2.217c.443.035.17.751.306,1.091.374.614,1.159.545,1.774.716a72.819,72.819,0,0,0,17.9-.955,67.046,67.046,0,0,1-7.4-2.285" transform="translate(-125.189 -4.134)" fill="#3d5065"/>
    <path id="Path_447" data-name="Path 447" d="M348.065,45.967l4.3-.886c.376-.2,1.058-.069,1.194-.545-1.7.305-3.376.683-5.117.851-.305.036-.238.378-.373.581" transform="translate(-136.415 -17.455)" fill="#3d5065"/>
    <path id="Path_448" data-name="Path 448" d="M347.846,47.508c1.977-.374,3.921-.715,5.8-1.26.239-.1.61-.1.579-.48-2.146.683-4.537.82-6.716,1.333Z" transform="translate(-136.196 -17.938)" fill="#3d5065"/>
    <path id="Path_449" data-name="Path 449" d="M354.562,47.86l.137-.239c-2.013.443-4.2.751-6.244,1.126l.172.41a48.583,48.583,0,0,0,5.935-1.3" transform="translate(-136.568 -18.664)" fill="#3d5065"/>
    <path id="Path_450" data-name="Path 450" d="M348.769,43.974l-.032.407a26.01,26.01,0,0,0,3.685-.785l.136-.237Z" transform="translate(-136.678 -16.993)" fill="#3d5065"/>
    <path id="Path_451" data-name="Path 451" d="M409.6,51.175l.439.061V53.3l-.3.039.012.284,1.763.195,0-.311-.383-.119-.058-2.066a1.689,1.689,0,0,1,.352.178.415.415,0,0,1,.108.345l.278.1s0-.7,0-.708a6.512,6.512,0,0,0-2.6-.416l-.024.986.262-.04Z" transform="translate(-160.373 -19.916)" fill="#3d5065"/>
    <path id="Path_452" data-name="Path 452" d="M407.744,53.214l-.275-.01-.226-1.968.362-.042-.1-.378-1.839.207.033.342.273-.036.274,2.013-.274.1.035.341,1.771-.216Z" transform="translate(-158.989 -19.916)" fill="#3d5065"/>
    <path id="Path_453" data-name="Path 453" d="M395.378,54.24c.033.041-.227-.888-.227-.888a.5.5,0,0,1,.753.269c.156.413-.284.576-.526.618m1.506-.972c-.119-.579-.9-.57-1.655-.421.032.007-1.457.437-1.457.437l.073.279.207-.058.5,1.964-.175.249.107.26,1.433-.338-.159-.394-.117.03-.149-.708s.393-.033.506.086a4.178,4.178,0,0,1,.5.882l1.092-.319-.88-1.006s.355-.046.172-.943" transform="translate(-154.328 -20.678)" fill="#3d5065"/>
    <path id="Path_454" data-name="Path 454" d="M401.885,54.157c-.437.138-.549-.229-.756-.909-.191-.624-.437-1.242.058-1.388.512-.148.725.556.867,1.069.195.7.284,1.087-.169,1.228m.443-2.557a2.3,2.3,0,0,0-1.841.239c-.614.305-.683.955-.614,1.6a1.547,1.547,0,0,0,.819.988,2.442,2.442,0,0,0,1.771-.134,1.551,1.551,0,0,0-.135-2.695" transform="translate(-156.712 -20.188)" fill="#3d5065"/>
    <path id="Path_455" data-name="Path 455" d="M324.705,53.373l-.273-.069c.133-.171.512-.2.41-.509-.649-.549-1.468-.308-2.286-.377l-.137-.1c.341-.375.955-.171,1.4-.171.2.035.443-.171.308-.375a7.867,7.867,0,0,0-1.942.375c-.137.137-.07.308.032.443.717.1,1.7-.24,2.249.307l-.167.067c-.889-.375-1.909.239-2.763-.2l.137-.272a1.888,1.888,0,0,0-1.3-.306c-.171.2.134.51-.069.749-.411,0-.2-.41-.309-.614l-.475-.033c-.274.136-.033.375-.1.545.41.17.577.646.886.919-.135.173-.411.511-.58.173-.2.066-.477.134-.545.338.407.822,1.159.037,1.669-.066l.14.066c.305-.443.85-.443,1.225-.544.274.341-.309.306-.441.512-.173.17-.445-.171-.546.134,0,.138-.136.24,0,.376.546.2.956-.409,1.533-.376.41-.032,0-.408.306-.578.238-.2.582-.341.786,0l-.239.238c-.169-.033-.207-.306-.409-.2a.256.256,0,0,0-.1.239c-.037.375.373.306.545.41a3.636,3.636,0,0,0,1.057-1.092" transform="translate(-125.095 -20.29)" fill="#3d5065"/>
    <path id="Path_456" data-name="Path 456" d="M319.579,27.919h6.139V34.74h-6.139Zm-.513,7.366h7.3V27.374h-7.3Z" transform="translate(-125.05 -10.729)" fill="#3d5065"/>
    <path id="Path_457" data-name="Path 457" d="M320.438,49.878c.275-.034.55-.341.753-.239.137.035.1-.135.2-.171.652-.134,1.231-.578,1.979-.407-.033.069,0,.239-.134.239-.308.306-1.057,0-1.092.578.136.036.239.239.443.17.271-.34.714-.238,1.124-.272.716.2.137-.581.716-.646.376.066.922-.171,1.194.2a.2.2,0,0,1-.1.2c-.1.1-.235.035-.305-.069a.213.213,0,0,0-.342.1c.036.408.412.342.647.476a1.756,1.756,0,0,0,.721-1.158c-.275-.068-.546,0-.752-.2.207,0,.512-.171.441-.444-.68-.785-1.977-.239-2.967-.341l-.133-.1c.443-.444,1.4.036,1.634-.578-.033-.1-.168-.1-.236-.1-.513.408-1.433.034-1.74.68.716.82,1.842-.033,2.8.239.134-.032.375.17.274.272-1.16-.1-2.558.24-3.755-.1a1.409,1.409,0,0,0,.172-.341,3.2,3.2,0,0,0-1.468-.341c0,.308.1.545-.069.784-.1.137-.237-.033-.3-.1-.139-.17,0-.272.036-.409-.071-.339-.379-.066-.582-.2-.2.069-.1.341-.2.513.579.1.477.885.99,1.023a1.276,1.276,0,0,1-.411.338c-.134-.066-.1-.237-.238-.2-.2.138-.58.1-.545.444.271.751.75,0,1.259.17" transform="translate(-125.093 -18.466)" fill="#3d5065"/>
    <path id="Path_458" data-name="Path 458" d="M319.413,45.438c.168.1.341-.032.512-.068.476.068.851-.476,1.261-.338a3.945,3.945,0,0,1,2.421-.615l-.169.339c-.378.137-1.025-.067-1.16.341,0,.341.373.207.577.309.378-.443,1.092,0,1.468-.374-.309-.309.235-.377.341-.581.409.239,1.057-.308,1.26.306-.168.378-.442-.273-.681.069-.068.411.343.443.614.581a1.278,1.278,0,0,0,.682-1.2c-.239-.068-.51,0-.682-.2.136-.206.548-.1.478-.444-.853-.853-2.217-.068-3.309-.409,0-.069,0-.1.033-.136.48-.376,1.4.306,1.572-.442-.073-.139-.207-.069-.308-.069-.443.444-1.468-.1-1.637.683.067.2.308.237.477.269.921.069,2.045-.441,2.8.138a13.476,13.476,0,0,1-4.228-.069l.067-.273a1.519,1.519,0,0,0-1.365-.3c-.033.17.1.3.069.476-.069.1-.032.341-.271.307-.307-.1-.169-.374-.137-.614-.067-.24-.34-.068-.478-.17-.306.032-.2.374-.306.577.409.24.614.719.988,1.057-.374.549-.817-.237-1.125.409-.07.2.2.274.239.443" transform="translate(-125.087 -16.653)" fill="#3d5065"/>
    <path id="Path_459" data-name="Path 459" d="M310.457,46.805V34.939h8.457c.162,3.911.035,7.265-3.41,8.833-1.7.854-3.717,1.5-5.047,3.034m0-21.416h8.32v8.9h-8.32Zm-.647,8.9h-8.256v-8.9h8.256s.03,5.968,0,8.9m0,12.481c-1.91-2.081-4.31-2.111-6.582-4.126-1.927-1.7-1.674-5.2-1.674-7.707h8.256ZM300.5,39.781a10.856,10.856,0,0,1,0-10.64Zm19.475-10.709a10.649,10.649,0,0,1,1.38,5.4,10.976,10.976,0,0,1-1.38,5.393Zm-3.12,15.2a12.247,12.247,0,0,0,4.41-5.551,11.822,11.822,0,0,0,.2-7.99,10.169,10.169,0,0,0-1.589-3.11V24.23h-3.779l-1.286-.7-.749.234.829.466h-9.338l.92-.407-.831-.234a11.037,11.037,0,0,1-1.422.642H300.4v3.581a12.246,12.246,0,0,0-1.453,10.164c1.2,3.364,2.468,4.489,4.684,6.3,2.455,1.124,4.876,2.111,6.615,4.567,1.221-2.364,3.7-3.229,6.612-4.567" transform="translate(-116.95 -9.222)" fill="#3d5065"/>
    <path id="Path_460" data-name="Path 460" d="M304.645,29.927a2.594,2.594,0,0,0,1.535-.581c.134.308.237-.033.411-.066.714-.1,1.329-.649,2.079-.377l-.037.035c-.1.477-.816.375-1.227.441-.136.41.207.512.513.512.443-.339,1.194-.033,1.567-.408-.306-.272.206-.272.276-.545.408.237,1.058-.307,1.261.306l-.1.069a.96.96,0,0,1-.41-.138.166.166,0,0,0-.1.2c-.136.41.341.445.577.512.513-.2.581-.75.651-1.226-.241-.137-.48.067-.651-.17.172-.069.547-.171.411-.48-.612-.646-1.809-.34-2.625-.305-.171.033-.41.033-.41-.2.137-.2.446-.071.684-.1.338.032.783-.033.646-.411l-.206-.066c-.373.406-1.02.1-1.431.406-.037.173-.069.411.1.513.888.2,1.943-.306,2.866.1a.13.13,0,0,1-.037.2c-1.294-.1-2.829.272-4.089-.139l.1-.272c-.408-.2-.922-.581-1.465-.309-.035.241.271.65-.137.787-.513-.173,0-.479-.241-.75-.137.033-.443-.069-.612.067-.376.717.612.956.854,1.5l-.1.1c-.139.1-.344.2-.378-.035-.271-.1-.373.207-.577.24-.206.274.2.479.306.581" transform="translate(-119.255 -10.553)" fill="#3d5065"/>
    <path id="Path_461" data-name="Path 461" d="M307.826,46.822l2.595,1.636-.1.649-3.07-1.91-.238-.476c.169-.341.58-.069.815.1M308,45.594c.851.545,1.737,1.024,2.523,1.636l-.067.581a13.83,13.83,0,0,1-2.694-1.7Zm.647-.853,1.977,1.159-.067.581a17.157,17.157,0,0,1-2.252-1.33Zm2.08-.374-.068.887a5.216,5.216,0,0,1-1.435-.887Zm-.51,6.106c-.956-.513-2.286-1.2-2.595-2.39.923.511,1.809,1.092,2.659,1.67-.1.207,0,.513-.065.719m-.685.646c.685.374,1.194,1.09,1.946,1.261a90.786,90.786,0,0,0,.271-9.139h-3.988c-.888.068-.344,1.227-.955,1.637-.139.1-.48.2-.582-.069a.79.79,0,0,1,.378-.683c.1-.272.238-.683,0-.919A1.226,1.226,0,0,0,305.577,43a1.063,1.063,0,0,0-.478.615,1,1,0,0,0,.34,1.126,1.163,1.163,0,0,1-.443.751.591.591,0,0,0,.169.75,6.278,6.278,0,0,0,4.365,4.877" transform="translate(-119.506 -16.841)" fill="#3d5065"/>
    <path id="Path_462" data-name="Path 462" d="M325.72,29.406a.472.472,0,0,0-.577-.308,2.235,2.235,0,0,0-.41,2.422c0,.513,1.229,1.022.477,1.363a4.319,4.319,0,0,1-1.3-1.057,2,2,0,0,1,.207-1.534c.172-.41-.067-.784.239-1.126-.2-.069-.306-.24-.478-.342a1.455,1.455,0,0,0-1.3.375c-.069.341.271.272.477.308.036.272-.477.033-.373.374l.373.171a1.4,1.4,0,0,1-.782.443,1.462,1.462,0,0,1-.991-.853l.207-.171c.032-.408-.446-.272-.65-.408-.034.238-.408.272-.376.579.513.443.854,1.194,1.431,1.569a2.711,2.711,0,0,1-.341.239c-.167.1-.51.1-.51-.207-.442-.168-.238.377-.579.41.105.273-.069.378.033.648l.309.035c.477-.512,1.089-.305,1.671-.65l.373.65-.51.137c-.408.306.375.578,0,.887-.238.237-.511-.068-.58-.272-.411-.138-.207.406-.545.406-.239.308.274.274.134.614a.551.551,0,0,0,.309.171c.236-.477.818-.341,1.229-.545.238-.033.576-.41.306-.613.2.033.373-.137.511.033-.2.751.854.547.817,1.126-.1-.032-.135-.2-.306-.134-.238.306-.308.611,0,.887.375-.172.888-.513.99-.956.035-.41-.343-.48-.579-.682a2.607,2.607,0,0,1,.1-.513c.2.137.375.341.646.309a.481.481,0,0,0,.342-.683,2.541,2.541,0,0,1-.816-2.627c.065-.17.137-.545.442-.443.374.375-.2.68-.171,1.057,0,.272.273.375.445.545.135.036.406.139.443-.1-.48-.341-.41-.987-.343-1.533" transform="translate(-125.598 -11.293)" fill="#3d5065"/>
    <path id="Path_463" data-name="Path 463" d="M310.544,33.617c-.137,0-.1.174-.1.273.067.308.411.275.615.377a1.611,1.611,0,0,0,.679-1.195c-.2-.1-.545.07-.679-.17.168-.033.407-.2.407-.409-.681-.955-2.012-.207-3.035-.479.274-.511,1.09-.032,1.469-.409.1-.1,0-.271-.1-.306-.513.272-1.162.17-1.64.409a.353.353,0,0,0,.137.578c.955.207,2.08-.406,2.828.207l-.1.136c-1.294-.342-2.66.207-3.885-.1-.376-.069.067-.241,0-.443h-.2c-.306-.41-.888-.2-1.229-.308-.271.238.2.377,0,.649a.207.207,0,0,1-.373.1c-.238-.171.033-.341,0-.545-.139-.274-.343.032-.547-.138-.168.068-.2.272-.241.41-.033.2.206.273.343.341.1.375.612.578.51.921-.1.069-.341.308-.443,0-.271-.1-.373.239-.577.308-.037.273.134.342.306.512a5.351,5.351,0,0,0,1.637-.479c.172.137.172-.1.309-.171a6.593,6.593,0,0,1,2.147-.444c-.1.069.035.309-.169.309-.308.033-.55.339-.853.17-.2-.035-.309.168-.274.342-.035.306.308.168.477.237.376-.374,1.127-.272,1.637-.237-.376.375-1.057.066-1.5.406a.378.378,0,0,0,.134.48c.922.237,1.945-.274,2.865.134.071.036.032.17-.032.2-1.4-.306-2.764.239-4.127-.168a.26.26,0,0,0,.067-.342h-.169c-.276-.443-.853-.17-1.231-.238-.064.308.207.581-.064.785-.443-.071-.2-.444-.343-.683-.17.034-.373-.136-.577.034a1.589,1.589,0,0,0,0,.578c.407.139.509.649.92.854l-.172.2c-.137.17-.376.033-.478-.1-.2.135-.612.2-.477.545.172.377.544.17.818.17.478.033.819-.444,1.194-.306a5.337,5.337,0,0,1,2.249-.717c.277,0,.038.238.038.376a7.459,7.459,0,0,1-1.16.134c0,.138-.206.308,0,.41.476.24,1.057-.17,1.635-.036.751.07.035-.611.719-.78.407.134.85-.1,1.191.2,0,.476-.341,0-.545.1-.1.033-.069.137-.069.24-.068.374.378.272.582.407a1.755,1.755,0,0,0,.646-1.228c-.239.036-.478.07-.646-.134.168-.069.544-.2.407-.513-.748-.682-1.945-.237-2.863-.306l-.172-.136.135-.1c.379-.24,1.161.17,1.3-.41,0-.2-.274-.1-.344-.1,0-.137.038-.272-.032-.341.274-.68,1.022-.237,1.532-.237.069.1.171.2.038.306-.239.1-.309-.17-.513-.138" transform="translate(-119.289 -12.267)" fill="#3d5065"/>
    <path id="Path_464" data-name="Path 464" d="M388.267,30.51c0,.138.17.171.269.207a6.422,6.422,0,0,0,.994-3.887,3.827,3.827,0,0,0-1.158-2.764c-.14,0-.207.134-.207.272,1.263,1.772.783,4.331.1,6.171" transform="translate(-152.131 -9.432)" fill="#3d5065"/>
    <path id="Path_465" data-name="Path 465" d="M379.162,21.765l.477.341c-.14.2-.411.2-.649.24,0-.137.171-.342.171-.581M378,22.106c.068-.171.1-.375.309-.479l.066.547Zm.309-1.024c-.58,0-.682.614-1.023.886a1.283,1.283,0,0,0,1.023.614,2.059,2.059,0,0,0,2.079-.476c-.684-.341-1.2-1.16-2.079-1.024" transform="translate(-147.867 -8.257)" fill="#3d5065"/>
    <path id="Path_466" data-name="Path 466" d="M20.853,105.585V104.4c-2.825,0-4.588-.653-4.588-3.627V80.722c5.58,0,6.905,1,7.425,5.4H25V78.113H0v8.012H1.308c.52-4.4,1.845-5.4,7.425-5.4v20.052c0,2.973-1.763,3.627-4.587,3.627v1.184Z" transform="translate(0 -30.614)" fill="#3d5065"/>
    <path id="Path_467" data-name="Path 467" d="M60.974,92.4v8.368c0,2.663-1.439,3.552-3.755,3.627v1.189H71.872V104.4c-2.662,0-3.7-.655-3.7-3.627V82.927c0-2.973,1.042-3.627,3.7-3.627V78.113H57.219V79.3c2.316.077,3.755.962,3.755,3.627v7.261H51.536V82.927c0-2.665,1.439-3.55,3.755-3.627V78.113H41.772V79.3c1.821.381,2.567.654,2.567,3.627v17.842c0,2.972-1.041,3.627-3.7,3.627v1.189H55.291V104.4c-2.316-.075-3.755-.964-3.755-3.627V92.4Z" transform="translate(-15.926 -30.614)" fill="#3d5065"/>
    <path id="Path_468" data-name="Path 468" d="M117.262,105.585V97.43H116.3c-1.545,5.866-3.395,6.222-5.943,6.222h-3.395c-1.621,0-1.932-.542-1.932-2.007V92.359c4.106.067,6.966-.455,7.228,3.45H113.3V87.051h-1.037c-.259,3.424-3.289,3.091-7.228,3.091v-10.1h4.322c4.4,0,6.291,1.7,6.716,5.866h.848v-7.8H94.231V79.3c2.664,0,3.705.655,3.705,3.627v17.842c0,2.973-1.041,3.627-3.705,3.627v1.189Z" transform="translate(-36.931 -30.614)" fill="#3d5065"/>
    <path id="Path_469" data-name="Path 469" d="M154.961,105.281l.779.017a1.65,1.65,0,0,1,1.517-1.328c1.54,0,2.84,1.848,8.756,1.848,3.838,0,8.646-2.854,8.646-9.3,0-9.428-15.084-7.8-15.084-14.16,0-2.352,2.171-3.473,4.592-3.473,3.6,0,6.136,2.743,7.256,6.253h.833V77.658h-1.174c-.192.592-.324.984-.908.984-1.366,0-2.469-1.691-6.425-1.691-4.823,0-9.83,2.08-9.83,8.129,0,10.106,15.28,8.711,15.28,15.042,0,2.056-2.368,3.771-5.2,3.771a8.7,8.7,0,0,1-8.258-6.982h-1.09Z" transform="translate(-60.325 -30.159)" fill="#3d5065"/>
    <path id="Path_470" data-name="Path 470" d="M478.185,105.585v-1.112c-2.28,0-3.181-1.435-3.181-4.4v-16.6c0-2.97.634-4.147,2.781-4.147V78.113H464.95v1.211c2.176,0,2.816,1.177,2.816,4.147v16.6c0,2.97-.9,4.4-3.215,4.4v1.112Z" transform="translate(-182.069 -30.614)" fill="#3d5065"/>
    <path id="Path_471" data-name="Path 471" d="M506.84,105.585l8.52-22.069v16.552c0,3.283-.587,4.06-3.708,4.4v1.112h14.458v-1.112c-3.47-.345-3.707-1.435-3.707-4.4V83.73c0-3.685.627-3.878,3.707-4.406V78.113H514.839L508.076,96,501.43,78.113H490.192v1.211c2.624,0,3.665,1.435,3.665,4.406v16.76c0,2.97-.538,3.507-3.665,3.982v1.112h9.823v-1.112c-3.578-.541-3.709-1.012-3.709-3.982V84.69l8.39,20.895Z" transform="translate(-192.118 -30.614)" fill="#3d5065"/>
    <path id="Path_472" data-name="Path 472" d="M575.434,105.585V97.43h-.961c-1.546,5.866-3.4,6.222-5.943,6.222h-3.4c-1.622,0-1.931-.542-1.931-2.007V92.359c4.1.067,6.962-.455,7.226,3.45h1.037V87.051H570.43c-.259,3.424-3.292,3.091-7.226,3.091v-10.1h4.321c4.4,0,6.291,1.7,6.714,5.866h.851v-7.8H552.4V79.3c2.662,0,3.708.655,3.708,3.627v17.947c0,2.97-1.045,3.627-3.708,3.627v1.084Z" transform="translate(-216.5 -30.614)" fill="#3d5065"/>
    <path id="Path_473" data-name="Path 473" d="M595.172,105.281h.779a1.628,1.628,0,0,1,1.514-1.311c.8,0,4.418,1.848,8.759,1.848,3.836,0,8.646-2.854,8.646-9.3,0-9.428-15.084-7.8-15.084-14.16,0-2.352,2.172-3.473,4.59-3.473,3.6,0,6.138,2.743,7.256,6.253h.835V77.658H611.3c-.2.592-.327.984-.911.984-1.366,0-2.473-1.691-6.426-1.691-4.822,0-9.828,2.08-9.828,8.129,0,10.106,15.278,8.711,15.278,15.042,0,2.056-2.366,3.771-5.2,3.771a8.7,8.7,0,0,1-8.255-6.982h-1.092Z" transform="translate(-232.855 -30.159)" fill="#3d5065"/>
    <path id="Path_474" data-name="Path 474" d="M442.886,105.585V104.4c-2.824,0-4.589-.653-4.589-3.627V80.722c5.585,0,6.907,1,7.425,5.4h1.311V78.113h-25v8.012h1.307c.52-4.4,1.846-5.4,7.425-5.4v20.052c0,2.973-1.759,3.627-4.587,3.627v1.184Z" transform="translate(-165.404 -30.614)" fill="#3d5065"/>
    <path id="Path_475" data-name="Path 475" d="M217.907,79.324c1.545,0,2.064.386,3.413,2v19.415c0,2.969-1.363,3.626-4.191,3.626v1.214H228.21V104.37c-3.052,0-4.4-.657-4.4-3.626V85.406h.077l15.539,20.178h3.251V83.558c0-2.973.975-4.032,3.7-4.234V78.113h-9.492v1.211c2.731.527,3.316,1.261,3.316,4.234V95.092h-.075L227.464,78.113H207.651v1.211c2.47.077,3.654,1.236,3.654,3.627V96.393c0,5.092-1.657,7.02-5.816,7.02-2.624,0-5.786-1.231-5.786-5.324V82.951c0-2.972,1.043-3.627,3.7-3.627V78.113H188.948v1.211c2.663,0,3.7.654,3.7,3.627V97.575c0,6.559,4.552,8.766,10.8,8.766,6.846,0,10.467-2.4,10.467-8.846V82.951c0-2.972,1.256-3.627,3.985-3.627" transform="translate(-74.053 -30.614)" fill="#3d5065"/>
    <path id="Path_476" data-name="Path 476" d="M296.511,80.073c7.219-.845,10.142,4.831,10.142,11.079,0,9.074-2.4,12.328-7.607,12.328-1.706,0-2.534-.614-2.534-2.85Zm-7.152,20.672c0,2.97-1.04,3.627-3.7,3.627v1.214h13.706c8.641,0,14.508-3.6,14.508-13.7,0-10.184-5.866-13.771-14.508-13.771H285.658v1.211c2.662,0,3.7.654,3.7,3.627Z" transform="translate(-111.956 -30.614)" fill="#3d5065"/>
    <path id="Path_477" data-name="Path 477" d="M343.052,94.153h-6.761l3.38-9.983Zm13.656,9.661a3.623,3.623,0,0,1-3.578-2.555l-8.778-24.631-5.008,1.3-7.777,22.218c-1.122,2.9-2.624,3.517-4.966,3.666V105h10.925v-1.189c-2.354,0-3.908-.731-3.908-1.736a6,6,0,0,1,.5-2.159l1.405-3.392H343.7l1.788,4.009a5.836,5.836,0,0,1,.424,1.851,1.421,1.421,0,0,1-1.583,1.428h-2.125V105H371.66v-1.214c-2.659,0-4.226-.657-4.226-3.627V92.038l6.5-10.363c1.625-2.473,2.665-2.73,4.943-2.932V77.531h-9.951v1.212c1.548,0,2.632.423,2.632,1.5a5.336,5.336,0,0,1-.811,2.43l-4.42,6.629-3.9-6.666a7.689,7.689,0,0,1-1.083-2.7c0-.694.616-1.2,2.161-1.2V77.531h-14.6v1.212c1.5.271,3.25.072,4.548,2.081l6.986,11.214v8.124c0,2.97-1.7,3.641-3.731,3.651" transform="translate(-128.003 -30.032)" fill="#3d5065"/>
  </g>
</svg>
