<svg id="Group_596" data-name="Group 596" xmlns="http://www.w3.org/2000/svg" width="40.896" height="38.683" viewBox="0 0 40.896 38.683">
  <path id="Path_28" data-name="Path 28" d="M5.1,51.713H4.969c0-.064-.032-.161-.032-.193s0-.1-.1-.1H4.648v.289h-.1v-.676H4.84c.128,0,.224.032.224.161A.189.189,0,0,1,5,51.359a.168.168,0,0,1,.064.129v.129c0,.032,0,.032.032.032v.064Zm-.128-.482c0-.1-.064-.1-.1-.1H4.648v.193H4.84C4.9,51.328,4.969,51.3,4.969,51.231Zm.546.129a.721.721,0,0,0-.738-.708.713.713,0,0,0-.706.708.722.722,0,1,0,1.445,0Zm-.1,0a.618.618,0,0,1-.642.611.591.591,0,0,1-.61-.611.61.61,0,0,1,.61-.611A.639.639,0,0,1,5.418,51.359Zm39.546-13c0,.965-.61,1.415-1.7,1.415H41.176v-.965h2.086a.664.664,0,0,0,.418-.1.41.41,0,0,0,.128-.29.49.49,0,0,0-.128-.322.556.556,0,0,0-.385-.1c-.995-.032-2.247.032-2.247-1.383a1.354,1.354,0,0,1,1.54-1.351H44.74v.965H42.749a.76.76,0,0,0-.417.064.461.461,0,0,0-.16.354.351.351,0,0,0,.224.322,1.638,1.638,0,0,0,.418.064h.578a1.818,1.818,0,0,1,1.252.354,1.392,1.392,0,0,1,.321.965ZM40.438,37.4a1.819,1.819,0,0,0-1.252-.354h-.578a1.643,1.643,0,0,1-.417-.064.35.35,0,0,1-.224-.322.378.378,0,0,1,.16-.354.759.759,0,0,1,.417-.064h1.99v-.965H38.384c-1.156,0-1.541.708-1.541,1.351,0,1.415,1.252,1.351,2.247,1.383a.555.555,0,0,1,.385.1.492.492,0,0,1,.129.322.409.409,0,0,1-.129.29.729.729,0,0,1-.417.1H36.971v.965h2.086c1.091,0,1.7-.449,1.7-1.415a1.39,1.39,0,0,0-.321-.965Zm-4.109,1.448H33.794v-.9h2.471v-.9H33.794v-.837h2.535v-.933H32.734v4.5h3.595v-.933ZM31.579,35.5a2.688,2.688,0,0,0-1.316-.225H27.792v4.5h1.091v-1.64h1.156c.385,0,.61.032.77.193a1.438,1.438,0,0,1,.193.9v.547h1.059v-.869a1.487,1.487,0,0,0-.16-.836,1.252,1.252,0,0,0-.545-.386,1.239,1.239,0,0,0,.77-1.19A1.013,1.013,0,0,0,31.579,35.5Zm-6.1-.225H22.045l-1.38,1.48-1.316-1.48H15.016v4.5h4.269l1.38-1.48,1.316,1.48h2.086V38.267h1.348c.931,0,1.862-.257,1.862-1.512,0-1.222-.963-1.48-1.8-1.48Zm5.233,1.866a1.331,1.331,0,0,1-.514.064l-1.316.032v-1.03H30.2a.869.869,0,0,1,.514.1.409.409,0,0,1,.224.386.563.563,0,0,1-.225.45Zm-5.233.225H24.068V36.208H25.48c.385,0,.642.161.642.547a.583.583,0,0,1-.642.611Zm-4.141.161,1.669-1.769v3.635Zm-2.6,1.319H16.075v-.9H18.45v-.9H16.075v-.837h2.7l1.188,1.319-1.22,1.319Zm23.239-6.82h-1.54l-2.022-3.377v3.378H36.233l-.418-1H33.569l-.417,1H31.9a2.319,2.319,0,0,1-1.572-.515,2.358,2.358,0,0,1-.546-1.7,2.328,2.328,0,0,1,.578-1.769A2.175,2.175,0,0,1,32,27.522h1.027v.966H32a1.134,1.134,0,0,0-.834.257,1.46,1.46,0,0,0-.289,1.029,1.612,1.612,0,0,0,.289,1.062,1.069,1.069,0,0,0,.738.225h.482l1.54-3.538h1.605l1.8,4.247V27.522h1.669l1.894,3.12v-3.12h1.091v4.5h0Zm-12.742-4.5H28.145v4.5h1.091Zm-2.279.193a2.578,2.578,0,0,0-1.284-.193H23.2v4.5H24.26V30.385h1.156a1.1,1.1,0,0,1,.8.193,1.368,1.368,0,0,1,.16.869v.579H27.47v-.9a1.2,1.2,0,0,0-.192-.8,1.343,1.343,0,0,0-.514-.386,1.277,1.277,0,0,0,.77-1.19,1.115,1.115,0,0,0-.578-1.029Zm-4.526,3.378h-2.5v-.9H22.4V29.26H19.927v-.8h2.5v-.933H18.835v4.5H22.43v-.933Zm-4.4-3.571H16.268l-1.316,3.057L13.54,27.522H11.806v4.246l-1.83-4.246h-1.6l-1.926,4.5H7.6l.417-1h2.247l.417,1h2.183V28.488l1.573,3.538h.931l1.573-3.538v3.538h1.091v-4.5h0Zm17.4,2.541-.739-1.769-.738,1.769Zm-9.309-.707a.979.979,0,0,1-.546.1H24.261v-1h1.316a1.414,1.414,0,0,1,.546.064.479.479,0,0,1,.193.418.443.443,0,0,1-.193.418ZM8.4,30.064l.738-1.769.738,1.769ZM44.707,13.4H6.413V29.613l1.316-2.992h2.793l.385.74v-.74h3.274l.738,1.608.706-1.608H26.058a1.894,1.894,0,0,1,1.22.354v-.354h2.857v.354a3.817,3.817,0,0,1,1.8-.354h4.141l.385.74v-.74h3.05l.45.74v-.74h2.985v6.305H39.925l-.578-.965v.965H35.591L35.174,31.9h-.931l-.417,1.029H31.867a3.839,3.839,0,0,1-1.733-.386v.386H25.48V31.479c0-.193-.032-.225-.161-.225h-.16v1.673H16.171v-.8l-.321.8H13.957l-.321-.772v.772H10.008L9.623,31.9H8.692l-.417,1.029H6.413V51.938H44.707V40.39a3.922,3.922,0,0,1-1.573.29H40.342v-.386a2.471,2.471,0,0,1-1.444.386H30.1V39.232c0-.193-.032-.193-.193-.193h-.16v1.641H26.86v-1.7a3.529,3.529,0,0,1-1.509.225h-.321v1.48H21.5l-.834-.965-.931.965H14.053v-6.3H19.83l.835.965.9-.965h3.884a2.418,2.418,0,0,1,1.508.386v-.386h3.467a2.741,2.741,0,0,1,1.477.386v-.386h5.233v.386a2.131,2.131,0,0,1,1.316-.386h2.921v.386a2.317,2.317,0,0,1,1.348-.386h1.99Z" transform="translate(-4.07 -13.4)" fill="#485ba2" fill-rule="evenodd"/>
</svg>
