<svg id="Group_597" data-name="Group 597" xmlns="http://www.w3.org/2000/svg" width="52.421" height="38.442" viewBox="0 0 52.421 38.442">
  <path id="Path_720" data-name="Path 720" d="M15.725,13.218h-1.87v3.814h1.87a1.8,1.8,0,0,0,2.037-1.9,1.8,1.8,0,0,0-2.037-1.915Z" transform="translate(10.355 2.888)" fill="#485ba2"/>
  <path id="Path_721" data-name="Path 721" d="M17.964,17.31c0,.617.542,1.01,1.373,1.01a1.737,1.737,0,0,0,1.87-1.644v-.559l-1.749.122c-.98.059-1.494.421-1.494,1.069Z" transform="translate(13.426 5.056)" fill="#485ba2"/>
  <path id="Path_722" data-name="Path 722" d="M48.926,4H3.495A3.5,3.5,0,0,0,0,7.495V38.947a3.5,3.5,0,0,0,3.495,3.495H48.926a3.5,3.5,0,0,0,3.495-3.495V7.495A3.5,3.5,0,0,0,48.926,4ZM15.151,15.543a3.137,3.137,0,0,1,2.06-1.059,3.087,3.087,0,0,1-.727,2.233,2.6,2.6,0,0,1-2.074.989,2.92,2.92,0,0,1,.741-2.163Zm4,11.185c-.584.851-1.188,1.7-2.141,1.716-.937.017-1.237-.554-2.307-.554s-1.4.538-2.291.571c-.919.035-1.62-.921-2.207-1.768-1.2-1.735-2.118-4.9-.886-7.042A3.414,3.414,0,0,1,12.214,17.9c.9-.017,1.756.606,2.307.606s1.588-.751,2.677-.641a3.264,3.264,0,0,1,2.556,1.387,3.159,3.159,0,0,0-1.511,2.659,3.084,3.084,0,0,0,1.877,2.827,7.738,7.738,0,0,1-.966,1.99Zm7.274-1.555H24.208v3.275H22.716V18.853h3.757A3.022,3.022,0,0,1,29.641,22a3.055,3.055,0,0,1-3.215,3.168Zm9.638,3.259H34.694V27.226h-.031a2.522,2.522,0,0,1-2.277,1.281,2.175,2.175,0,0,1-2.459-2.127c0-1.267.979-1.992,2.761-2.113l1.945-.1V23.6c0-.828-.559-1.281-1.508-1.281a1.376,1.376,0,0,0-1.478,1.026H30.3c.045-1.283,1.253-2.219,2.866-2.219,1.765,0,2.9.937,2.9,2.354Zm4.919.332c-.619,1.735-1.3,2.293-2.777,2.293a3.744,3.744,0,0,1-.573-.03V29.85a2.249,2.249,0,0,0,.454.03A1.242,1.242,0,0,0,39.4,28.823l.1-.376L36.88,21.206h1.555l1.856,5.9h.03l1.856-5.9h1.508Z" transform="translate(0 -4)" fill="#485ba2"/>
</svg>
