<svg xmlns="http://www.w3.org/2000/svg" xmlns:xlink="http://www.w3.org/1999/xlink" width="148" height="148" viewBox="0 0 148 148">
  <defs>
    <clipPath id="clip-path">
      <rect id="Rectangle_2582" data-name="Rectangle 2582" width="85.542" height="82.389" fill="none"/>
    </clipPath>
  </defs>
  <g id="Group_6458" data-name="Group 6458" transform="translate(-1581 -1928)">
    <circle id="Ellipse_101" data-name="Ellipse 101" cx="74" cy="74" r="74" transform="translate(1581 1928)" fill="#fff"/>
    <g id="Group_6454" data-name="Group 6454" transform="translate(1612.229 1958.574)">
      <g id="Group_6453" data-name="Group 6453" clip-path="url(#clip-path)">
        <path id="Path_6281" data-name="Path 6281" d="M0,85.9c.268-1.5.469-3.015.815-4.5A27.364,27.364,0,0,1,6.162,70.574a5.859,5.859,0,0,0,.853-1.832c.776-2.4,1.478-4.829,2.273-7.225a1.547,1.547,0,0,1,1.771-1.081,1.5,1.5,0,0,1,1.385,1.351,3.4,3.4,0,0,1-.259,1.361c-.633,1.947-1.293,3.884-1.968,5.9,1.05.223,1.917.379,2.769.591A27.186,27.186,0,0,1,33.62,92.83a26.765,26.765,0,0,1-.287,8.556,18.869,18.869,0,0,0,.772,10.027c.074.21.158.416.229.626a1.674,1.674,0,0,1-1.389,2.464c-9.861,1.9-18.362-.755-25.374-7.886A26.361,26.361,0,0,1,.155,90.472,6.7,6.7,0,0,0,0,89.747V85.9m30.5,25.62c-.259-1.6-.555-3.127-.744-4.665-.338-2.746.31-5.423.614-8.13a23.913,23.913,0,0,0-12.818-23.87,22.8,22.8,0,0,0-7.681-2.425,2.912,2.912,0,0,0-.14.619c.045,2.583.082,5.168.188,7.749.011.268.4.639.695.757,2.013.8,4.054,1.537,6.074,2.324a1.654,1.654,0,0,1,1.11,2.19,1.686,1.686,0,0,1-2.292.9c-.237-.08-.471-.17-.7-.258l-4-1.506c.137.473.221.787.319,1.1a34.277,34.277,0,0,0,9.081,14.58,1.7,1.7,0,0,1,.205,2.569,1.64,1.64,0,0,1-2.5-.2c-1.317-1.4-2.584-2.838-3.859-4.273-.3-.342-.555-.731-.922-1.22-.116.53-.192.875-.268,1.221A1.67,1.67,0,1,1,9.6,98.338c.274-1.391.582-2.776.825-4.173a1.894,1.894,0,0,0-.13-1.1A36.6,36.6,0,0,1,6.3,77.343a6.1,6.1,0,0,0-.109-.691,23.685,23.685,0,0,0,1.761,25.289c5.892,8.131,15.577,10.834,22.551,9.581" transform="translate(0 -33.36)" fill="#3e4f65"/>
        <path id="Path_6282" data-name="Path 6282" d="M103.007,120.3a26.038,26.038,0,0,1-1.918-11.559c.765-10.626,5.95-18.364,15.409-23.235a26.6,26.6,0,0,1,3.157-1.3,18.935,18.935,0,0,0,8.235-5.778c.089-.107.178-.214.27-.318a1.7,1.7,0,0,1,2.9-.035,26.429,26.429,0,0,1,6.432,12.817,27.281,27.281,0,0,1-31.215,32.282,4.744,4.744,0,0,0-1.7.131c-2.52.555-5.025,1.178-7.549,1.715a1.592,1.592,0,0,1-1.98-1.314,1.641,1.641,0,0,1,1.482-1.939q2.775-.566,5.546-1.162c.291-.062.569-.183.935-.3M129.6,81.579c-4.214,3.734-5.374,4.466-9.409,5.957A23.922,23.922,0,0,0,104.8,114.672c.283,1.508.806,2.972,1.3,4.734,2.34-1.436,4.421-2.767,6.558-4a1.832,1.832,0,0,0,.909-2.321c-.4-1.9-.673-3.836-.942-5.764a1.579,1.579,0,0,1,1.3-1.918,1.625,1.625,0,0,1,1.94,1.386c.046.189.075.382.107.574.24,1.441.48,2.883.736,4.425a2.786,2.786,0,0,0,.4-.309c1.064-1.286,2.2-2.523,3.169-3.876a33.905,33.905,0,0,0,5.355-11.778,1.662,1.662,0,0,1,2.085-1.4,1.686,1.686,0,0,1,1.114,2.2,22.345,22.345,0,0,1-.6,2.17c-.532,1.565-1.1,3.116-1.692,4.767.3-.1.532-.167.76-.243,1.37-.454,2.282-.146,2.629.89.339,1.009-.217,1.8-1.61,2.268-1.158.392-2.337.736-3.47,1.19a2.691,2.691,0,0,0-1.185.924,37.189,37.189,0,0,1-11.421,11.082c-.171.106-.322.246-.555.426a23.4,23.4,0,0,0,20.512-13.173A23.738,23.738,0,0,0,129.6,81.579" transform="translate(-52.467 -42.674)" fill="#3e4f65"/>
        <path id="Path_6283" data-name="Path 6283" d="M34.628,126.343c-6.974,1.253-16.659-1.45-22.551-9.581a23.685,23.685,0,0,1-1.761-25.289,6.1,6.1,0,0,1,.109.691,36.6,36.6,0,0,0,3.992,15.719,1.894,1.894,0,0,1,.13,1.1c-.243,1.4-.551,2.782-.825,4.173a1.67,1.67,0,1,0,3.259.641c.076-.345.152-.691.268-1.221.366.489.618.878.922,1.22,1.275,1.435,2.542,2.878,3.859,4.273a1.64,1.64,0,0,0,2.5.2,1.7,1.7,0,0,0-.205-2.569,34.278,34.278,0,0,1-9.081-14.58c-.1-.31-.182-.624-.319-1.1l4,1.506c.234.088.468.178.7.258a1.686,1.686,0,0,0,2.292-.9,1.654,1.654,0,0,0-1.11-2.19c-2.02-.787-4.061-1.52-6.074-2.324-.3-.118-.684-.489-.695-.757-.106-2.581-.142-5.165-.188-7.749a2.912,2.912,0,0,1,.14-.619,22.8,22.8,0,0,1,7.681,2.425A23.913,23.913,0,0,1,34.5,113.548c-.3,2.707-.952,5.384-.614,8.13.189,1.538.485,3.063.744,4.665" transform="translate(-4.123 -48.181)" fill="#fff"/>
        <path id="Path_6284" data-name="Path 6284" d="M141.129,86.879a23.738,23.738,0,0,1,2.589,25.345A23.4,23.4,0,0,1,123.206,125.4c.233-.18.384-.321.555-.426a37.189,37.189,0,0,0,11.421-11.082,2.691,2.691,0,0,1,1.185-.924c1.133-.454,2.312-.8,3.47-1.19,1.393-.472,1.95-1.259,1.61-2.268-.348-1.036-1.26-1.344-2.629-.89-.228.076-.458.146-.76.243.589-1.651,1.16-3.2,1.692-4.767a22.345,22.345,0,0,0,.6-2.17,1.686,1.686,0,0,0-1.114-2.2,1.662,1.662,0,0,0-2.085,1.4A33.906,33.906,0,0,1,131.8,112.9c-.973,1.352-2.1,2.59-3.169,3.876a2.786,2.786,0,0,1-.4.309c-.256-1.542-.5-2.984-.736-4.425-.032-.192-.061-.385-.107-.574a1.625,1.625,0,0,0-1.94-1.386,1.579,1.579,0,0,0-1.3,1.918c.269,1.928.543,3.86.942,5.764a1.832,1.832,0,0,1-.909,2.321c-2.136,1.235-4.218,2.566-6.558,4-.489-1.762-1.012-3.226-1.3-4.734A23.922,23.922,0,0,1,131.72,92.836c4.035-1.491,5.194-2.223,9.409-5.957" transform="translate(-63.999 -47.974)" fill="#fff"/>
        <path id="Path_6285" data-name="Path 6285" d="M87.2,21.452q-1.583-.849-3.168-1.7a7.479,7.479,0,0,0,.2-1.693,7.6,7.6,0,0,0-.544-2.807c.42.2.838.412,1.253.631a6.517,6.517,0,0,0,.717.264A25.885,25.885,0,0,0,60.6,4.345c-10.9,1.284-18.642,9.082-21.165,16.4,1.666.607,3.279,1.138,4.847,1.778,2.8,1.142,5.008,3.188,7.428,4.922a26.135,26.135,0,0,0,29.606.5,24.927,24.927,0,0,0,6.409-6.034,3.181,3.181,0,0,0-.516-.464M61.17,7.383a1.619,1.619,0,0,1,.493-.107c-.166.033-.33.07-.493.107" transform="translate(-21.773 -2.296)" fill="#fff"/>
        <path id="Path_6286" data-name="Path 6286" d="M58.992,13.013A1.65,1.65,0,0,1,57.407,14.7a1.655,1.655,0,1,1-.073-3.31,1.652,1.652,0,0,1,1.659,1.619" transform="translate(-30.751 -6.292)" fill="#3e4f65"/>
        <path id="Path_6287" data-name="Path 6287" d="M86.539,22.04c-1.683,1.57-3.225,3.231-4.984,4.614a27.181,27.181,0,0,1-34.175-.66,20.145,20.145,0,0,0-10.034-4.773c-1.518-.242-2-1.124-1.525-2.586a26.744,26.744,0,0,1,3.628-7.2c.724-1.02,1.639-1.264,2.488-.678.821.566.88,1.537.243,2.582-.951,1.56-1.852,3.149-2.824,4.812,1.073.342,1.947.592,2.8.9a23.693,23.693,0,0,1,7.268,4.341,23.939,23.939,0,0,0,33.823-2.9c.176-.208.331-.432.555-.726-.683-.466-1.288-.957-1.961-1.323-1.733-.941-3.5-1.82-5.244-2.739a.878.878,0,0,0-1.111.16c-1.684,1.415-3.393,2.8-5.1,4.191a1.616,1.616,0,0,1-1.943.2,1.447,1.447,0,0,1-.772-1.693,2.469,2.469,0,0,1,.743-1.148c1.191-1.042,2.433-2.025,3.869-3.206-1.475-.278-2.728-.57-4-.742a34.5,34.5,0,0,0-14.221,1.035,2.766,2.766,0,0,1-1.536,0,1.421,1.421,0,0,1-.938-1.523,1.5,1.5,0,0,1,1.2-1.517c2.112-.482,4.238-.9,6.359-1.343.287-.06.581-.087,1.02-.15-.446-.412-.784-.7-1.089-1.011a1.671,1.671,0,0,1-.121-2.269,1.6,1.6,0,0,1,2.316-.183c1.155.962,2.255,1.99,3.406,2.958a1.748,1.748,0,0,0,.945.427,36.666,36.666,0,0,1,15.845,4.479,4.392,4.392,0,0,0,.488.169c-.235-.395-.368-.648-.528-.882A23.928,23.928,0,0,0,54.143,4.49a7.04,7.04,0,0,1-.877.265A1.631,1.631,0,0,1,51.3,3.623a1.583,1.583,0,0,1,1.056-2.005A34.53,34.53,0,0,1,57.519.3c9.639-1.282,17.868,1.547,24.5,8.729a26.814,26.814,0,0,1,5.316,8.812,3.486,3.486,0,0,0,.729,1.071c1.776,1.917,3.6,3.789,5.345,5.735a1.639,1.639,0,0,1-.149,2.505,1.709,1.709,0,0,1-2.424-.432c-1.334-1.494-2.686-2.971-4.034-4.452a1.871,1.871,0,0,0-.265-.227" transform="translate(-19.682 0)" fill="#3e4f65"/>
      </g>
    </g>
  </g>
</svg>
