<svg xmlns="http://www.w3.org/2000/svg" width="54.312" height="39.828" viewBox="0 0 54.312 39.828">
  <path id="Path_823" data-name="Path 823" d="M50.691,4H3.621A3.624,3.624,0,0,0,0,7.621V40.207a3.624,3.624,0,0,0,3.621,3.621h47.07a3.624,3.624,0,0,0,3.621-3.621V7.621A3.624,3.624,0,0,0,50.691,4Zm-30.8,28.184c0,.136-.007.27-.018.4a4,4,0,0,1-.55,1.761,4.713,4.713,0,0,1-2.884,2.064,8.538,8.538,0,0,1-2.127.165H8.147V28.5a.9.9,0,0,0,.163.054c.186.042.407.089.634.121a29.459,29.459,0,0,0,3.13.322c.214.011.431.014.663.014.259,0,.543-.005.891-.018.3-.009.559-.025.8-.047.091-.009.181-.018.268-.024q.323-.021.643-.071a5.236,5.236,0,0,0,3.009-1.414,3.191,3.191,0,0,0,.76-2.153V20.827a.774.774,0,0,0-.815-.724H15.184a.773.773,0,0,0-.815.724l-.013,4.716A1.651,1.651,0,0,1,13.263,26.9a3.277,3.277,0,0,1-1.191.194,7.622,7.622,0,0,1-.882-.058,9.827,9.827,0,0,1-2.364-.6.909.909,0,0,0-.679.013V15.936a4.88,4.88,0,0,1,.313-1.977,4.575,4.575,0,0,1,2.915-2.495,5.471,5.471,0,0,1,1.5-.223h7.015ZM33.045,12.3V32.26c0,.141,0,.284-.014.425a4.211,4.211,0,0,1-.851,2.1,5.144,5.144,0,0,1-2.712,1.666,8.6,8.6,0,0,1-2.035.134H21.285l-.005-8.777a6.778,6.778,0,0,0,.778.4,8.4,8.4,0,0,0,1.785.556,15.592,15.592,0,0,0,1.575.2c.362.031.719.036,1.146.036h.422a15.371,15.371,0,0,0,1.555-.054,25.547,25.547,0,0,0,2.725-.407.746.746,0,0,0,.623-.706v-.76a.71.71,0,0,0-.369-.606.9.9,0,0,0-.773-.056A10.72,10.72,0,0,1,28,27.051a5.8,5.8,0,0,1-1.986-.17h-.005a2.651,2.651,0,0,1-1.485-1.055,2.822,2.822,0,0,1-.264-2.194,2.236,2.236,0,0,1,1.148-1.412,3.911,3.911,0,0,1,1.475-.409,7.3,7.3,0,0,1,1.59.025,9.628,9.628,0,0,1,2.3.572.911.911,0,0,0,.773-.06.708.708,0,0,0,.368-.606V21a.752.752,0,0,0-.648-.711l-.183-.031-.223-.036a23.644,23.644,0,0,0-2.889-.346c-.476-.018-1-.025-1.539-.016a12.466,12.466,0,0,0-1.571.094l-.208.031a13.161,13.161,0,0,0-1.378.252,6.966,6.966,0,0,0-2,.827l-.005-4.741a5.517,5.517,0,0,1,.282-2.286,4.589,4.589,0,0,1,3-2.585,7.447,7.447,0,0,1,2.223-.206h6.269V12.3Zm13.12-.15V32.206a4.1,4.1,0,0,1-.639,2.268,4.835,4.835,0,0,1-2.98,1.986,8.586,8.586,0,0,1-1.964.121H34.423l-.009-7.875a.92.92,0,0,0,.355.072h5.666c.148,0,.3,0,.449.007l.467.005c.273,0,.5-.009.7-.027a3.932,3.932,0,0,0,1.834-.529,2.242,2.242,0,0,0,.789-.724,1.939,1.939,0,0,0,.333-1.378,2.4,2.4,0,0,0-1.879-1.876,2.418,2.418,0,0,0,.956-.762,1.947,1.947,0,0,0-.119-2.449l-.016-.018a3.292,3.292,0,0,0-1.977-.9,8.675,8.675,0,0,0-1.133-.054H34.756a.9.9,0,0,0-.351.072L34.4,15.483a3.865,3.865,0,0,1,.536-1.97A4.41,4.41,0,0,1,36.2,12.156a5.955,5.955,0,0,1,1.47-.706,9.944,9.944,0,0,1,2.158-.208l6.336,0Zm-6.351,11a.971.971,0,0,1-.71.248l-.246,0-1.923,0V21.921h1.986a2.21,2.21,0,0,1,.482.027.787.787,0,0,1,.561.442.7.7,0,0,1-.15.76Zm.521,2.906c0,.232-.152.829-1.119.829l-2.281,0V25.232h2.238a1.428,1.428,0,0,1,.775.15.778.778,0,0,1,.387.673Z" transform="translate(0 -4)" fill="#485ba2"/>
</svg>
