<svg width="62" height="40" viewBox="0 0 62 40" fill="none" xmlns="http://www.w3.org/2000/svg">
<path d="M57.661 39.852H3.6C2.64522 39.852 1.72955 39.4727 1.05442 38.7976C0.379285 38.1224 0 37.2068 0 36.252V3.99799C0 3.04322 0.379285 2.12754 1.05442 1.45241C1.72955 0.77728 2.64522 0.397995 3.6 0.397995L57.661 0.397995C58.6158 0.397995 59.5315 0.77728 60.2066 1.45241C60.8817 2.12754 61.261 3.04322 61.261 3.99799V36.254C61.2605 37.2084 60.881 38.1236 60.2059 38.7983C59.5308 39.473 58.6154 39.852 57.661 39.852ZM39.161 28.741C38.746 28.722 38.3327 28.8052 37.9573 28.9832C37.5819 29.1613 37.256 29.4287 37.008 29.762C36.4502 30.63 36.184 31.6533 36.248 32.683C36.2198 33.4849 36.3676 34.2833 36.681 35.022C36.8933 35.5377 37.2503 35.9808 37.709 36.298C38.1778 36.5573 38.7087 36.6828 39.244 36.661C39.6885 36.677 40.1292 36.5734 40.52 36.361C40.8709 36.1437 41.1599 35.8396 41.359 35.478C41.6078 35.0245 41.7769 34.5317 41.859 34.021L40.294 33.398C40.2474 33.7898 40.1179 34.1672 39.914 34.505C39.8289 34.6296 39.7132 34.7301 39.578 34.797C39.4428 34.8639 39.2926 34.8949 39.142 34.887C38.9757 34.8899 38.8117 34.8475 38.6676 34.7644C38.5235 34.6813 38.4047 34.5605 38.324 34.415C38.0856 33.8652 37.9857 33.2654 38.033 32.668C38.0028 32.1532 38.0861 31.6381 38.277 31.159C38.3496 30.9709 38.4767 30.8088 38.642 30.6935C38.8074 30.5783 39.0034 30.515 39.205 30.512C39.3771 30.5105 39.5455 30.5614 39.688 30.658C39.8414 30.7661 39.9666 30.9094 40.053 31.076C40.1323 31.2386 40.1904 31.4106 40.226 31.588L41.799 31.124C41.6672 30.4483 41.3461 29.8241 40.873 29.324C40.3995 28.9158 39.7862 28.7071 39.162 28.742L39.161 28.741ZM20.219 34.798L18.63 34.998C18.6906 35.4679 18.9105 35.9027 19.253 36.23C19.728 36.5627 20.3055 36.7161 20.883 36.663C21.3252 36.6843 21.7655 36.5921 22.162 36.395C22.4603 36.2301 22.7005 35.9773 22.85 35.671C22.9919 35.38 23.0664 35.0608 23.068 34.737C23.0711 34.4339 23.0004 34.1347 22.862 33.865C22.7283 33.6054 22.5191 33.3924 22.262 33.254C21.8877 33.0772 21.4865 32.9639 21.075 32.919C20.8378 32.8974 20.6062 32.8341 20.391 32.732C20.3402 32.6986 20.299 32.6526 20.2714 32.5984C20.2439 32.5442 20.231 32.4837 20.234 32.423C20.2331 32.3657 20.2436 32.3088 20.2648 32.2555C20.2861 32.2023 20.3178 32.1539 20.358 32.113C20.4126 32.0658 20.4762 32.0301 20.5449 32.0081C20.6137 31.9861 20.6861 31.9782 20.758 31.985C20.9256 31.9814 21.0884 32.041 21.214 32.152C21.3191 32.2592 21.3889 32.396 21.414 32.544L22.931 32.344C22.8496 32.0356 22.7141 31.7441 22.531 31.483C22.3788 31.2758 22.1736 31.1135 21.937 31.013C21.5829 30.8948 21.2099 30.8436 20.837 30.862C20.4511 30.8478 20.0665 30.9159 19.709 31.062C19.4339 31.1884 19.2034 31.3951 19.048 31.655C18.894 31.9362 18.8117 32.2511 18.8086 32.5717C18.8054 32.8924 18.8815 33.2088 19.03 33.493C19.1532 33.7281 19.3432 33.9216 19.576 34.049C19.9484 34.2054 20.3362 34.3224 20.733 34.398C20.9714 34.4393 21.2029 34.5134 21.421 34.618C21.479 34.6568 21.5261 34.7097 21.5578 34.7719C21.5895 34.834 21.6047 34.9033 21.602 34.973C21.6036 35.036 21.5922 35.0986 21.5684 35.1569C21.5447 35.2153 21.5091 35.2681 21.464 35.312C21.3979 35.3755 21.3193 35.4247 21.2333 35.4563C21.1472 35.488 21.0555 35.5015 20.964 35.496C20.7917 35.5044 20.6228 35.4464 20.492 35.334C20.3523 35.1837 20.2574 34.9974 20.218 34.796L20.219 34.798ZM53.119 30.861C52.8632 30.8637 52.6125 30.9325 52.391 31.0605C52.1696 31.1886 51.985 31.3717 51.855 31.592C51.4846 32.2309 51.3107 32.9648 51.355 33.702C51.3342 34.4258 51.489 35.1439 51.806 35.795C51.9146 36.0501 52.0956 36.2677 52.3267 36.421C52.5578 36.5742 52.8287 36.6563 53.106 36.657C53.3814 36.659 53.6505 36.5751 53.876 36.417C54.111 36.2208 54.3059 35.9811 54.45 35.711V36.531H55.95V28.872H54.335V31.524C54.1951 31.3186 54.0105 31.1477 53.795 31.024C53.5864 30.9118 53.3528 30.8543 53.116 30.857L53.119 30.861ZM44.9 32.12C44.9786 32.1115 45.0581 32.1212 45.1324 32.1484C45.2066 32.1757 45.2735 32.2197 45.328 32.277C45.424 32.4428 45.4663 32.6342 45.449 32.825C45.2666 32.9221 45.0779 33.0066 44.884 33.078C44.704 33.143 44.311 33.257 43.716 33.415C43.3116 33.4884 42.9466 33.7032 42.686 34.021C42.4893 34.3308 42.3919 34.6933 42.407 35.06C42.3943 35.4721 42.5319 35.8748 42.794 36.193C42.9362 36.3501 43.112 36.4731 43.3084 36.5527C43.5047 36.6324 43.7165 36.6667 43.928 36.653C44.2708 36.6604 44.6099 36.5813 44.914 36.423C45.1582 36.2748 45.3706 36.0797 45.539 35.849C45.5507 35.9676 45.5691 36.0854 45.594 36.202C45.6252 36.3134 45.6646 36.4224 45.712 36.528H47.212C47.1408 36.3445 47.0859 36.1551 47.048 35.962C47.0199 35.7586 47.0076 35.5533 47.011 35.348V32.898C47.0082 32.6197 46.9685 32.3429 46.893 32.075C46.8357 31.8324 46.7258 31.6054 46.571 31.41C46.3824 31.1876 46.1277 31.0313 45.844 30.964C45.4641 30.8838 45.0762 30.8479 44.688 30.857C44.4079 30.8552 44.1285 30.8847 43.855 30.945C43.6383 30.9873 43.4322 31.0727 43.249 31.196C43.0544 31.3349 42.8937 31.5161 42.779 31.726C42.6519 31.9903 42.5678 32.2732 42.53 32.564L44.059 32.778C44.0921 32.5937 44.1783 32.423 44.307 32.287C44.4789 32.1633 44.6888 32.1042 44.9 32.12ZM29.562 30.857C29.2305 30.8427 28.9003 30.9079 28.599 31.047C28.2978 31.1862 28.0341 31.3953 27.83 31.657C27.3907 32.2665 27.1698 33.0064 27.203 33.757C27.191 34.3033 27.2974 34.8457 27.515 35.347C27.6801 35.743 27.9532 36.0846 28.303 36.333C28.699 36.5602 29.1521 36.6682 29.608 36.644C30.1224 36.6755 30.6341 36.5484 31.074 36.28C31.4683 35.9664 31.77 35.5517 31.947 35.08L30.371 34.898C30.2998 35.0305 30.2053 35.1491 30.092 35.248C29.9638 35.3478 29.8065 35.4029 29.644 35.405C29.5211 35.4028 29.4009 35.3683 29.2956 35.3049C29.1903 35.2415 29.1035 35.1516 29.044 35.044C28.9142 34.8108 28.8425 34.5498 28.835 34.283H32.043V34.043C32.0628 33.4377 31.971 32.834 31.772 32.262C31.6183 31.8432 31.3433 31.4797 30.982 31.218C30.5565 30.9559 30.0611 30.8299 29.562 30.857ZM23.571 30.982V32.533H24.161V34.486C24.1425 34.9385 24.1883 35.3913 24.297 35.831C24.3665 36.0764 24.5131 36.2931 24.715 36.449C24.9818 36.6029 25.2889 36.6726 25.596 36.649C25.9716 36.6438 26.3447 36.5855 26.704 36.476L26.586 35.009C26.4294 35.0853 26.2597 35.1315 26.086 35.145C26.0272 35.1481 25.969 35.1326 25.9196 35.1006C25.8702 35.0686 25.8322 35.0219 25.811 34.967C25.7671 34.8144 25.7498 34.6554 25.76 34.497V32.532H26.641V30.982H25.76V28.872L24.16 29.963V30.982H23.571ZM15.831 32.12C15.9096 32.1115 15.9891 32.1212 16.0634 32.1484C16.1376 32.1757 16.2045 32.2197 16.259 32.277C16.3558 32.4425 16.3985 32.6341 16.381 32.825C16.1984 32.9222 16.0092 33.0067 15.815 33.078C15.637 33.143 15.255 33.253 14.648 33.415C14.2433 33.4882 13.8778 33.703 13.617 34.021C13.4203 34.3308 13.3229 34.6933 13.338 35.06C13.3253 35.4721 13.4629 35.8748 13.725 36.193C13.8672 36.3501 14.043 36.4731 14.2394 36.5527C14.4357 36.6324 14.6475 36.6667 14.859 36.653C15.2021 36.6603 15.5415 36.5812 15.846 36.423C16.0901 36.2747 16.3026 36.0797 16.471 35.849C16.4831 35.9675 16.5015 36.0854 16.526 36.202C16.5577 36.3133 16.5971 36.4222 16.644 36.528H18.144C18.0729 36.3446 18.0184 36.1551 17.981 35.962C17.9521 35.7587 17.9394 35.5533 17.943 35.348V32.898C17.9402 32.6197 17.9005 32.3429 17.825 32.075C17.7681 31.8323 17.6582 31.6051 17.503 31.41C17.3144 31.1876 17.0597 31.0313 16.776 30.964C16.3961 30.8837 16.0082 30.8478 15.62 30.857C15.3399 30.8552 15.0605 30.8847 14.787 30.945C14.5703 30.9873 14.3642 31.0727 14.181 31.196C13.9864 31.3349 13.8257 31.5161 13.711 31.726C13.5839 31.9903 13.4998 32.2732 13.462 32.564L14.991 32.778C15.0239 32.5936 15.1101 32.4229 15.239 32.287C15.4106 32.1635 15.6202 32.1044 15.831 32.12ZM48 30.982V36.527H49.61V34.668C49.568 34.0518 49.6524 33.4334 49.858 32.851C49.896 32.7516 49.9627 32.6658 50.0496 32.6043C50.1365 32.5429 50.2396 32.5087 50.346 32.506C50.5056 32.5226 50.659 32.5764 50.794 32.663L51.289 31.149C51.0666 30.9754 50.7967 30.8735 50.515 30.857C50.4104 30.8544 50.3063 30.8726 50.2088 30.9105C50.1113 30.9485 50.0223 31.0054 49.947 31.078C49.7432 31.3145 49.5913 31.5911 49.501 31.89V30.982H48ZM32.795 30.982V36.527H34.403V34.668C34.3603 34.0518 34.4444 33.4334 34.65 32.851C34.6878 32.7517 34.7543 32.6659 34.841 32.6044C34.9278 32.543 35.0308 32.5087 35.137 32.506C35.2966 32.5223 35.4501 32.5761 35.585 32.663L36.085 31.149C35.862 30.9757 35.5919 30.8739 35.31 30.857C35.2054 30.8545 35.1014 30.8728 35.0039 30.9107C34.9064 30.9487 34.8174 31.0055 34.742 31.078C34.5388 31.3149 34.387 31.5914 34.296 31.89V30.982H32.795ZM11.053 30.698V36.525H12.51V28.872H10.174L9.274 33.529L8.374 28.872H6.027V36.526H7.486V30.689L8.61 36.527H9.927L11.053 30.698ZM30.533 23.442C31.9558 24.9014 33.7813 25.9034 35.7765 26.3201C37.7716 26.7367 39.8456 26.549 41.7335 25.7811C43.6214 25.0131 45.2375 23.6996 46.3752 22.0086C47.5129 20.3175 48.1206 18.3256 48.1206 16.2875C48.1206 14.2493 47.5129 12.2575 46.3752 10.5664C45.2375 8.87537 43.6214 7.56193 41.7335 6.79393C39.8456 6.02594 37.7716 5.83828 35.7765 6.25493C33.7813 6.67158 31.9558 7.67362 30.533 9.13299C29.1102 7.67362 27.2847 6.67158 25.2895 6.25493C23.2944 5.83828 21.2204 6.02594 19.3325 6.79393C17.4446 7.56193 15.8285 8.87537 14.6908 10.5664C13.5531 12.2575 12.9454 14.2493 12.9454 16.2875C12.9454 18.3256 13.5531 20.3175 14.6908 22.0086C15.8285 23.6996 17.4446 25.0131 19.3325 25.7811C21.2204 26.549 23.2944 26.7367 25.2895 26.3201C27.2847 25.9034 29.1102 24.9014 30.533 23.442ZM44.533 35.47C44.4606 35.4753 44.3879 35.4637 44.3207 35.4361C44.2536 35.4086 44.1937 35.3657 44.146 35.311C44.0603 35.1953 44.014 35.055 44.014 34.911C44.014 34.767 44.0603 34.6267 44.146 34.511C44.3201 34.3482 44.5322 34.2316 44.763 34.172C44.9976 34.0934 45.2274 34.0009 45.451 33.895V34.234C45.4566 34.4532 45.4227 34.6717 45.351 34.879C45.2836 35.0469 45.1703 35.1925 45.024 35.299C44.8842 35.4084 44.7125 35.4692 44.535 35.472L44.533 35.47ZM15.46 35.47C15.3874 35.4754 15.3146 35.4639 15.2472 35.4363C15.1799 35.4087 15.1199 35.3658 15.072 35.311C14.986 35.1954 14.9395 35.0551 14.9395 34.911C14.9395 34.7669 14.986 34.6266 15.072 34.511C15.246 34.348 15.4582 34.2315 15.689 34.172C15.9236 34.0932 16.1533 34.0007 16.377 33.895V34.234C16.3827 34.4533 16.3488 34.6717 16.277 34.879C16.2096 35.0469 16.0963 35.1925 15.95 35.299C15.8106 35.4084 15.6392 35.4691 15.462 35.472L15.46 35.47ZM53.631 35.098C53.5297 35.0934 53.4315 35.0617 53.3467 35.0061C53.2619 34.9505 53.1936 34.8731 53.149 34.782C52.9977 34.4714 52.9308 34.1266 52.955 33.782C52.9291 33.4272 52.9941 33.0716 53.144 32.749C53.1871 32.6602 53.2533 32.5847 53.3357 32.5304C53.418 32.476 53.5134 32.4448 53.612 32.44C53.7203 32.4425 53.826 32.4735 53.9185 32.5299C54.011 32.5862 54.0871 32.6659 54.139 32.761C54.2972 33.0601 54.3692 33.3973 54.347 33.735C54.375 34.0933 54.3059 34.4526 54.147 34.775C54.0976 34.87 54.0237 34.95 53.933 35.0068C53.8423 35.0636 53.738 35.0951 53.631 35.098ZM30.411 33.265H28.835C28.8423 33.006 28.905 32.7516 29.019 32.519C29.0729 32.402 29.1585 32.3025 29.2662 32.2318C29.3739 32.161 29.4992 32.122 29.628 32.119C29.7317 32.1169 29.8344 32.14 29.9273 32.1863C30.0201 32.2327 30.1003 32.3008 30.161 32.385C30.3224 32.6506 30.4085 32.9552 30.41 33.266L30.411 33.265ZM30.532 23.446C28.6667 21.5318 27.6229 18.9647 27.6229 16.292C27.6229 13.6193 28.6667 11.0522 30.532 9.13799C32.3977 11.052 33.4419 13.6191 33.4419 16.292C33.4419 18.9649 32.3977 21.532 30.532 23.446Z" fill="#485BA2"/>
</svg>
