<svg id="layer1" xmlns="http://www.w3.org/2000/svg" width="130.944" height="40.783" viewBox="0 0 130.944 40.783">
  <g id="g6662" transform="translate(0 0.398)">
    <path id="Exclusion_1" data-name="Exclusion 1" d="M57.661,39.454H3.6a3.6,3.6,0,0,1-3.6-3.6V3.6A3.6,3.6,0,0,1,3.6,0H57.661a3.6,3.6,0,0,1,3.6,3.6V35.856A3.6,3.6,0,0,1,57.661,39.454Zm-18.5-11.111a2.539,2.539,0,0,0-2.153,1.021,4.847,4.847,0,0,0-.76,2.921,5.493,5.493,0,0,0,.433,2.339A2.888,2.888,0,0,0,37.709,35.9a2.925,2.925,0,0,0,1.535.363,2.484,2.484,0,0,0,1.276-.3,2.4,2.4,0,0,0,.839-.883,4.522,4.522,0,0,0,.5-1.457L40.294,33a2.776,2.776,0,0,1-.38,1.107.879.879,0,0,1-.772.382.917.917,0,0,1-.818-.472,3.665,3.665,0,0,1-.291-1.747,3.521,3.521,0,0,1,.244-1.509,1.011,1.011,0,0,1,.928-.647.848.848,0,0,1,.483.146,1.171,1.171,0,0,1,.365.418,2.12,2.12,0,0,1,.173.512l1.573-.464a3.631,3.631,0,0,0-.926-1.8A2.414,2.414,0,0,0,39.162,28.344ZM20.219,34.4l-1.589.2a2.07,2.07,0,0,0,.623,1.232,2.45,2.45,0,0,0,1.63.433,2.593,2.593,0,0,0,1.279-.268,1.659,1.659,0,0,0,.688-.724,2.155,2.155,0,0,0,.218-.934,1.869,1.869,0,0,0-.206-.872,1.445,1.445,0,0,0-.6-.611,3.726,3.726,0,0,0-1.187-.335,2.022,2.022,0,0,1-.684-.187.349.349,0,0,1-.157-.309.432.432,0,0,1,.124-.31.535.535,0,0,1,.4-.128.667.667,0,0,1,.456.167.735.735,0,0,1,.2.392l1.517-.2a2.7,2.7,0,0,0-.4-.861,1.431,1.431,0,0,0-.594-.47,3.006,3.006,0,0,0-1.1-.151,2.718,2.718,0,0,0-1.128.2,1.5,1.5,0,0,0-.661.593,1.948,1.948,0,0,0-.018,1.838,1.346,1.346,0,0,0,.546.556A5.781,5.781,0,0,0,20.733,34a2.629,2.629,0,0,1,.688.22.408.408,0,0,1,.181.355.457.457,0,0,1-.138.339.664.664,0,0,1-.5.184.674.674,0,0,1-.472-.162,1.1,1.1,0,0,1-.274-.538Zm32.9-3.937a1.486,1.486,0,0,0-1.264.731,3.758,3.758,0,0,0-.5,2.11,4.487,4.487,0,0,0,.451,2.093,1.417,1.417,0,0,0,1.3.862,1.325,1.325,0,0,0,.77-.24,2.379,2.379,0,0,0,.574-.706v.82h1.5V28.474H54.335v2.652a1.643,1.643,0,0,0-.54-.5A1.4,1.4,0,0,0,53.116,30.459ZM44.9,31.722a.514.514,0,0,1,.428.157.927.927,0,0,1,.121.548,4.551,4.551,0,0,1-.565.253c-.18.065-.573.179-1.168.337a1.732,1.732,0,0,0-1.03.606,1.8,1.8,0,0,0-.279,1.039,1.7,1.7,0,0,0,.387,1.133,1.407,1.407,0,0,0,1.134.46,2.04,2.04,0,0,0,.986-.23,2.165,2.165,0,0,0,.625-.574,3.2,3.2,0,0,0,.055.353,2.329,2.329,0,0,0,.118.326h1.5a3.35,3.35,0,0,1-.164-.566,4,4,0,0,1-.037-.614V32.5a3.153,3.153,0,0,0-.118-.823,1.7,1.7,0,0,0-.322-.665,1.367,1.367,0,0,0-.727-.446,5.029,5.029,0,0,0-1.156-.107,3.757,3.757,0,0,0-.833.088,1.652,1.652,0,0,0-.606.251,1.585,1.585,0,0,0-.47.53,2.751,2.751,0,0,0-.249.838l1.529.214a.962.962,0,0,1,.248-.491A.9.9,0,0,1,44.9,31.722ZM29.562,30.459a2.083,2.083,0,0,0-1.732.8,3.339,3.339,0,0,0-.627,2.1,3.784,3.784,0,0,0,.312,1.59,2.29,2.29,0,0,0,.788.986,2.37,2.37,0,0,0,1.305.311,2.519,2.519,0,0,0,1.466-.364,2.782,2.782,0,0,0,.873-1.2L30.371,34.5a1.25,1.25,0,0,1-.279.35.745.745,0,0,1-.448.157.7.7,0,0,1-.6-.361,1.661,1.661,0,0,1-.209-.761h3.208v-.24a4.929,4.929,0,0,0-.271-1.781,2.243,2.243,0,0,0-.79-1.044A2.454,2.454,0,0,0,29.562,30.459Zm-5.991.125v1.551h.59v1.953a4.79,4.79,0,0,0,.136,1.345,1.191,1.191,0,0,0,.418.618,1.528,1.528,0,0,0,.881.2,3.989,3.989,0,0,0,1.108-.173l-.118-1.467a1.387,1.387,0,0,1-.5.136.279.279,0,0,1-.275-.178,1.378,1.378,0,0,1-.051-.47V32.134h.881V30.584h-.881v-2.11l-1.6,1.091v1.019Zm-7.74,1.138a.514.514,0,0,1,.428.157.919.919,0,0,1,.122.548,4.511,4.511,0,0,1-.566.253c-.178.065-.56.175-1.167.337a1.732,1.732,0,0,0-1.031.606,1.8,1.8,0,0,0-.279,1.039,1.7,1.7,0,0,0,.387,1.133,1.407,1.407,0,0,0,1.134.46,2.047,2.047,0,0,0,.987-.23,2.166,2.166,0,0,0,.625-.574,3.378,3.378,0,0,0,.055.353,2.471,2.471,0,0,0,.118.326h1.5a3.3,3.3,0,0,1-.163-.566,3.871,3.871,0,0,1-.038-.614V32.5a3.153,3.153,0,0,0-.118-.823,1.687,1.687,0,0,0-.322-.665,1.367,1.367,0,0,0-.727-.446,5.013,5.013,0,0,0-1.156-.107,3.761,3.761,0,0,0-.833.088,1.652,1.652,0,0,0-.606.251,1.585,1.585,0,0,0-.47.53,2.751,2.751,0,0,0-.249.838l1.529.214a.958.958,0,0,1,.248-.491A.9.9,0,0,1,15.831,31.722ZM48,30.584v5.545H49.61V34.27a4.531,4.531,0,0,1,.248-1.817.537.537,0,0,1,.488-.345,1.026,1.026,0,0,1,.448.157l.495-1.514a1.39,1.39,0,0,0-.774-.292.79.79,0,0,0-.568.221,2.233,2.233,0,0,0-.446.812v-.908Zm-15.205,0v5.545h1.608V34.27a4.52,4.52,0,0,1,.247-1.817.536.536,0,0,1,.487-.345,1.019,1.019,0,0,1,.448.157l.5-1.514a1.4,1.4,0,0,0-.775-.292.793.793,0,0,0-.568.221,2.259,2.259,0,0,0-.446.812v-.908ZM11.053,30.3h0v5.827H12.51V28.474H10.174l-.9,4.657-.9-4.657H6.027v7.654H7.486V30.291L8.61,36.129H9.927Zm19.48-7.256h0a10.249,10.249,0,1,0,0-14.309,10.249,10.249,0,1,0,0,14.309Zm14,12.028a.468.468,0,0,1-.387-.159.672.672,0,0,1,0-.8,1.425,1.425,0,0,1,.617-.339,6.214,6.214,0,0,0,.688-.277v.339a1.831,1.831,0,0,1-.1.645.964.964,0,0,1-.327.42A.814.814,0,0,1,44.535,35.074Zm-29.073,0a.469.469,0,0,1-.388-.159.67.67,0,0,1,0-.8,1.421,1.421,0,0,1,.617-.339,6.307,6.307,0,0,0,.688-.277v.339a1.827,1.827,0,0,1-.1.645.964.964,0,0,1-.327.42A.812.812,0,0,1,15.462,35.074ZM53.631,34.7a.565.565,0,0,1-.482-.316,1.969,1.969,0,0,1-.194-1,2.09,2.09,0,0,1,.189-1.033.55.55,0,0,1,.468-.309.617.617,0,0,1,.527.321,1.827,1.827,0,0,1,.208.974,2,2,0,0,1-.2,1.04A.6.6,0,0,1,53.631,34.7Zm-23.22-1.833H28.835a1.811,1.811,0,0,1,.184-.746.688.688,0,0,1,.609-.4.641.641,0,0,1,.533.266,1.713,1.713,0,0,1,.249.881Zm.121-9.819h0a10.251,10.251,0,0,1,0-14.308,10.249,10.249,0,0,1,0,14.308Z" transform="translate(0 0)" fill="#485ba2"/>
  </g>
  <g id="Group_252" data-name="Group 252" transform="translate(75.331 0)">
    <path id="Path_727" data-name="Path 727" d="M51.906,4H3.708A3.711,3.711,0,0,0,0,7.708V41.075a3.711,3.711,0,0,0,3.708,3.708h48.2a3.711,3.711,0,0,0,3.708-3.708V7.708A3.711,3.711,0,0,0,51.906,4ZM53.76,41.075a1.857,1.857,0,0,1-1.854,1.854H3.708a1.857,1.857,0,0,1-1.854-1.854V7.708A1.857,1.857,0,0,1,3.708,5.854h48.2A1.857,1.857,0,0,1,53.76,7.708Z" transform="translate(0 -4)" fill="#485ba2"/>
    <path id="Path_728" data-name="Path 728" d="M9.959,15.956a.371.371,0,0,0,.423.1.315.315,0,0,0,.2-.36L10,13.158l0-.017a1.283,1.283,0,0,0-1.351-.851H8.629l-3.277,0a.34.34,0,0,0-.343.265.319.319,0,0,0,.224.358A10.214,10.214,0,0,1,9.96,15.956Z" transform="translate(4.273 3.075)" fill="#485ba2"/>
    <path id="Path_729" data-name="Path 729" d="M27.319,12.3H25.187a1.57,1.57,0,0,0-1.637.877l-4.418,9.234a.3.3,0,0,0,.026.306.354.354,0,0,0,.293.146h2.5a.35.35,0,0,0,.326-.208c.306-.749.5-1.225.569-1.379h1.806l2.193,0c.072.28.248,1.023.321,1.329a.344.344,0,0,0,.341.254h2.182a.359.359,0,0,0,.271-.12.3.3,0,0,0,.07-.271l-2.373-9.92a.343.343,0,0,0-.341-.252Zm-3.57,6.813,1.659-3.963.211.912.723,3.051h-2.6Z" transform="translate(16.31 3.089)" fill="#485ba2"/>
    <path id="Path_730" data-name="Path 730" d="M16.657,12.447a.358.358,0,0,0-.291-.145h-2.54a.349.349,0,0,0-.324.2l-2.972,7-.319-1.066a.263.263,0,0,0-.017-.043,11.2,11.2,0,0,0-3.487-3.822.374.374,0,0,0-.41-.011.309.309,0,0,0-.137.356l2.44,7.7a.347.347,0,0,0,.334.23l2.814,0a.352.352,0,0,0,.321-.193l4.616-9.907a.3.3,0,0,0-.03-.3Z" transform="translate(5.248 3.088)" fill="#485ba2"/>
    <path id="Path_731" data-name="Path 731" d="M16.206,12.3H13.79a.341.341,0,0,0-.345.267l-1.833,9.927a.305.305,0,0,0,.078.261.356.356,0,0,0,.267.115h2.414a.343.343,0,0,0,.345-.269l1.835-9.925a.3.3,0,0,0-.078-.261.361.361,0,0,0-.267-.115Z" transform="translate(9.91 3.084)" fill="#485ba2"/>
    <path id="Path_732" data-name="Path 732" d="M20.488,14.432h.093a5.906,5.906,0,0,1,2.034.347.374.374,0,0,0,.3-.02.324.324,0,0,0,.172-.226L23.365,13a.319.319,0,0,0-.237-.36,8.591,8.591,0,0,0-2.41-.337c-2.979,0-5.07,1.383-5.087,3.363-.019,1.464,1.5,2.282,2.636,2.77,1.172.5,1.565.818,1.559,1.264-.007.684-.938.994-1.8.994a6.814,6.814,0,0,1-2.821-.528.375.375,0,0,0-.3.015.324.324,0,0,0-.176.228l-.3,1.613a.321.321,0,0,0,.228.358,11.066,11.066,0,0,0,3.077.445h0c3.161,0,5.218-1.37,5.241-3.485.011-1.162-.792-2.039-2.521-2.762-1.057-.475-1.705-.79-1.7-1.272,0-.434.593-.871,1.731-.871Z" transform="translate(12.317 3.09)" fill="#485ba2"/>
  </g>
</svg>
