<svg xmlns="http://www.w3.org/2000/svg" width="148" height="148" viewBox="0 0 148 148">
  <g id="Group_6457" data-name="Group 6457" transform="translate(-1118 -1928)">
    <circle id="Ellipse_100" data-name="Ellipse 100" cx="74" cy="74" r="74" transform="translate(1118 1928)" fill="#fff"/>
    <g id="Spring_icon-04" data-name="Spring icon-04" transform="translate(1031.46 1860.963)">
      <path id="Path_6005" data-name="Path 6005" d="M198.406,169.519q-.057-30.245-.022-60.492c0-.349.012-.7-.01-1.047a4.021,4.021,0,0,0-3.345-3.709c-.607-.082-1.24.01-1.847-.077a8.807,8.807,0,0,1-2.306-.508c-3.363-1.473-6.69-3.027-10.038-4.536a2.7,2.7,0,0,0-4.072,2.616c-.007.792,0,1.583,0,2.39H144.286c0-.82,0-1.591,0-2.361-.018-2.438-1.9-3.643-4.112-2.634-3,1.366-6.016,2.7-8.988,4.125a8.944,8.944,0,0,1-4.242.949,3.958,3.958,0,0,0-4.273,4.268q0,30.852,0,61.7a5.336,5.336,0,0,0,.107,1.117,4.122,4.122,0,0,0,2.782,3.044c-.16,2.977.661,4.6,2.774,5.139a5.234,5.234,0,0,0,2.589-.077,3.925,3.925,0,0,0,2.594-2.934c2.325,1.063,4.556,2.112,6.811,3.107a2.674,2.674,0,0,0,3.955-2.609c.008-.8,0-1.6,0-2.423h32.488c0,.958-.015,1.865,0,2.772a2.546,2.546,0,0,0,1.471,2.323,2.734,2.734,0,0,0,2.553-.043c2.228-1.043,4.463-2.077,6.7-3.117,1.047,2.824,3,4.019,5.317,3.285a4.1,4.1,0,0,0,2.546-5.4c2.326-.844,3.05-2.544,3.047-4.869Zm-70.383,2.271c-.5,0-.96.033-1.408-.008a1.242,1.242,0,0,1-1.22-1.255c-.025-.293-.012-.591-.012-.885q0-30.288-.027-60.574c0-2.183,1.045-2.363,2.667-2.105v64.827Zm1.366,5.433a1.345,1.345,0,0,1-1.293-1.371c0-.649.556-1.325,1.073-1.31.692.02,1.561.77,1.558,1.346A1.367,1.367,0,0,1,129.389,177.224Zm12.156-.077c-.293-.111-.516-.181-.727-.278-3.123-1.421-6.239-2.859-9.372-4.253a1,1,0,0,1-.691-1.082q.02-32.182,0-64.364a1,1,0,0,1,.694-1.077c3.158-1.406,6.3-2.851,9.449-4.28.19-.087.389-.151.649-.251v75.584Zm2.791-70.215h32.389v2.611H144.336Zm32.371,64.82H144.331v-2.579h32.376Zm.018-5.41h-6.719v-.093c-.917.013-1.834.022-2.749.03v.087H153.829v-.027H151.05v.03h-6.71V143.458h32.386v22.881Zm0-25.712H144.341v-2.584h32.384Zm0-5.4h-5.814a.966.966,0,0,1-.493.13H154.69a.968.968,0,0,1-.444-.1h-9.908V112.38h9.39a.957.957,0,0,1,.489-.128h4.358a1.014,1.014,0,0,1,.409.082h6.284a.974.974,0,0,1,.414-.082c1.516.007,3.032.088,4.548.095a.869.869,0,0,1,.095.01h6.4v22.871Zm13.574,36.3a1,1,0,0,1-.682,1.087c-3.112,1.378-6.2,2.8-9.3,4.212-.236.108-.481.2-.8.333V101.574c.22.077.413.128.594.21,3.172,1.439,6.335,2.9,9.517,4.313a1,1,0,0,1,.674,1.092q-.02,32.172,0,64.345Zm1.38,5.694a1.352,1.352,0,0,1-1.365-1.3c-.018-.6.8-1.318,1.531-1.355a1.289,1.289,0,0,1,1.112,1.268,1.342,1.342,0,0,1-1.276,1.385Zm3.992-68.483V169.96c0,1.456-.4,1.85-1.869,1.847h-.772v-64.9a12.272,12.272,0,0,1,1.406.01,1.306,1.306,0,0,1,1.231,1.346c.01.16.007.323.007.483Z" fill="#39526a"/>
      <path id="Path_6006" data-name="Path 6006" d="M464.27,191.04V115.45c.22.077.413.128.594.21,3.172,1.439,6.335,2.9,9.517,4.313a1,1,0,0,1,.674,1.092q-.02,32.172,0,64.345a1,1,0,0,1-.682,1.087c-3.112,1.378-6.2,2.8-9.3,4.212C464.837,190.816,464.593,190.907,464.27,191.04Zm6.432-48.6a4.021,4.021,0,0,0-3.789,4.125c-.03,2.6-.008,5.209-.008,7.813,0,2.739-.018,5.478.007,8.215a4.108,4.108,0,0,0,3.6,4.164,1.472,1.472,0,0,0,1.8-1.188c.088-.789-.434-1.35-1.409-1.514a1.38,1.38,0,0,1-1.291-1.558q-.012-7.9,0-15.789a1.39,1.39,0,0,1,1.341-1.593c.942-.186,1.429-.719,1.361-1.481-.07-.779-.651-1.208-1.621-1.2Z" transform="translate(-284.756 -13.876)" fill="#fff"/>
      <path id="Path_6007" data-name="Path 6007" d="M182.04,190.975c-.293-.111-.516-.181-.727-.278-3.123-1.421-6.239-2.859-9.372-4.253a1,1,0,0,1-.691-1.082q.02-32.182,0-64.364a1,1,0,0,1,.694-1.077c3.158-1.406,6.3-2.851,9.449-4.28.19-.087.388-.151.649-.251v75.584Zm-2.639-36.47c0-2.443.007-4.887,0-7.33a8.992,8.992,0,0,0-.128-1.681,3.924,3.924,0,0,0-4.124-3.087,1.213,1.213,0,0,0-1.155,1.228,1.275,1.275,0,0,0,1.008,1.37,4.524,4.524,0,0,0,.476.083,1.3,1.3,0,0,1,1.206,1.378q.02,8.055,0,16.11A1.35,1.35,0,0,1,175.422,164c-1.032.181-1.556.754-1.431,1.568.121.8.862,1.245,1.852,1.118a4.092,4.092,0,0,0,3.553-4.207c.02-2.658,0-5.317,0-7.974Zm-1.355,17.589a1.33,1.33,0,1,0,.018-2.661,1.33,1.33,0,1,0-.018,2.659Z" transform="translate(-40.496 -13.826)" fill="#fff"/>
      <path id="Path_6008" data-name="Path 6008" d="M285.276,367.18v22.881h-6.719v-8.836c0-2.654-1.117-4.057-3.767-4.673a8.676,8.676,0,0,0,.7-.884,10.525,10.525,0,0,0,1.07-1.962,2.667,2.667,0,0,0-2.037-3.689c-2.1-.556-3.832.075-5.413,2.009a2.648,2.648,0,0,1-.323-.3,4.676,4.676,0,0,0-5.094-1.719,2.65,2.65,0,0,0-2.077,3.776,6.977,6.977,0,0,0,.714,1.433c.283.449.647.849,1.023,1.333a2.261,2.261,0,0,1-.266.093,4.06,4.06,0,0,0-3.485,4.178c-.018,2.792,0,5.583,0,8.375v.9h-6.71V367.183h32.386Z" transform="translate(-108.551 -223.717)" fill="#fff"/>
      <path id="Path_6009" data-name="Path 6009" d="M263.58,203.276H252.87V180.4h10.71Z" transform="translate(-108.534 -68.018)" fill="#fff"/>
      <path id="Path_6010" data-name="Path 6010" d="M141.486,212.226c-.5,0-.96.033-1.408-.008a1.242,1.242,0,0,1-1.22-1.255c-.025-.293-.012-.591-.012-.885q0-30.288-.027-60.574c0-2.183,1.045-2.363,2.668-2.105v64.827Z" transform="translate(-13.463 -40.433)" fill="#fff"/>
      <path id="Path_6011" data-name="Path 6011" d="M545.48,147.407a12.269,12.269,0,0,1,1.406.01,1.305,1.305,0,0,1,1.231,1.346c.01.16.007.323.007.483v61.218c0,1.456-.4,1.85-1.869,1.847h-.772v-64.9Z" transform="translate(-352.452 -40.502)" fill="#fff"/>
      <path id="Path_6012" data-name="Path 6012" d="M399.21,180.26h8.037v22.871H399.21V180.26Zm2.648,8.661c0,1.5-.007,3.005,0,4.508.007,1.042.511,1.636,1.36,1.636s1.351-.592,1.353-1.639q.01-4.428,0-8.855c0-1.045-.5-1.634-1.356-1.634s-1.35.592-1.356,1.637c-.008,1.449,0,2.9,0,4.347Zm2.711,10.224a1.352,1.352,0,1,0-1.333,1.353,1.386,1.386,0,0,0,1.333-1.353Z" transform="translate(-230.522 -67.901)" fill="#fff"/>
      <path id="Path_6013" data-name="Path 6013" d="M334.23,180.12H342.3v.87c0,7.062-.012,14.126.018,21.189,0,.759-.225.942-.95.929-2.358-.043-4.716-.017-7.139-.017V180.12Zm2.653,8.76c0,1.5-.008,3.005,0,4.508.007.985.513,1.558,1.345,1.559s1.358-.577,1.363-1.553q.02-4.508,0-9.016c0-.978-.533-1.556-1.356-1.558s-1.343.569-1.351,1.551C336.876,185.874,336.883,187.377,336.883,188.88Zm.008,10.029a1.349,1.349,0,1,0,1.438-1.228,1.379,1.379,0,0,0-1.438,1.228Z" transform="translate(-176.355 -67.785)" fill="#fff"/>
      <path id="Path_6014" data-name="Path 6014" d="M285.259,147.66v2.611H252.87V147.66Z" transform="translate(-108.534 -40.726)" fill="#fff"/>
      <path id="Path_6015" data-name="Path 6015" d="M285.284,334.64v2.584H252.9V334.64Z" transform="translate(-108.559 -196.592)" fill="#fff"/>
      <path id="Path_6016" data-name="Path 6016" d="M252.84,524.269V521.69h32.376v2.579Z" transform="translate(-108.509 -352.515)" fill="#fff"/>
      <path id="Path_6017" data-name="Path 6017" d="M323.337,472.84v5.323H309.91V472.84Z" transform="translate(-156.082 -311.794)" fill="#fff"/>
      <path id="Path_6018" data-name="Path 6018" d="M309.513,442.693c0-.384,0-.7,0-1.02.017-1.132.479-1.614,1.624-1.621,2.416-.013,4.832,0,7.249,0,.967,0,1.934-.007,2.9,0,1.3.01,1.747.454,1.756,1.734,0,.29,0,.579,0,.909H309.513Z" transform="translate(-155.75 -284.456)" fill="#fff"/>
      <path id="Path_6019" data-name="Path 6019" d="M359.27,403.381c.213-2.771,1.373-3.962,3.406-3.528A5.9,5.9,0,0,1,359.27,403.381Z" transform="translate(-197.228 -250.88)" fill="#fff"/>
      <path id="Path_6020" data-name="Path 6020" d="M323.58,403.253a7.289,7.289,0,0,1-3.48-3.431C321.969,399.051,323.425,400.481,323.58,403.253Z" transform="translate(-164.577 -250.754)" fill="#fff"/>
      <path id="Path_6021" data-name="Path 6021" d="M157.911,555.3a1.367,1.367,0,0,1-1.338,1.335,1.345,1.345,0,0,1-1.293-1.371c0-.649.556-1.325,1.073-1.31.692.02,1.561.771,1.558,1.346Z" transform="translate(-27.184 -379.414)" fill="#fff"/>
      <path id="Path_6022" data-name="Path 6022" d="M531.809,555.394a1.321,1.321,0,1,1-2.641.087c-.018-.6.8-1.318,1.531-1.355a1.289,1.289,0,0,1,1.112,1.268Z" transform="translate(-338.854 -379.553)" fill="#fff"/>
      <path id="Path_6023" data-name="Path 6023" d="M483.858,277.619c.97-.01,1.551.419,1.621,1.2.068.762-.421,1.295-1.361,1.481a1.391,1.391,0,0,0-1.341,1.593q-.01,7.9,0,15.789a1.378,1.378,0,0,0,1.291,1.558c.977.165,1.5.727,1.409,1.514a1.473,1.473,0,0,1-1.8,1.188,4.107,4.107,0,0,1-3.6-4.164c-.025-2.739-.007-5.478-.007-8.215,0-2.6-.022-5.209.008-7.813a4.019,4.019,0,0,1,3.789-4.125Z" transform="translate(-297.914 -149.059)" fill="#31536c"/>
      <path id="Path_6024" data-name="Path 6024" d="M193.039,289.694c0,2.658.017,5.317,0,7.974a4.093,4.093,0,0,1-3.553,4.207c-.988.125-1.729-.323-1.852-1.118-.125-.814.4-1.386,1.431-1.568a1.349,1.349,0,0,0,1.258-1.423q.02-8.055,0-16.11a1.3,1.3,0,0,0-1.206-1.378,4.608,4.608,0,0,1-.476-.083,1.275,1.275,0,0,1-1.008-1.37,1.213,1.213,0,0,1,1.155-1.228,3.924,3.924,0,0,1,4.124,3.087,8.991,8.991,0,0,1,.128,1.681c.013,2.443,0,4.887,0,7.33Z" transform="translate(-54.135 -149.014)" fill="#31536c"/>
      <path id="Path_6025" data-name="Path 6025" d="M205.328,442.818a1.33,1.33,0,1,1,.018-2.659,1.33,1.33,0,0,1-.018,2.661Z" transform="translate(-67.778 -284.551)" fill="#31536c"/>
      <path id="Path_6026" data-name="Path 6026" d="M489.648,442.818a1.33,1.33,0,1,1,.018-2.659,1.33,1.33,0,1,1-.018,2.661Z" transform="translate(-304.785 -284.551)" fill="#31536c"/>
      <rect id="Rectangle_2571" data-name="Rectangle 2571" width="24.826" height="21.769" transform="translate(147.867 144.605)" fill="#fff"/>
      <rect id="Rectangle_2572" data-name="Rectangle 2572" width="32.383" height="54.357" transform="translate(144.341 112.016)" fill="#fff"/>
      <path id="Path_6027" data-name="Path 6027" d="M335.56,198.26v-1.09h3.832v1.09Z" transform="translate(-177.464 -81.998)" fill="#fff"/>
      <path id="Path_6028" data-name="Path 6028" d="M374.5,179.95h.8v1.18c-.236,0-.461.007-.684,0a.16.16,0,0,1-.113-.111c-.008-.348,0-.7,0-1.062Z" transform="translate(-209.921 -67.643)" fill="#fff"/>
      <line id="Line_53" data-name="Line 53" x2="34.3" transform="translate(143.224 150.179)" fill="none" stroke="#31536c" stroke-width="3"/>
      <g id="Group_6284" data-name="Group 6284" transform="translate(153.543 117.946)">
        <path id="Path_6029" data-name="Path 6029" d="M312.652,248.539a3.591,3.591,0,0,1-1.592-.744,2.919,2.919,0,0,1-1.085-2.228c-.013-3.809-.022-7.62,0-11.429a2.877,2.877,0,0,1,1.386-2.433c.484-.326.988-.624,1.476-.95a.5.5,0,0,0,.211-.291c.241-1.426.469-2.856.7-4.283a.206.206,0,0,0-.007-.055c-.5-.21-.539-.268-.539-.847v-1.634a6.925,6.925,0,0,1-1.195-.311,2.377,2.377,0,0,1-1.428-2.281c-.017-.794-.007-1.588,0-2.381,0-.431.19-.611.624-.611H322.4c.448,0,.552.1.669.651h1.383c.5,0,.654.155.656.659,0,.764,0,1.528,0,2.291,0,.434-.178.611-.616.616-.474,0-.949,0-1.459,0,0,.243,0,.458,0,.672-.007.446-.165.609-.607.622-.128,0-.256,0-.443,0,.058.313.1.6.168.884a7.547,7.547,0,0,0,2.593,4.1,2.283,2.283,0,0,1,.18.156.483.483,0,0,1,.067.691.488.488,0,0,1-.694.04,8.547,8.547,0,0,1-3.247-5.59c-.042-.313-.095-.331-.639-.238v1.771c0,.5-.053.571-.547.731.1.639.2,1.283.31,1.925.13.792.256,1.584.4,2.373a.631.631,0,0,0,.245.361c.458.315.935.6,1.4.9a3.026,3.026,0,0,1,1.444,2.649c.01,3.651-.017,7.3.013,10.953a3.185,3.185,0,0,1-2.608,3.215c-.027,0-.048.03-.073.045h-8.334Zm2.1-22.438c-.266,1.609-.529,3.192-.784,4.776a.734.734,0,0,1-.358.547c-.548.339-1.088.691-1.632,1.035a2.137,2.137,0,0,0-1.05,1.912v10.863a2.156,2.156,0,0,0,2.336,2.335q3.542,0,7.084,0a2.94,2.94,0,0,0,.736-.08,2.118,2.118,0,0,0,1.6-2.253q0-5.432,0-10.863a2.133,2.133,0,0,0-1.052-1.912c-.511-.324-1.012-.664-1.533-.97a.966.966,0,0,1-.484-.764c-.23-1.478-.481-2.954-.714-4.431-.033-.213-.153-.211-.311-.21-1.19,0-2.381,0-3.571,0-.078,0-.156.008-.263.013Zm-3.2-7.052c0,.652,0,1.285,0,1.917a1.471,1.471,0,0,0,1.639,1.629h8.836v-3.546H311.559Zm2.641,6.032h5.22V223.6H314.2Zm8.826-5.387c0,.5,0,.973.007,1.448a.221.221,0,0,0,.155.153c.3.015.609.007.932.007v-1.607Z" transform="translate(-309.962 -218.06)" fill="#31536c"/>
        <path id="Path_6030" data-name="Path 6030" d="M319.6,266.3c.107-.005.185-.013.263-.013q1.785,0,3.571,0c.158,0,.278,0,.311.21.233,1.478.484,2.954.714,4.431a.97.97,0,0,0,.484.764c.521.306,1.022.646,1.533.97a2.14,2.14,0,0,1,1.052,1.912V285.44a2.116,2.116,0,0,1-1.6,2.253,2.864,2.864,0,0,1-.736.08q-3.542.008-7.084,0a2.155,2.155,0,0,1-2.336-2.335V274.579a2.136,2.136,0,0,1,1.05-1.912c.544-.346,1.085-.7,1.632-1.035a.734.734,0,0,0,.358-.547c.255-1.584.519-3.167.784-4.776Zm2.065,7.57h-4.253c-.424,0-.647.173-.651.486s.22.489.641.5h8.327c.09,0,.178,0,.268,0,.344-.022.556-.215.549-.5s-.21-.456-.539-.481c-.078-.007-.158,0-.238,0h-4.1Zm.01,9.342q-2.1,0-4.192,0a1.537,1.537,0,0,0-.381.04.468.468,0,0,0,.025.905,1.669,1.669,0,0,0,.353.032q4.163,0,8.325,0a1.955,1.955,0,0,0,.3-.015.481.481,0,0,0,.443-.473.487.487,0,0,0-.441-.479,1.755,1.755,0,0,0-.3-.013h-4.134Zm-.045-11.59c.436,0,.874.008,1.31,0,.351-.008.564-.2.562-.484a.508.508,0,0,0-.566-.488q-1.281-.01-2.559,0c-.358,0-.561.183-.569.474-.008.308.19.489.571.5.416.008.834,0,1.25,0Z" transform="translate(-314.803 -258.264)" fill="#fff"/>
        <path id="Path_6031" data-name="Path 6031" d="M319.57,224h10.477v3.546h-8.836a1.469,1.469,0,0,1-1.639-1.629c0-.632,0-1.265,0-1.917Z" transform="translate(-317.971 -223.012)" fill="#fff"/>
        <path id="Path_6032" data-name="Path 6032" d="M335.43,252.8V251.32h5.22V252.8Z" transform="translate(-331.192 -245.785)" fill="#fff"/>
        <path id="Path_6033" data-name="Path 6033" d="M388.465,227.87h1.093v1.607c-.321,0-.627.008-.932-.007a.224.224,0,0,1-.155-.153C388.46,228.843,388.465,228.369,388.465,227.87Z" transform="translate(-375.4 -226.238)" fill="#fff"/>
        <path id="Path_6034" data-name="Path 6034" d="M326.614,311.865h4.1c.08,0,.16,0,.238,0,.329.025.534.208.539.481s-.2.476-.549.5c-.088.005-.178,0-.268,0H322.35c-.421-.007-.644-.18-.641-.5s.228-.486.651-.486q2.127,0,4.253,0Z" transform="translate(-319.755 -296.254)" fill="#31536c"/>
        <path id="Path_6035" data-name="Path 6035" d="M326.648,368.009h4.134a1.759,1.759,0,0,1,.3.013.487.487,0,0,1,.441.479.479.479,0,0,1-.443.473,1.955,1.955,0,0,1-.3.015h-8.325a1.667,1.667,0,0,1-.353-.032.468.468,0,0,1-.025-.905,1.544,1.544,0,0,1,.381-.04q2.1,0,4.192,0Z" transform="translate(-319.779 -343.056)" fill="#31536c"/>
        <path id="Path_6036" data-name="Path 6036" d="M341.849,293.468c-.416,0-.834.007-1.25,0-.381-.008-.579-.19-.571-.5.008-.291.211-.473.569-.474q1.281-.01,2.559,0a.509.509,0,0,1,.566.488c0,.281-.213.476-.562.484-.436.01-.874,0-1.31,0Z" transform="translate(-335.025 -280.104)" fill="#31536c"/>
      </g>
      <g id="Group_6285" data-name="Group 6285" transform="translate(156.673 136.467)">
        <path id="Path_6037" data-name="Path 6037" d="M329.286,331.034c0,.083.028.111.112.111h.058a.087.087,0,0,1,0,.173h-.6a.087.087,0,0,1,0-.173h.032c.083,0,.112-.028.112-.111v-1.4c0-.073-.028-.1-.112-.1h-.032a.087.087,0,0,1,0-.173h.75a.6.6,0,0,1,.664.582.609.609,0,0,1-.664.6h-.128c-.05,0-.082-.025-.082-.087s.03-.086.082-.086h.075a.39.39,0,0,0,.414-.428.385.385,0,0,0-.443-.409H329.4c-.083,0-.112.028-.112.111v1.388Z" transform="translate(-328.77 -329.36)" fill="#31536c"/>
        <path id="Path_6038" data-name="Path 6038" d="M339.877,333.908a.537.537,0,0,1-.468.263.462.462,0,0,1-.506-.489v-.674a.088.088,0,0,0-.1-.095h0a.087.087,0,0,1,0-.173h.313a.055.055,0,0,1,.062.062v.854c0,.2.07.333.271.333.225,0,.409-.221.409-.542v-.436a.088.088,0,0,0-.1-.095h0a.087.087,0,0,1,0-.173h.313a.055.055,0,0,1,.062.062v1.058c0,.062.022.107.073.11h.028c.05,0,.082.025.082.083a.076.076,0,0,1-.082.087h-.275a.061.061,0,0,1-.065-.058l-.017-.171Z" transform="translate(-337.064 -332.178)" fill="#31536c"/>
        <path id="Path_6039" data-name="Path 6039" d="M350.13,332.918c-.078-.07-.118-.111-.215-.111-.173,0-.263.131-.263.374v.562a.091.091,0,0,0,.095.095c.045,0,.07.028.07.086a.075.075,0,0,1-.082.087h-.444a.076.076,0,0,1-.082-.087c0-.058.025-.086.073-.086a.091.091,0,0,0,.095-.095v-.862a.091.091,0,0,0-.095-.095c-.045,0-.073-.028-.073-.087a.076.076,0,0,1,.082-.087h.275a.061.061,0,0,1,.065.058l.008.092a.385.385,0,0,1,.341-.173.41.41,0,0,1,.308.12c.1.1-.05.3-.156.206Z" transform="translate(-345.809 -332.052)" fill="#31536c"/>
        <path id="Path_6040" data-name="Path 6040" d="M357.9,331.239c0,.062-.03.09-.082.09h-.286a.058.058,0,0,1-.065-.058l-.012-.151a.577.577,0,0,1-.5.243.649.649,0,0,1-.636-.726.683.683,0,0,1,.647-.731.6.6,0,0,1,.473.213v-.481a.088.088,0,0,0-.1-.095h0a.087.087,0,0,1,0-.173h.313a.055.055,0,0,1,.062.062v1.606a.1.1,0,0,0,.1.118c.057,0,.082.025.082.083Zm-.451-.6c0-.313-.173-.546-.426-.546-.288,0-.414.233-.414.546s.126.541.414.541C357.272,331.177,357.447,330.944,357.447,330.636Z" transform="translate(-351.735 -329.368)" fill="#31536c"/>
        <path id="Path_6041" data-name="Path 6041" d="M367.146,332.722a.076.076,0,0,1,.082.087c0,.058-.025.087-.07.087a.106.106,0,0,0-.1.073l-.612,1.371a.575.575,0,0,1-.5.386.52.52,0,0,1-.364-.135c-.095-.11.062-.295.173-.188a.33.33,0,0,0,.221.128c.181,0,.268-.163.4-.451l-.546-1.13a.093.093,0,0,0-.083-.057c-.048,0-.075-.028-.075-.087a.075.075,0,0,1,.082-.087h.444a.076.076,0,0,1,.082.087c0,.058-.022.087-.067.087s-.065.022-.065.057a.137.137,0,0,0,.017.062l.356.742.325-.742a.183.183,0,0,0,.02-.067c0-.032-.02-.05-.067-.05s-.078-.028-.078-.087a.076.076,0,0,1,.082-.087h.356Z" transform="translate(-359.425 -332.161)" fill="#31536c"/>
        <path id="Path_6042" data-name="Path 6042" d="M330.706,346.562a.334.334,0,0,1-.288.153.284.284,0,0,1-.3-.308.622.622,0,0,1-.567.308.554.554,0,0,1-.607-.542.576.576,0,0,1,.418-.574.413.413,0,0,1-.333-.4.538.538,0,0,1,.579-.506.6.6,0,0,1,.428.135c.09.1-.058.28-.171.181a.38.38,0,0,0-.268-.136.281.281,0,0,0-.295.308c0,.206.145.311.381.311h.05c.05,0,.078.028.078.09s-.028.09-.078.09a.48.48,0,0,0-.5.473.355.355,0,0,0,.369.4c.263,0,.506-.23.506-.759v-.115h-.112c-.05,0-.078-.032-.078-.09s.028-.083.078-.083h.126l.07-.266a.054.054,0,0,1,.057-.045h.083a.046.046,0,0,1,.05.05v.26h.2c.05,0,.078.025.078.083s-.028.09-.078.09h-.2v.769c0,.067.03.107.087.107a.153.153,0,0,0,.118-.073c.03-.04.058-.053.1-.033.057.028.05.078.025.128Z" transform="translate(-328.912 -342.139)" fill="#31536c"/>
        <path id="Path_6043" data-name="Path 6043" d="M343.954,346.562c0,.083.028.111.112.111h.032a.087.087,0,0,1,0,.173h-.576a.087.087,0,0,1,0-.173h.032c.083,0,.112-.028.112-.111v-1.388c0-.083-.028-.112-.112-.112h-.032a.087.087,0,0,1,0-.173h1.215a.055.055,0,0,1,.062.058l.022.353c0,.033-.022.053-.065.053s-.067-.022-.083-.07a.3.3,0,0,0-.286-.221h-.319c-.083,0-.112.028-.112.112Zm.185-.579c-.05,0-.078-.028-.078-.087s.028-.087.078-.087h.238a.071.071,0,0,0,.082-.075.085.085,0,0,1,.17,0v.324a.076.076,0,0,1-.087.082.073.073,0,0,1-.083-.082c0-.053-.025-.075-.082-.075h-.238Z" transform="translate(-340.999 -342.306)" fill="#31536c"/>
        <path id="Path_6044" data-name="Path 6044" d="M353.011,345.274a.055.055,0,0,1,.062.062V346.4a.091.091,0,0,0,.095.095c.045,0,.07.028.07.087a.075.075,0,0,1-.082.087h-.444a.076.076,0,0,1-.082-.087c0-.058.025-.087.073-.087a.091.091,0,0,0,.095-.095v-.862a.091.091,0,0,0-.095-.095c-.045,0-.073-.028-.073-.087a.076.076,0,0,1,.082-.087Zm-.255-.414a.181.181,0,1,1,.181.181A.181.181,0,0,1,352.756,344.86Z" transform="translate(-348.66 -342.131)" fill="#31536c"/>
        <path id="Path_6045" data-name="Path 6045" d="M358.765,348.28h-.18a.5.5,0,0,1,.135.348.536.536,0,0,1-.591.522.725.725,0,0,1-.311-.062.116.116,0,0,0-.083.111c0,.073.057.095.181.095h.316c.338,0,.587.136.587.444s-.28.456-.657.456c-.409,0-.669-.171-.669-.394,0-.1.04-.185.14-.185s.107.058.118.143c.02.168.131.26.411.26.225,0,.383-.067.383-.238s-.12-.225-.356-.225h-.341c-.25,0-.358-.1-.358-.275a.332.332,0,0,1,.188-.295.531.531,0,0,1,.451-.887h.636c.057,0,.083.03.083.087s-.028.09-.083.09Zm-.636,0a.349.349,0,1,0,.321.348A.308.308,0,0,0,358.129,348.28Z" transform="translate(-352.711 -344.982)" fill="#31536c"/>
        <path id="Path_6046" data-name="Path 6046" d="M367.895,348.28h-.18a.5.5,0,0,1,.135.348.536.536,0,0,1-.591.522.725.725,0,0,1-.311-.062.116.116,0,0,0-.083.111c0,.073.057.095.181.095h.316c.338,0,.587.136.587.444s-.28.456-.657.456c-.409,0-.669-.171-.669-.394,0-.1.04-.185.14-.185s.107.058.118.143c.02.168.132.26.411.26.225,0,.383-.067.383-.238s-.12-.225-.356-.225h-.341c-.25,0-.358-.1-.358-.275a.332.332,0,0,1,.188-.295.531.531,0,0,1,.451-.887h.636c.057,0,.083.03.083.087s-.028.09-.083.09Zm-.636,0a.349.349,0,1,0,.321.348A.308.308,0,0,0,367.259,348.28Z" transform="translate(-360.322 -344.982)" fill="#31536c"/>
      </g>
    </g>
  </g>
</svg>
