<svg xmlns="http://www.w3.org/2000/svg" xmlns:xlink="http://www.w3.org/1999/xlink" width="148" height="148" viewBox="0 0 148 148">
  <defs>
    <clipPath id="clip-path">
      <rect id="Rectangle_2581" data-name="Rectangle 2581" width="88.104" height="77.823" fill="#3e5168"/>
    </clipPath>
  </defs>
  <g id="Group_6456" data-name="Group 6456" transform="translate(-656 -1928)">
    <circle id="Ellipse_99" data-name="Ellipse 99" cx="74" cy="74" r="74" transform="translate(656 1928)" fill="#fff"/>
    <g id="Group_6452" data-name="Group 6452" transform="translate(686 1967.14)">
      <g id="Group_6451" data-name="Group 6451" clip-path="url(#clip-path)">
        <path id="Path_6280" data-name="Path 6280" d="M0,21.689c.281-1.428.5-2.871.855-4.282A22.613,22.613,0,0,1,4.2,10.1c.6-.888,1.329-1.126,2.006-.674s.717,1.215.137,2.114c-4.32,6.7-5.04,13.694-1.706,21A19.382,19.382,0,0,0,8.6,38.135c2.765,2.79,5.539,5.572,8.378,8.426l1.033-.972c1.961-1.85,3.936-3.685,5.878-5.555A5.8,5.8,0,0,1,30.518,38.6,5.748,5.748,0,0,1,34.3,44.307c0,.111.016.222.032.429a6.214,6.214,0,0,1,4.955,1.685,6.05,6.05,0,0,1,1.829,5.005A6.324,6.324,0,0,1,45.874,53a6.148,6.148,0,0,1,2,4.708,13.6,13.6,0,0,1,2.13.017,5.974,5.974,0,0,1,4.963,4.837A6.351,6.351,0,0,0,59.075,66.3a3.431,3.431,0,0,0,2.963-5.741c-.192-.213-.4-.411-.6-.614q-8.115-8.129-16.23-16.259a4.516,4.516,0,0,1-.522-.569,1.181,1.181,0,0,1,.169-1.7,1.206,1.206,0,0,1,1.649-.051,6.155,6.155,0,0,1,.687.649q8.146,8.159,16.286,16.324a3.67,3.67,0,0,0,2.884,1.286,3.442,3.442,0,0,0,2.454-5.691,9.4,9.4,0,0,0-.658-.68q-8.085-8.1-16.169-16.2a4.506,4.506,0,0,1-.678-.772,1.048,1.048,0,0,1,.248-1.528,2.429,2.429,0,0,1,1.487-.172c.282.039.528.411.77.653q8.179,8.187,16.348,16.384a3.68,3.68,0,0,0,2.964,1.3A3.444,3.444,0,0,0,75.3,46.994c-2.629-2.643-5.278-5.267-7.919-7.9-.569-.567-1.146-1.126-1.7-1.7a1.295,1.295,0,1,1,1.8-1.827q3.3,3.267,6.583,6.559a9.232,9.232,0,0,1,.613.757c4.616-4.32,9.072-8.516,10.44-14.985C87.351,17.306,80.647,4.257,67.1,2.735A20.692,20.692,0,0,0,45.4,15.267a11.028,11.028,0,0,1-1.433,2.128c-3.333,4.345-6.647,8.706-10.044,13-1.3,1.643-.467,2.712,1.072,3.081a6.634,6.634,0,0,0,5.31-.739c2.42-1.578,4.739-3.314,7.064-5.033,1.89-1.4,3.74-2.85,5.578-4.316a2.186,2.186,0,0,1,1.914-.474,20.909,20.909,0,0,0,9.695-.553c.083-.023.162-.058.245-.08.98-.271,1.638.017,1.871.82a1.259,1.259,0,0,1-1.108,1.63c-2.129.419-4.277.742-6.421,1.08a9.6,9.6,0,0,1-1.341.009c.247.286.392.476.559.644,1.582,1.582,3.172,3.156,4.751,4.74.735.737.813,1.547.226,2.1s-1.3.47-2.032-.268c-2.375-2.408-4.74-4.826-7.155-7.287-1.254.964-2.374,1.843-3.515,2.7-2.753,2.06-5.446,4.21-8.3,6.127a9.7,9.7,0,0,1-7.978,1.407,6.509,6.509,0,0,1-1.052-.368,4.032,4.032,0,0,1-1.693-6.4c2.639-3.468,5.314-6.909,7.974-10.361.858-1.113,1.7-2.237,2.581-3.332a.914.914,0,0,0,.132-1.147A20.549,20.549,0,0,0,26.07,2.773,19.925,19.925,0,0,0,10.378,7.139c-.822.653-1.629.64-2.113,0s-.287-1.368.558-2.052A23.574,23.574,0,0,1,43.5,11.213c.159.264.325.525.544.878.208-.325.376-.574.533-.831A23.429,23.429,0,0,1,87.6,18.865c1.68,8.585-.913,15.822-7.046,21.915-1.279,1.271-2.507,2.594-3.818,3.955,2.249,2.148,3,4.732,1.418,7.664a5.824,5.824,0,0,1-5.885,3.1A6.44,6.44,0,0,1,70.5,60.427a6.064,6.064,0,0,1-4.924,1.765c.076,2.98-1.114,5.219-3.938,6.307a5.779,5.779,0,0,1-6.823-1.749c-1.577,1.408-3.13,2.762-4.645,4.158q-2.656,2.449-5.254,4.962a6.072,6.072,0,0,1-10.482-4.1,1.738,1.738,0,0,0-.064-.253,6.145,6.145,0,0,1-7.155-6.555c-4.78-.67-6.437-2.3-6.747-6.651A5.974,5.974,0,0,1,14.421,55.1a5.9,5.9,0,0,1,.705-6.79c-1.5-1.5-2.973-2.975-4.449-4.453-1.418-1.421-2.866-2.814-4.247-4.27A22.742,22.742,0,0,1,.145,26.13,2.733,2.733,0,0,0,0,25.648V21.689M41.8,54.026l-.109-.213a9.9,9.9,0,0,0-2.205,1.167c-2.883,2.622-5.706,5.31-8.523,8a3.447,3.447,0,1,0,4.764,4.978c.758-.7,1.49-1.428,2.255-2.12a1.289,1.289,0,1,1,1.755,1.871c-.5.509-1.046.979-1.559,1.479a3.445,3.445,0,1,0,4.7,5.034q4.246-3.956,8.444-7.962a3.448,3.448,0,1,0-4.738-5c-.824.755-1.622,1.538-2.444,2.295a1.309,1.309,0,1,1-1.763-1.873c.637-.619,1.323-1.19,1.927-1.839a3.3,3.3,0,0,0,.681-3.739A3.376,3.376,0,0,0,41.8,54.026m-6.759-6.89a8.126,8.126,0,0,0-2.108,1.01q-4.485,4.082-8.836,8.31a3.345,3.345,0,0,0-.029,4.8,3.434,3.434,0,0,0,4.873.073c.592-.542,1.17-1.1,1.754-1.651,2.254-2.125,4.519-4.238,6.755-6.381a3.4,3.4,0,0,0,.848-3.864,3.97,3.97,0,0,0-3.258-2.3m-3.335-3.48a3.143,3.143,0,0,0-2.048-2.629,3.318,3.318,0,0,0-3.813.715q-4.229,3.977-8.439,7.974a3.45,3.45,0,0,0-.252,4.868,3.386,3.386,0,0,0,4.924.168c2.886-2.664,5.727-5.375,8.579-8.076a3.644,3.644,0,0,0,1.049-3.02" transform="translate(0 0)" fill="#3e5168"/>
      </g>
    </g>
  </g>
</svg>
