<svg xmlns="http://www.w3.org/2000/svg" xmlns:xlink="http://www.w3.org/1999/xlink" width="148" height="148" viewBox="0 0 148 148">
  <defs>
    <clipPath id="clip-path">
      <rect id="Rectangle_2585" data-name="Rectangle 2585" width="93.258" height="63.856" fill="#39526a"/>
    </clipPath>
  </defs>
  <g id="Group_6455" data-name="Group 6455" transform="translate(-192 -1928)">
    <circle id="Ellipse_98" data-name="Ellipse 98" cx="74" cy="74" r="74" transform="translate(192 1928)" fill="#fff"/>
    <g id="Group_6467" data-name="Group 6467" transform="translate(219.371 1965.764)">
      <g id="Group_6466" data-name="Group 6466" clip-path="url(#clip-path)">
        <path id="Path_6288" data-name="Path 6288" d="M93.258,51.062a9.433,9.433,0,0,1-1.3,1.34,72.213,72.213,0,0,1-15.332,8.256c-1.2.462-1.954.3-2.5-.519-.771-1.156-.353-2.34,1.062-2.881a66.041,66.041,0,0,0,10.968-5.464c.617-.379,1.226-.771,1.96-1.233a60.466,60.466,0,0,0-18.788-8.519c-1.3,2.017-2.469,4-3.8,5.862a24.449,24.449,0,0,1-6.979,6.309c-2.252,1.43-4.465,2.922-6.693,4.39a4.753,4.753,0,0,0-.406.356,32.4,32.4,0,0,0,7.8,1.2c.485.019.976-.013,1.454.049a1.89,1.89,0,0,1,1.759,1.873A1.8,1.8,0,0,1,60.58,63.8a43.847,43.847,0,0,1-6.336-.483c-2.4-.441-4.734-1.248-7.1-1.874a1.661,1.661,0,0,0-.941-.02c-10.036,3.774-19.931,2.9-29.748-.854A72.754,72.754,0,0,1,.981,52.189c-1.343-.932-1.3-2.385.09-3.344A67.065,67.065,0,0,1,22.263,38.658a2.306,2.306,0,0,0,.336-.147c-.328-1.649-.726-3.263-.963-4.9a39.968,39.968,0,0,1,1.35-17.362,1.856,1.856,0,0,1,3-1.162c2.758,1.7,5.463,3.49,8.187,5.247.251.162.484.354.829.608.134-.413.246-.744.35-1.079A69.546,69.546,0,0,1,44.994.893a1.838,1.838,0,0,1,3.187.059,69.772,69.772,0,0,1,9.678,19.156c.079.254.172.5.253.741,2.038-1.363,4.014-2.709,6.017-4.014.913-.595,1.872-1.121,2.824-1.653,1.622-.906,2.76-.473,3.262,1.3a38.966,38.966,0,0,1,.344,21.541c-.032.115-.047.235-.084.423.22.082.432.18.654.239a67.724,67.724,0,0,1,21.241,10.3,5.689,5.689,0,0,1,.887.993ZM46.644,56.107c1.061-1.22,2.181-2.338,3.105-3.6,6.126-8.351,7.541-17.686,5.508-27.647-1.443-7.073-4.64-13.418-8.524-19.442-.043-.066-.13-.1-.226-.175a64.229,64.229,0,0,0-7.28,14.613c-2.876,8.526-3.136,17.053.141,25.54a28.1,28.1,0,0,0,7.275,10.711M42,58.965c-1.3-.808-2.41-1.59-3.6-2.227-6.125-3.283-11.02-7.782-14.068-14.116-.275-.571-.593-.549-1.075-.424A61.168,61.168,0,0,0,5.5,50.34a2.792,2.792,0,0,0-.357.437c3.217,1.691,6.29,3.466,9.5,4.956a43.386,43.386,0,0,0,19.593,4.431A30.421,30.421,0,0,0,42,58.965m12.33-6.345c9.711-3.284,17.046-22.211,12.659-33.387-2.4,1.714-4.752,3.414-7.132,5.069a1.464,1.464,0,0,0-.638,1.684,37.265,37.265,0,0,1-1.856,20.2c-.873,2.236-2.042,4.357-3.032,6.439m-15.446.042c-.833-1.621-1.727-3.173-2.45-4.8a38.268,38.268,0,0,1-2.533-22.252,1.271,1.271,0,0,0-.378-1.039c-2.356-1.7-4.752-3.35-7.14-5.007a1.563,1.563,0,0,0-.4-.137c-3.437,14.31,2.264,27.632,12.9,33.236" transform="translate(0 0)" fill="#39526a"/>
        <path id="Path_6289" data-name="Path 6289" d="M275.791,248.729a1.8,1.8,0,0,1-1.8-1.868,1.826,1.826,0,0,1,3.651.05,1.806,1.806,0,0,1-1.852,1.818" transform="translate(-207.33 -185.451)" fill="#39526a"/>
      </g>
    </g>
  </g>
</svg>
