<svg id="Group_598" data-name="Group 598" xmlns="http://www.w3.org/2000/svg" width="53.625" height="39.325" viewBox="0 0 53.625 39.325">
  <path id="Path_723" data-name="Path 723" d="M52.731,5.235V4.894H52.39A3.545,3.545,0,0,0,50.05,4H3.575A3.579,3.579,0,0,0,0,7.575V39.75a3.579,3.579,0,0,0,3.575,3.575H50.05a3.575,3.575,0,0,0,3.575-3.575V7.575A3.547,3.547,0,0,0,52.731,5.235ZM9.778,24.406a3.573,3.573,0,0,1-2.456.8H5.363V18.286h1.97a3.426,3.426,0,0,1,3.693,3.464,3.486,3.486,0,0,1-1.248,2.656ZM43.24,18.287h1.989c1.548,0,2.435.747,2.435,2.041A1.835,1.835,0,0,1,46.1,22.29L48.263,25.2h-1.65l-1.859-2.778H44.58V25.2H43.24V18.286Zm-4.7,0h3.807v1.171H39.885V21H42.26v1.171H39.885v1.866h2.467V25.2H38.544V18.286Zm-5.756,0,1.836,4.646,1.859-4.647h1.455l-2.973,7.1h-.722l-2.919-7.1H32.79Zm-19.8,6.918H11.644V18.287h1.341v6.918Zm2.887.164a2.673,2.673,0,0,1-2.383-1.316l.867-.84a1.589,1.589,0,0,0,1.466.922.983.983,0,0,0,1.042-.976.829.829,0,0,0-.4-.715,5.353,5.353,0,0,0-.93-.393c-1.26-.456-1.691-.944-1.691-1.9a2.025,2.025,0,0,1,2.145-1.982,3,3,0,0,1,2.022.767l-.7.924a1.384,1.384,0,0,0-1.081-.559c-.579,0-1,.331-1,.767,0,.374.238.572,1.042.871C17.793,21.5,18.247,22,18.247,23.1A2.224,2.224,0,0,1,15.873,25.37Zm8.11-5.227a2.241,2.241,0,0,0-1.682-.778,2.294,2.294,0,0,0-2.249,2.376,2.255,2.255,0,0,0,2.311,2.385,2.139,2.139,0,0,0,1.619-.756v1.587a3.7,3.7,0,0,1-1.682.4,3.572,3.572,0,0,1-3.632-3.609,3.629,3.629,0,0,1,3.664-3.62,3.408,3.408,0,0,1,1.65.425v1.587Zm4.1-2.052a3.679,3.679,0,1,1-3.661,3.679A3.671,3.671,0,0,1,28.082,18.091ZM51.838,39.75a1.79,1.79,0,0,1-1.788,1.787H25.363A90.329,90.329,0,0,0,51.838,27.525Z" transform="translate(0 -4)" fill="#485ba2"/>
  <path id="Path_724" data-name="Path 724" d="M26.643,13.628c0-.674-.456-1.026-1.291-1.026H24.94V14.7h.391C26.189,14.7,26.643,14.322,26.643,13.628Z" transform="translate(19.64 2.774)" fill="#485ba2"/>
  <path id="Path_725" data-name="Path 725" d="M4.111,12.648H3.75v4.576h.361a2.535,2.535,0,0,0,1.836-.551,2.377,2.377,0,0,0,.744-1.743,2.336,2.336,0,0,0-.744-1.723,2.483,2.483,0,0,0-1.836-.559Z" transform="translate(2.953 2.81)" fill="#485ba2"/>
</svg>
