<svg width="56" height="41" viewBox="0 0 56 41" fill="none" xmlns="http://www.w3.org/2000/svg">
<path d="M52.237 0H4.03899C3.05581 0.000794488 2.11313 0.391713 1.41792 1.08693C0.722706 1.78214 0.331788 2.72482 0.330994 3.708L0.330994 37.075C0.331788 38.0582 0.722706 39.0009 1.41792 39.6961C2.11313 40.3913 3.05581 40.7822 4.03899 40.783H52.239C53.2222 40.7822 54.1649 40.3913 54.8601 39.6961C55.5553 39.0009 55.9462 38.0582 55.947 37.075V3.708C55.9462 2.72447 55.555 1.78149 54.8594 1.08622C54.1637 0.390949 53.2205 0.000264708 52.237 0ZM54.091 37.075C54.0902 37.5665 53.8946 38.0376 53.5471 38.3851C53.1996 38.7326 52.7285 38.9282 52.237 38.929H4.03899C3.54753 38.9282 3.07641 38.7326 2.72889 38.3851C2.38137 38.0376 2.18579 37.5665 2.18499 37.075V3.708C2.18579 3.21653 2.38137 2.74542 2.72889 2.3979C3.07641 2.05038 3.54753 1.85479 4.03899 1.854H52.239C52.7301 1.85532 53.2007 2.05114 53.5478 2.3986C53.8949 2.74607 54.0902 3.21688 54.091 3.708V37.075Z" fill="#485BA2"/>
<path d="M14.563 19.031C14.614 19.09 14.6824 19.1315 14.7583 19.1494C14.8343 19.1674 14.9139 19.1609 14.986 19.131C15.057 19.105 15.1163 19.0543 15.153 18.9882C15.1897 18.9221 15.2014 18.845 15.186 18.771L14.604 16.233V16.216C14.5081 15.9424 14.3223 15.7093 14.077 15.5547C13.8317 15.4002 13.5412 15.3333 13.253 15.365H13.233H9.956C9.87692 15.3624 9.79941 15.3874 9.7368 15.4358C9.67419 15.4841 9.63041 15.5528 9.613 15.63C9.60028 15.7067 9.61603 15.7854 9.65728 15.8514C9.69853 15.9173 9.76244 15.9659 9.837 15.988C11.6663 16.5402 13.304 17.5945 14.564 19.031H14.563Z" fill="#485BA2"/>
<path d="M43.96 15.389H41.828C41.4973 15.3421 41.1603 15.4018 40.8659 15.5595C40.5715 15.7172 40.3351 15.9647 40.191 16.266L35.773 25.5C35.7494 25.5486 35.7393 25.6027 35.7439 25.6566C35.7485 25.7104 35.7675 25.7621 35.799 25.806C35.8325 25.8521 35.8766 25.8895 35.9276 25.9149C35.9786 25.9403 36.035 25.953 36.092 25.952H38.592C38.6608 25.9532 38.7284 25.9341 38.7863 25.8971C38.8443 25.8601 38.8901 25.8069 38.918 25.744C39.224 24.995 39.418 24.519 39.487 24.365H41.293H43.486C43.558 24.645 43.734 25.388 43.807 25.694C43.8271 25.7684 43.8717 25.8339 43.9336 25.88C43.9954 25.9261 44.0709 25.95 44.148 25.948H46.33C46.3811 25.9484 46.4317 25.938 46.4785 25.9173C46.5252 25.8966 46.567 25.8661 46.601 25.828C46.6338 25.7919 46.6573 25.7484 46.6695 25.7012C46.6817 25.6539 46.6822 25.6045 46.671 25.557L44.298 15.637C44.2776 15.5629 44.2329 15.4977 44.1711 15.452C44.1093 15.4063 44.0339 15.3827 43.957 15.385L43.96 15.389ZM40.39 22.202L42.049 18.239L42.26 19.151L42.983 22.202H40.383H40.39Z" fill="#485BA2"/>
<path d="M22.236 15.535C22.2024 15.4896 22.1585 15.4528 22.1079 15.4276C22.0573 15.4024 22.0015 15.3895 21.945 15.39H19.405C19.3374 15.3884 19.2708 15.4064 19.2133 15.4419C19.1558 15.4774 19.1098 15.5289 19.081 15.59L16.109 22.59L15.79 21.524C15.7856 21.5092 15.7799 21.4948 15.773 21.481C14.9249 19.9523 13.7307 18.6434 12.286 17.659C12.2261 17.6174 12.1555 17.5942 12.0826 17.5923C12.0098 17.5903 11.938 17.6097 11.876 17.648C11.8166 17.6834 11.7708 17.7378 11.746 17.8023C11.7212 17.8669 11.7187 17.9379 11.739 18.004L14.179 25.704C14.2035 25.7725 14.2489 25.8316 14.3089 25.8729C14.3688 25.9141 14.4402 25.9355 14.513 25.934H17.327C17.3932 25.9353 17.4585 25.9179 17.5153 25.8837C17.5721 25.8496 17.6181 25.8001 17.648 25.741L22.264 15.834C22.2859 15.7858 22.2947 15.7326 22.2894 15.68C22.2841 15.6273 22.265 15.5769 22.234 15.534L22.236 15.535Z" fill="#485BA2"/>
<path d="M26.447 15.384H24.031C23.9514 15.3812 23.8732 15.4063 23.8102 15.4551C23.7472 15.5039 23.7033 15.5732 23.686 15.651L21.853 25.578C21.8449 25.6246 21.8477 25.6724 21.8613 25.7177C21.8748 25.763 21.8987 25.8045 21.931 25.839C21.9649 25.8759 22.0062 25.9052 22.0522 25.925C22.0982 25.9448 22.1479 25.9547 22.198 25.954H24.612C24.6918 25.9563 24.77 25.9308 24.833 25.8816C24.8959 25.8325 24.9398 25.763 24.957 25.685L26.792 15.76C26.8005 15.7134 26.7979 15.6655 26.7843 15.6201C26.7708 15.5748 26.7467 15.5333 26.714 15.499C26.6799 15.4624 26.6386 15.4332 26.5926 15.4134C26.5466 15.3936 26.4971 15.3836 26.447 15.384Z" fill="#485BA2"/>
<path d="M33.136 17.522H33.229C33.9221 17.5174 34.6106 17.6349 35.263 17.869C35.3116 17.8866 35.3634 17.8939 35.4151 17.8905C35.4667 17.887 35.5171 17.8729 35.563 17.849C35.6069 17.8269 35.6453 17.795 35.6751 17.7559C35.7049 17.7167 35.7254 17.6713 35.735 17.623L36.013 16.09C36.0257 16.0112 36.0083 15.9306 35.9645 15.8639C35.9206 15.7973 35.8533 15.7495 35.776 15.73C34.9927 15.5039 34.1812 15.3904 33.366 15.393C30.387 15.393 28.296 16.776 28.279 18.756C28.26 20.22 29.779 21.038 30.915 21.526C32.087 22.026 32.48 22.344 32.474 22.79C32.467 23.474 31.536 23.784 30.674 23.784C29.7068 23.8103 28.7452 23.6303 27.853 23.256C27.8046 23.2377 27.753 23.2296 27.7014 23.2322C27.6498 23.2347 27.5993 23.248 27.553 23.271C27.508 23.2929 27.4688 23.3248 27.4383 23.3644C27.4077 23.4039 27.3867 23.45 27.377 23.499L27.077 25.112C27.0649 25.1892 27.0814 25.2682 27.1234 25.3341C27.1653 25.4 27.2299 25.4483 27.305 25.47C28.3046 25.7624 29.3405 25.9122 30.382 25.915C33.543 25.915 35.6 24.545 35.623 22.43C35.634 21.268 34.831 20.391 33.102 19.668C32.045 19.193 31.397 18.878 31.402 18.396C31.402 17.962 31.995 17.525 33.133 17.525L33.136 17.522Z" fill="#485BA2"/>
</svg>
